<svg width="94" height="79" viewBox="0 0 94 79" fill="none" xmlns="http://www.w3.org/2000/svg">
<path d="M8.5666 12.0137C7.70824 14.7944 9.14402 17.7658 11.856 18.8213C9.07533 17.963 6.10392 19.3988 5.04842 22.1108C5.90678 19.3301 4.47099 16.3587 1.75898 15.3032C4.53969 16.1615 7.51109 14.7257 8.5666 12.0137Z" fill="#D9D6FE"/>
<path d="M6.79989 53.9288C7.47772 55.7466 9.44476 56.7319 11.3065 56.1861C9.48867 56.8639 8.5034 58.831 9.04917 60.6927C8.37134 58.8749 6.4043 57.8896 4.5426 58.4354C6.36039 57.7576 7.34566 55.7905 6.79989 53.9288Z" fill="#D9D6FE"/>
<path d="M45.6276 2.25253C45.4006 4.17927 46.7008 5.95395 48.6063 6.31841C46.6796 6.0915 44.9049 7.39168 44.5404 9.29719C44.7674 7.37046 43.4672 5.59577 41.5617 5.23131C43.4884 5.45822 45.2631 4.15804 45.6276 2.25253Z" fill="#D9D6FE"/>
<path d="M4.59054 38.8818C4.2941 39.8029 4.75968 40.7966 5.6572 41.1583C4.73606 40.8619 3.7424 41.3274 3.38068 42.225C3.67712 41.3038 3.21154 40.3102 2.31402 39.9484C3.23516 40.2449 4.22882 39.7793 4.59054 38.8818Z" fill="#D9D6FE"/>
<path d="M42.1909 49.3139C41.8944 50.2351 42.36 51.2287 43.2575 51.5904C42.3364 51.294 41.3427 51.7596 40.981 52.6571C41.2775 51.7359 40.8119 50.7423 39.9144 50.3806C40.8355 50.677 41.8292 50.2114 42.1909 49.3139Z" fill="#D9D6FE"/>
<path d="M37.9179 12.5685C37.6215 13.4897 38.0871 14.4834 38.9846 14.8451C38.0634 14.5486 37.0698 15.0142 36.7081 15.9117C37.0045 14.9906 36.5389 13.9969 35.6414 13.6352C36.5626 13.9317 37.5562 13.4661 37.9179 12.5685Z" fill="#D9D6FE"/>
<g clip-path="url(#clip0_10143_2125)">
<path d="M27.015 43.275C27.015 43.275 27.353 42.3394 28.0213 40.4306C28.6502 38.6255 30.2588 33.9524 30.1282 31.6678C29.787 25.6629 23.5825 21.2698 21.0227 15.018C19.6201 11.595 20.1862 10.5289 19.3513 10.2632C18.5163 9.99748 16.3402 15.9599 19.2821 20.9962C19.2821 20.9962 16.5776 20.6062 16.1908 21.3861C15.804 22.166 17.4566 23.7871 18.845 24.4035C18.845 24.4035 15.51 25.4491 15.3858 26.6048C15.2615 27.7605 18.0352 28.6787 19.3167 28.7731C19.3167 28.7731 17.26 29.6851 17.3166 30.586C17.4015 31.9728 20.4472 31.9713 20.4472 31.9713C20.4472 31.9713 19.1217 32.6458 19.3465 33.2952C19.6453 34.1789 22.0353 34.3424 22.0353 34.3424C22.0353 34.3424 21.257 36.7465 24.3026 37.1318C24.3026 37.1318 23.9158 39.0501 26.2822 39.1145C26.2822 39.1145 26.7414 40.2152 26.6061 41.1397C26.4709 42.0643 26.647 43.1712 27.015 43.275Z" fill="#EBEBEB"/>
<path d="M27.3074 40.6319C27.3129 40.4097 27.2626 40.1897 27.1611 39.992C26.8938 39.3834 26.6894 38.6271 27.3058 37.9762V38.0878C26.5196 37.7529 26.1721 36.9023 26.8875 35.9431C27.069 35.6974 27.2738 35.4699 27.4992 35.2639L27.5495 35.4824C24.573 35.9274 24.7523 34.539 27.224 32.6978L27.2822 32.9981C24.1375 33.6569 23.2255 33.0264 26.2397 30.0986L26.301 30.3911C26.0792 30.4049 25.8566 30.3821 25.6422 30.3235C24.3042 29.965 24.584 28.4524 25.0038 27.108C25.301 26.1394 25.2554 25.152 24.8057 24.4271C24.3689 23.731 23.7617 23.1579 23.0415 22.762C22.6937 22.5556 22.3286 22.3799 21.9503 22.2368C22.3407 22.3501 22.7188 22.5018 23.0793 22.6897C24.5935 23.4585 25.8844 24.8202 25.2366 27.1394C25.0479 27.8675 24.823 28.5955 24.9787 29.2558C25.1438 29.8848 25.7649 30.0813 26.3341 30.053L26.7193 30.0326L26.4048 30.3471C26.0683 30.6615 24.463 32.2811 24.7318 32.7056C25.2035 33.1003 26.6391 32.8031 27.2885 32.6773L27.9395 32.5374C27.364 32.9776 25.7381 34.0893 25.6139 34.8582C25.6674 35.4368 27.1328 35.2874 27.5699 35.2387L27.9143 35.1947C27.4347 35.6271 26.8136 36.1271 26.6831 36.8221C26.5935 37.4211 27.0479 37.8095 27.4505 38.0013C26.7791 38.6303 26.963 39.319 27.1973 39.9747C27.2873 40.1836 27.3256 40.4113 27.3089 40.6382L27.3074 40.6319Z" fill="#C7C7C7"/>
<path d="M23.9864 29.4414C23.6816 29.7345 23.3944 30.0453 23.1263 30.3722C22.9156 30.6537 22.664 30.9587 22.6121 31.3157C22.5807 32.149 23.6342 32.3471 24.2065 32.4242L24.3638 32.4399C24.1079 32.7464 23.885 33.0789 23.6986 33.4321C23.0272 34.6978 24.6971 34.5799 25.3433 34.5139L25.1767 34.712C24.8701 35.0768 24.3449 35.8724 24.7804 36.1664C25.2018 36.3913 25.7647 36.3614 26.2632 36.3378H26.3669C26.0257 36.7199 25.8245 37.3237 26.0761 37.7199C26.1414 37.84 26.2289 37.9467 26.3339 38.0344C25.8135 37.7105 25.7694 37.0013 26.227 36.374L26.2537 36.4636C25.7396 36.506 24.8622 36.6208 24.5241 36.19C24.2663 35.6884 24.7065 35.0233 25.0509 34.5878L25.1028 34.7654C24.675 34.8278 24.2387 34.7934 23.826 34.6648C22.8496 34.3142 23.5477 33.1805 24.1137 32.4792L24.1499 32.6522C23.5037 32.5547 22.4077 32.2984 22.4785 31.3424C22.6074 30.6474 23.4895 29.8895 23.9785 29.4556L23.9864 29.4414Z" fill="#C7C7C7"/>
<path d="M29.2994 34.2702C29.9284 32.3063 29.5887 30.1522 28.8843 28.2512C28.2003 26.5797 27.1154 25.1064 26.1044 23.6268C25.1342 22.273 23.7333 20.3485 22.8103 18.9899C21.7757 17.4176 20.7017 15.8279 20.219 13.9851C20.3118 14.9285 20.6499 15.8546 21.0382 16.7273C21.8338 18.4695 22.8858 20.0764 23.955 21.6551C25.0242 23.2338 26.1563 24.7448 27.2003 26.3234C27.7324 27.0891 28.1835 27.908 28.5463 28.7669C29.2428 30.4965 29.628 32.4132 29.2994 34.2702Z" fill="white"/>
<path d="M23.1627 36.5515C23.1627 36.5515 20.9504 30.435 26.8405 27.3044C32.7306 24.1739 36.2747 29.7636 36.2747 29.7636C36.2747 29.7636 31.4318 34.7166 23.1627 36.5515Z" fill="white"/>
<path d="M23.1642 36.5516C31.4316 34.7166 36.2729 29.7637 36.2729 29.7637C36.2729 29.7637 28.8168 31.097 23.1642 36.5516Z" fill="white"/>
<path d="M27.4063 28.3988C27.3296 28.4408 27.2453 28.4672 27.1583 28.4765C27.0713 28.4857 26.9833 28.4777 26.8994 28.4529C26.8156 28.428 26.7374 28.3869 26.6695 28.3317C26.6016 28.2765 26.5453 28.2085 26.5038 28.1315L26.0525 27.2997C25.9686 27.1445 25.9496 26.9624 25.9997 26.7932C26.0498 26.624 26.1649 26.4816 26.3198 26.3972C26.475 26.3132 26.6571 26.2942 26.8263 26.3443C26.9955 26.3944 27.1379 26.5096 27.2224 26.6645L27.6736 27.4963C27.7576 27.6515 27.7766 27.8336 27.7265 28.0028C27.6764 28.1719 27.5612 28.3144 27.4063 28.3988Z" fill="white"/>
<path opacity="0.4" d="M27.4063 28.3988C27.3296 28.4408 27.2453 28.4672 27.1583 28.4765C27.0713 28.4857 26.9833 28.4777 26.8994 28.4529C26.8156 28.428 26.7374 28.3869 26.6695 28.3317C26.6016 28.2765 26.5453 28.2085 26.5038 28.1315L26.0525 27.2997C25.9686 27.1445 25.9496 26.9624 25.9997 26.7932C26.0498 26.624 26.1649 26.4816 26.3198 26.3972C26.475 26.3132 26.6571 26.2942 26.8263 26.3443C26.9955 26.3944 27.1379 26.5096 27.2224 26.6645L27.6736 27.4963C27.7576 27.6515 27.7766 27.8336 27.7265 28.0028C27.6764 28.1719 27.5612 28.3144 27.4063 28.3988Z" fill="white"/>
<path opacity="0.2" d="M23.1642 36.5516C31.4316 34.7166 36.2729 29.7637 36.2729 29.7637C36.2729 29.7637 28.8168 31.097 23.1642 36.5516Z" fill="black"/>
<path d="M30.3647 34.8955L30.6249 34.7536C30.7463 34.6874 30.8365 34.5756 30.8756 34.4428C30.9146 34.3101 30.8993 34.1673 30.833 34.0458L29.196 31.0446L28.0241 31.6839L29.6611 34.6851C29.7269 34.8058 29.8378 34.8957 29.9696 34.9351C30.1014 34.9745 30.2434 34.9603 30.3647 34.8955Z" fill="white"/>
<path opacity="0.3" d="M30.3647 34.8955L30.6249 34.7536C30.7463 34.6874 30.8365 34.5756 30.8756 34.4428C30.9146 34.3101 30.8993 34.1673 30.833 34.0458L29.196 31.0446L28.0241 31.6839L29.6611 34.6851C29.7269 34.8058 29.8378 34.8957 29.9696 34.9351C30.1014 34.9745 30.2434 34.9603 30.3647 34.8955Z" fill="black"/>
<path d="M23.1642 36.5517C28.8168 31.0971 36.2729 29.7638 36.2729 29.7638C36.2729 29.7638 32.7288 24.1724 26.8388 27.3046C20.9487 30.4367 23.1642 36.5517 23.1642 36.5517Z" fill="white"/>
<path opacity="0.4" d="M23.1642 36.5517C28.8168 31.0971 36.2729 29.7638 36.2729 29.7638C36.2729 29.7638 32.7288 24.1724 26.8388 27.3046C20.9487 30.4367 23.1642 36.5517 23.1642 36.5517Z" fill="white"/>
<g opacity="0.3">
<path d="M28.2431 26.7006C30.5544 27.045 32.4397 29.1378 33.4523 30.5262C34.0561 30.3265 34.586 30.1724 35.0247 30.0545C31.9758 26.0182 28.4365 26.6613 28.2635 26.6959L28.2431 26.7006Z" fill="white"/>
<path d="M27.7305 26.8877C29.542 27.8559 31.0878 29.2544 32.2321 30.9601C32.4193 30.8878 32.6032 30.8218 32.7825 30.7573C30.5466 27.7399 27.7305 26.8877 27.7305 26.8877Z" fill="white"/>
</g>
<path opacity="0.1" d="M23.1642 36.5499C25.68 34.1221 28.5605 32.5073 30.9741 31.4664C29.3782 32.1158 25.2366 33.6677 24.3277 32.8815C23.5416 32.2007 24.2743 29.4915 25.6438 28.0623C21.2695 31.3139 23.1642 36.5499 23.1642 36.5499Z" fill="black"/>
<path d="M54.6524 53.6275C54.0606 55.5758 53.0892 57.3879 51.7943 58.9594C50.4994 60.5309 48.9064 61.8308 47.1072 62.7842C45.3079 63.7376 43.3378 64.3257 41.3103 64.5148C39.2828 64.7038 37.238 64.49 35.2935 63.8856L30.2776 62.3604L40.2653 33.1301L43.5091 34.1097C43.7669 34.1737 44.0258 34.2455 44.2858 34.3251C46.2375 34.9062 48.055 35.8675 49.6337 37.1537C51.2125 38.4399 52.5212 40.0257 53.4847 41.8197C54.4482 43.6137 55.0474 45.5805 55.2478 47.6069C55.4482 49.6334 55.2458 51.6795 54.6524 53.6275Z" fill="white"/>
<path opacity="0.2" d="M54.6524 53.6275C54.0606 55.5758 53.0892 57.3879 51.7943 58.9594C50.4994 60.5309 48.9064 61.8308 47.1072 62.7842C45.3079 63.7376 43.3378 64.3257 41.3103 64.5148C39.2828 64.7038 37.238 64.49 35.2935 63.8856L30.2776 62.3604L40.2653 33.1301L43.5091 34.1097C43.7669 34.1737 44.0258 34.2455 44.2858 34.3251C46.2375 34.9062 48.055 35.8675 49.6337 37.1537C51.2125 38.4399 52.5212 40.0257 53.4847 41.8197C54.4482 43.6137 55.0474 45.5805 55.2478 47.6069C55.4482 49.6334 55.2458 51.6795 54.6524 53.6275Z" fill="black"/>
<g opacity="0.05">
<path d="M31.7917 57.9389L44.1411 63.9784C45.7024 63.5322 47.1834 62.8424 48.5295 61.9343L33.0182 54.3477L31.7917 57.9389Z" fill="black"/>
<path d="M33.3482 53.3728L49.4587 61.2519C49.7826 60.9972 50.0971 60.7288 50.4021 60.4468L33.7193 52.2878L33.3482 53.3728Z" fill="black"/>
</g>
<path d="M30.4213 62.4188C23.0415 59.583 19.5455 50.8135 22.6127 42.8314C25.6799 34.8494 34.1489 30.6775 41.5286 33.5133C48.9084 36.3491 52.4044 45.1187 49.3372 53.1007C46.27 61.0827 37.801 65.2546 30.4213 62.4188Z" fill="white"/>
<path opacity="0.1" d="M29.6211 61.7945C22.7613 59.1599 19.5719 50.8494 22.4973 43.2324C25.4227 35.6155 33.3552 31.5765 40.215 34.2111C47.0748 36.8457 50.2642 45.1562 47.3388 52.7732C44.4134 60.3901 36.481 64.4291 29.6211 61.7945Z" fill="black"/>
<path d="M29.956 60.9209C23.5299 58.4529 20.5421 50.6678 23.2826 43.5323C26.0231 36.3969 33.454 32.6132 39.8801 35.0813C46.3062 37.5493 49.294 45.3345 46.5536 52.4699C43.8131 59.6053 36.3821 63.389 29.956 60.9209Z" fill="white"/>
<path opacity="0.5" d="M24.0148 41.8992C28.3938 47.088 35.5921 55.5992 39.6346 60.2959C41.4843 59.3418 43.1012 57.9922 44.3706 56.3429L32.8279 34.7009C29.1973 35.6333 25.9331 38.2325 24.0148 41.8992Z" fill="#EBEBEB"/>
<path opacity="0.5" d="M22.7726 45.1006C22.3776 46.5759 22.2116 48.1032 22.2805 49.629L34.9285 61.6371C35.6579 61.5806 36.3805 61.4575 37.0874 61.2692C33.4238 57.1182 26.7224 49.5535 22.7726 45.1006Z" fill="#EBEBEB"/>
<path d="M38.3705 36.031L38.0041 37.2606L38.1174 37.2905L38.229 37.3235L38.5969 36.0939L38.3705 36.031Z" fill="#263238"/>
<path d="M42.4617 39.9918C42.5151 40.05 42.5686 40.1098 42.6189 40.1711L43.4932 39.2623L43.3359 39.083L42.4617 39.9918Z" fill="#263238"/>
<path d="M44.8991 44.871C44.9163 44.9527 44.9321 45.0282 44.9478 45.1178L46.1003 44.7735L46.0516 44.5266L44.8991 44.871Z" fill="#263238"/>
<path d="M44.6239 50.7106C44.6114 50.7531 44.5988 50.794 44.5846 50.8349L45.6994 51.1493L45.7749 50.9009L44.6601 50.5864C44.6475 50.6273 44.6349 50.6698 44.6239 50.7106Z" fill="#263238"/>
<path d="M41.6346 55.7941L42.4208 56.6777L42.5969 56.4938L41.8107 55.6101L41.6346 55.7941Z" fill="#263238"/>
<path d="M36.8816 58.6621L37.1206 59.8806L37.3533 59.8115L37.1143 58.5913C37.0372 58.618 36.9602 58.64 36.8816 58.6621Z" fill="#263238"/>
<path d="M31.6047 58.6731L31.2368 59.9027L31.4617 59.9656L31.8296 58.736L31.7164 58.7045L31.6047 58.6731Z" fill="#263238"/>
<path d="M26.3373 56.7298L26.4946 56.909L27.3704 56.0002C27.3169 55.942 27.2634 55.8823 27.2131 55.8225L26.3373 56.7298Z" fill="#263238"/>
<path d="M23.7381 51.2201L23.7853 51.4669L24.9331 51.1226C24.9158 51.0408 24.9001 50.9654 24.8859 50.8757L23.7381 51.2201Z" fill="#263238"/>
<path d="M24.1328 44.8457L24.0589 45.0941L25.1737 45.4086C25.1862 45.3662 25.1972 45.3253 25.2098 45.2844L25.2476 45.1602L24.1328 44.8457Z" fill="#263238"/>
<path d="M27.2319 39.4996L28.0181 40.3833C28.0763 40.3204 28.1345 40.2607 28.1958 40.1993L27.4096 39.3157L27.2319 39.4996Z" fill="#263238"/>
<path d="M32.479 36.1883L32.718 37.4101C32.7966 37.3833 32.8752 37.3613 32.9507 37.3393L32.7117 36.1191L32.479 36.1883Z" fill="#263238"/>
<path d="M32.5828 36.7341L34.4979 49.0583L35.6709 48.6982L32.902 36.635L32.5828 36.7341Z" fill="#37474F"/>
<path d="M41.3266 41.4512L33.8909 48.129L34.6833 49.041L41.542 41.698L41.3266 41.4512Z" fill="#455A64"/>
<path d="M34.5277 47.8884C34.5092 47.9408 34.5012 47.9964 34.5043 48.0519C34.5074 48.1074 34.5215 48.1618 34.5458 48.2118C34.5701 48.2618 34.604 48.3066 34.6458 48.3433C34.6875 48.3801 34.7361 48.4083 34.7887 48.4261C34.8989 48.4506 35.0142 48.4315 35.1106 48.3729C35.2071 48.3143 35.2771 48.2207 35.306 48.1116C35.3248 48.0592 35.333 48.0036 35.33 47.948C35.327 47.8924 35.3129 47.838 35.2886 47.7879C35.2643 47.7378 35.2302 47.6931 35.1884 47.6563C35.1466 47.6196 35.0978 47.5916 35.045 47.5739C34.9349 47.5494 34.8195 47.5685 34.7231 47.6271C34.6267 47.6857 34.5567 47.7793 34.5277 47.8884Z" fill="#C7C7C7"/>
<path d="M34.7526 47.5659C34.6417 47.625 34.5559 47.7221 34.5108 47.8393C34.4658 47.9566 34.4645 48.0862 34.5073 48.2043C34.5266 48.2595 34.5577 48.3099 34.5984 48.3519C34.6391 48.3939 34.6885 48.4266 34.743 48.4477C34.7976 48.4687 34.8561 48.4777 34.9145 48.474C34.9729 48.4702 35.0298 48.4539 35.0812 48.426C35.1921 48.3669 35.2779 48.2698 35.3229 48.1526C35.368 48.0353 35.3693 47.9057 35.3265 47.7876C35.3071 47.7324 35.2761 47.682 35.2353 47.64C35.1946 47.598 35.1453 47.5653 35.0907 47.5442C35.0361 47.5232 34.9776 47.5142 34.9193 47.5179C34.8609 47.5217 34.804 47.538 34.7526 47.5659Z" fill="white"/>
<path d="M34.8469 47.8127L26.6737 52.0974L26.7225 52.2248L34.9868 48.1807L34.8469 47.8127Z" fill="white"/>
<path d="M52.3301 38.1309L51.4034 36.8997L49.3482 38.4468C49.2379 38.5298 49.1651 38.6532 49.1458 38.7899C49.1265 38.9266 49.1623 39.0653 49.2453 39.1756L49.5461 39.5751C49.6291 39.6853 49.7525 39.7581 49.8892 39.7774C50.0258 39.7967 50.1646 39.7609 50.2749 39.6779L52.3301 38.1309Z" fill="white"/>
<path opacity="0.3" d="M52.3301 38.1309L51.4034 36.8997L49.3482 38.4468C49.2379 38.5298 49.1651 38.6532 49.1458 38.7899C49.1265 38.9266 49.1623 39.0653 49.2453 39.1756L49.5461 39.5751C49.6291 39.6853 49.7525 39.7581 49.8892 39.7774C50.0258 39.7967 50.1646 39.7609 50.2749 39.6779L52.3301 38.1309Z" fill="black"/>
<path d="M56.4118 44.6791C56.4118 44.6791 61.684 39.3032 56.9873 33.1757C52.2907 27.0482 45.8723 31.2291 45.8723 31.2291C45.8723 31.2291 49.5705 39.1758 56.4118 44.6791Z" fill="white"/>
<path opacity="0.4" d="M56.4118 44.6791C56.4118 44.6791 61.684 39.3032 56.9873 33.1757C52.2907 27.0482 45.8723 31.2291 45.8723 31.2291C45.8723 31.2291 49.5705 39.1758 56.4118 44.6791Z" fill="white"/>
<g opacity="0.3">
<path d="M54.0485 42.58C54.4668 42.9888 54.9007 43.3945 55.3504 43.7892C59.503 38.4652 57.6508 34.1978 57.58 34.0405C57.7215 37.5736 55.2089 41.1319 54.0485 42.58Z" fill="white"/>
<path d="M52.9871 41.4935C53.1443 41.6696 53.3188 41.8441 53.4902 42.0218C53.5185 41.9872 53.5468 41.951 53.5767 41.9164C56.9117 37.8535 57.2356 33.52 57.2356 33.52C56.2214 37.7167 54.0468 40.3897 52.9871 41.4935Z" fill="white"/>
</g>
<path opacity="0.1" d="M45.8707 31.2369C47.4795 34.4575 49.4789 37.4677 51.8237 40.1994C49.6051 37.1773 47.9368 33.4131 48.4101 32.0137C48.6412 31.3266 49.5327 30.0498 53.3992 30.3438C49.5595 28.8296 45.8707 31.2369 45.8707 31.2369Z" fill="black"/>
<path d="M57.9407 32.4331L58.0032 32.516C58.2418 32.8331 58.1783 33.2836 57.8612 33.5222L56.9027 34.2437C56.5856 34.4824 56.1351 34.4189 55.8964 34.1018L55.834 34.0189C55.5954 33.7018 55.6589 33.2513 55.976 33.0126L56.9345 32.2911C57.2516 32.0524 57.7021 32.116 57.9407 32.4331Z" fill="white"/>
<path opacity="0.4" d="M57.9407 32.4331L58.0032 32.516C58.2418 32.8331 58.1783 33.2836 57.8612 33.5222L56.9027 34.2437C56.5856 34.4824 56.1351 34.4189 55.8964 34.1018L55.834 34.0189C55.5954 33.7018 55.6589 33.2513 55.976 33.0126L56.9345 32.2911C57.2516 32.0524 57.7021 32.116 57.9407 32.4331Z" fill="white"/>
<path d="M51.0768 52.0111C51.0768 52.0111 51.3583 50.9796 51.9558 48.89C52.5218 46.9119 54.0171 41.8143 55.8112 39.8882C60.5283 34.8268 70.8902 34.8252 78.3589 30.9257C82.447 28.7904 82.5587 27.5027 83.7191 27.7889C84.8795 28.075 83.1169 34.6601 76.079 37.2529C76.079 37.2529 79.5004 38.5926 79.3809 39.5155C79.2614 40.4385 76.1859 40.8395 74.1292 40.5171C74.1292 40.5171 77.2488 43.5046 76.5538 44.6053C75.8588 45.7059 71.9845 44.7798 70.4373 44.0707C70.4373 44.0707 72.1669 46.1493 71.4562 46.9009C70.3556 48.0645 66.824 46.1714 66.824 46.1714C66.824 46.1714 67.8759 47.5865 67.1558 48.022C66.1747 48.6117 63.2831 47.272 63.2831 47.272C63.2831 47.272 62.4544 49.857 58.6383 48.3019C58.6383 48.3019 57.709 50.2265 54.9134 48.8129C54.9134 48.8129 53.591 49.4922 53.0816 50.3853C52.5721 51.2784 51.58 52.1495 51.0768 52.0111Z" fill="#EBEBEB"/>
<path d="M52.1822 49.2641C52.3221 49.0329 52.5863 48.9229 52.8111 48.7924C53.558 48.4244 54.3363 47.8851 54.0941 46.9323L54.0045 47.0282C55.1665 47.2263 56.1744 46.6917 56.0329 45.4039C55.9976 45.071 55.9237 44.7433 55.8127 44.4275L55.5958 44.5847C58.731 46.8238 59.5267 45.4935 57.9763 42.3425L57.6917 42.5689C60.8726 45.102 62.3821 45.113 60.9937 40.6711L60.7122 40.8897C60.9666 41.0418 61.2399 41.1597 61.5251 41.2403C63.3365 41.7545 64.1007 40.2544 64.5802 38.8126C64.7438 38.2997 65.0236 37.8315 65.3978 37.4445C65.772 37.0575 66.2305 36.7621 66.7375 36.5814C67.7674 36.2072 68.8948 36.1443 69.9845 36.215C70.5368 36.252 71.0861 36.3245 71.6292 36.432C71.0921 36.2893 70.5449 36.1879 69.9923 36.1285C67.6809 35.8644 65.2045 36.2575 64.2878 38.6946C63.9733 39.4525 63.7217 40.2308 63.0645 40.7136C62.4198 41.1633 61.555 40.9494 60.9166 40.5705L60.4842 40.3142L60.6415 40.7859C60.7987 41.278 61.5031 43.69 60.8899 43.8929C60.0628 43.9495 58.6068 42.7922 57.9402 42.2796L57.286 41.7513C57.6367 42.495 58.7248 44.4809 58.3159 45.2325C57.8442 45.7042 56.2451 44.6665 55.7734 44.3536L55.4055 44.1004C55.6492 44.7781 56.0109 45.6036 55.6634 46.2939C55.3363 46.8741 54.5281 46.9338 53.9243 46.8536C54.2545 47.8175 53.5422 48.3128 52.7985 48.7405C52.5784 48.8836 52.3268 49.0125 52.1916 49.2515L52.1822 49.2641Z" fill="#C7C7C7"/>
<path d="M64.0865 41.5029C64.2293 41.9449 64.3391 42.3969 64.4152 42.8552C64.4576 43.2325 64.5299 43.6571 64.3365 43.9983C63.7752 44.7483 62.4088 44.2687 61.6887 43.981L61.4921 43.8961C61.5687 44.3198 61.5882 44.7518 61.5503 45.1807C61.4214 46.709 59.5676 45.5691 58.8647 45.1084L58.915 45.3867C59.0094 45.8961 59.0455 46.9213 58.3285 46.9071C57.6776 46.8443 57.0471 46.4685 56.4842 46.1383L56.3678 46.0675C56.4904 46.6163 56.2892 47.2704 55.7121 47.4638C55.545 47.5253 55.3695 47.5614 55.1917 47.5707C56.0282 47.6116 56.5895 47.0141 56.5109 46.1807L56.415 46.242C56.981 46.599 57.9229 47.2389 58.6163 47.0722C59.2782 46.7924 59.2452 45.9339 59.1587 45.3426L58.9701 45.4669C59.4398 45.7958 59.9666 46.0347 60.5236 46.1713C61.9088 46.4716 61.9167 45.0423 61.7626 44.0737L61.5959 44.2043C62.4151 44.5187 63.8727 44.9763 64.4781 44.0926C64.8287 43.4023 64.3491 42.1885 64.0913 41.5076L64.0865 41.5029Z" fill="#C7C7C7"/>
<path opacity="0.1" d="M51.0768 52.0094C51.5799 52.1493 52.5768 51.2877 53.0878 50.3914C53.5988 49.4952 54.9196 48.8191 54.9196 48.8191C57.7153 50.2342 58.6445 48.308 58.6445 48.308C62.4607 49.8631 63.2893 47.2781 63.2893 47.2781C61.6493 48.8332 58.6461 47.6036 58.6461 47.6036C56.8363 49.4574 54.929 48.275 54.929 48.275C54.5186 48.334 54.1047 48.3655 53.69 48.3694C53.1601 48.3615 54.0847 45.3599 54.918 43.0799C55.7042 40.9258 58.632 37.726 59.9606 37.0483H59.948C58.3316 37.7936 56.9181 38.7025 55.8127 39.888C54.0171 41.8126 52.5202 46.9134 51.9557 48.8898C51.3582 50.9795 51.0768 52.0094 51.0768 52.0094Z" fill="black"/>
<path d="M75.8085 36.7403C78.8887 35.7765 81.8243 33.5862 83.1184 30.5594C83.3324 30.054 83.4906 29.5267 83.5901 28.987C83.6233 28.8639 83.6233 28.7343 83.5901 28.6112C83.4722 28.3329 83.142 28.5263 82.98 28.6489C82.7611 28.8104 82.5512 28.9836 82.3511 29.1678C82.5917 29.0452 82.8228 28.91 83.0665 28.7999C83.1631 28.7462 83.2706 28.715 83.381 28.7087C83.381 28.7087 83.348 28.6914 83.3511 28.693C83.3407 28.7681 83.3206 28.8416 83.2914 28.9115C82.0948 32.4745 78.9626 34.8991 75.8085 36.7403Z" fill="white"/>
<path d="M78.7644 39.0468C78.1166 39.5185 77.2549 39.5059 76.486 39.6207C75.7565 39.7009 74.7454 39.7607 74.0363 39.9352C75.2539 40.3882 76.5943 40.3854 77.81 39.9273C78.1952 39.7434 78.6512 39.4839 78.7628 39.0405L78.7644 39.0468Z" fill="white"/>
<path d="M74.0255 41.22C74.3014 41.7976 74.6388 42.3437 75.0318 42.8489C75.362 43.3521 75.8463 43.7798 75.947 44.393C76.1812 44.1163 76.1121 43.6839 76.013 43.3647C75.8394 42.8939 75.5744 42.462 75.2333 42.094C74.8922 41.7259 74.4818 41.4289 74.0255 41.22Z" fill="white"/>
<path d="M64.0251 37.4668C63.6409 37.9766 63.313 38.5264 63.0471 39.1068C62.7531 39.6319 62.5943 40.2577 62.1037 40.6288C62.4575 40.7106 62.8097 40.4496 63.0471 40.2153C63.7246 39.465 64.0763 38.4764 64.0251 37.4668Z" fill="white"/>
<path d="M56.8425 4.20279L59.1198 6.95874C61.1567 9.42367 64.5381 10.3161 67.5261 9.17743L70.8669 7.90428L68.1109 10.1817C65.646 12.2185 64.7535 15.5999 65.8923 18.5879L67.1654 21.9287L64.888 19.1728C62.8511 16.7078 59.4697 15.8154 56.4817 16.9541L53.141 18.2272L55.8969 15.9499C58.3618 13.913 59.2543 10.5316 58.1156 7.54357L56.8425 4.20279Z" fill="#D9D6FE"/>
</g>
<defs>
<clipPath id="clip0_10143_2125">
<rect width="78.6182" height="78.6182" fill="white" transform="matrix(-1 0 0 1 94 0)"/>
</clipPath>
</defs>
</svg>
