<svg width="87" height="80" viewBox="0 0 87 80" fill="none" xmlns="http://www.w3.org/2000/svg">
<path d="M11.7954 23.5982C10.9506 26.335 12.3637 29.2594 15.0328 30.2982C12.2961 29.4534 9.37163 30.8665 8.33282 33.5356C9.1776 30.7989 7.76452 27.8745 5.09539 26.8356C7.83212 27.6804 10.7565 26.2673 11.7954 23.5982Z" fill="#D9D6FE"/>
<path d="M15.1029 69.2306C15.77 71.0196 17.7059 71.9893 19.5382 71.4521C17.7491 72.1193 16.7794 74.0552 17.3166 75.8874C16.6495 74.0984 14.7135 73.1287 12.8813 73.6659C14.6703 72.9987 15.64 71.0628 15.1029 69.2306Z" fill="#D9D6FE"/>
<path d="M76.0245 35.8584C75.8012 37.7547 77.0808 39.5013 78.9562 39.86C77.0599 39.6367 75.3133 40.9163 74.9546 42.7917C75.1779 40.8954 73.8983 39.1488 72.0229 38.7901C73.9192 39.0134 75.6658 37.7338 76.0245 35.8584Z" fill="#D9D6FE"/>
<path d="M2.83583 47.6933C2.54408 48.5998 3.0023 49.5778 3.88563 49.9338C2.97905 49.642 2.0011 50.1002 1.64511 50.9836C1.93686 50.077 1.47864 49.0991 0.595314 48.7431C1.50189 49.0348 2.47984 48.5766 2.83583 47.6933Z" fill="#D9D6FE"/>
<path d="M78.5289 57.7855C78.2372 58.6921 78.6954 59.6701 79.5787 60.0261C78.6722 59.7343 77.6942 60.1925 77.3382 61.0759C77.63 60.1693 77.1718 59.1913 76.2884 58.8353C77.195 59.1271 78.173 58.6689 78.5289 57.7855Z" fill="#D9D6FE"/>
<path d="M61.7081 61.9909C61.4164 62.8974 61.8746 63.8754 62.7579 64.2314C61.8514 63.9396 60.8734 64.3979 60.5174 65.2812C60.8092 64.3746 60.351 63.3967 59.4676 63.0407C60.3742 63.3324 61.3522 62.8742 61.7081 61.9909Z" fill="#D9D6FE"/>
<path d="M85.2572 10.6876C84.9655 11.5942 85.4237 12.5722 86.307 12.9282C85.4004 12.6364 84.4225 13.0946 84.0665 13.978C84.3582 13.0714 83.9 12.0934 83.0167 11.7374C83.9233 12.0292 84.9012 11.571 85.2572 10.6876Z" fill="#D9D6FE"/>
<path d="M49.934 20.7802C49.6422 21.6868 50.1004 22.6647 50.9838 23.0207C50.0772 22.7289 49.0992 23.1872 48.7433 24.0705C49.035 23.1639 48.5768 22.186 47.6935 21.83C48.6 22.1217 49.578 21.6635 49.934 20.7802Z" fill="#D9D6FE"/>
<path d="M71.8595 25.8691L51.5705 76.7047C50.9855 78.1703 49.3222 78.8846 47.8566 78.2997L13.7522 64.6882C12.2866 64.1033 11.574 62.4407 12.1589 60.9751L32.4479 10.1395C33.0328 8.67396 34.6945 7.95891 36.16 8.54384L70.2645 22.1553C71.7301 22.7402 72.4444 24.4036 71.8595 25.8691Z" fill="#8D74D5"/>
<path d="M70.1741 25.3832L34.0044 10.9475L13.8439 61.4609L50.0137 75.8966L70.1741 25.3832Z" fill="#F7F7F7"/>
<path d="M50.0137 75.8964L13.844 61.4607L13.5547 62.1854L49.7245 76.6212L50.0137 75.8964Z" fill="#7B69C9"/>
<path opacity="0.1" d="M60.9842 22.8457C61.0981 22.4735 60.9097 22.0702 60.5423 21.9236L60.5819 21.9394C60.5819 21.9394 56.2235 19.1435 56.5932 17.1346L58.5659 12.1918C59.1842 10.6427 58.4292 8.88453 56.88 8.2662C55.3309 7.64794 53.5737 8.4033 52.9554 9.95257L50.9827 14.8954C49.8669 16.6065 44.7809 15.6331 44.7809 15.6331L44.8214 15.6492C44.4531 15.5022 44.0388 15.665 43.866 16.0137C43.8566 16.0323 43.8481 16.0513 43.8403 16.0706C43.6857 16.4581 43.8743 16.897 44.2617 17.0516L59.9826 23.326C60.3693 23.4803 60.8089 23.2922 60.9636 22.9046C60.9713 22.8853 60.9782 22.8657 60.9842 22.8457ZM56.3434 9.61067C57.2555 9.97471 57.6995 11.0086 57.3355 11.9207C56.9715 12.8328 55.9376 13.2769 55.0255 12.9128C54.1143 12.5492 53.6693 11.5149 54.0333 10.6028C54.3973 9.69081 55.4321 9.24697 56.3434 9.61067Z" fill="black"/>
<path d="M35.1977 27.8235L32.0213 26.5558C31.411 26.3122 31.1126 25.6175 31.3562 25.0072L32.6239 21.8307C32.8675 21.2204 33.5622 20.9221 34.1725 21.1656L37.349 22.4334C37.9593 22.677 38.2577 23.3717 38.0141 23.982L36.7463 27.1584C36.5027 27.7689 35.808 28.0671 35.1977 27.8235ZM34.0827 21.3908C33.5964 21.1967 33.0429 21.4344 32.8488 21.9207L31.5811 25.0971C31.387 25.5834 31.6247 26.1369 32.111 26.331L35.2874 27.5988C35.7737 27.7929 36.3272 27.5551 36.5213 27.0688L37.789 23.8924C37.9831 23.4061 37.7454 22.8526 37.2591 22.6585L34.0827 21.3908Z" fill="#E0E0E0"/>
<path d="M59.6723 34.1851L40.4779 26.5245C40.092 26.3705 39.9041 25.9329 40.0581 25.547C40.2121 25.1611 40.6497 24.9732 41.0355 25.1272L60.2299 32.7879C60.6158 32.9419 60.8037 33.3795 60.6497 33.7654C60.4957 34.1512 60.0581 34.3392 59.6723 34.1851Z" fill="#E0E0E0"/>
<path d="M53.7303 33.9978L39.7259 28.4085C39.3401 28.2545 39.1521 27.8169 39.3061 27.431C39.4601 27.0452 39.8977 26.8572 40.2836 27.0112L54.288 32.6006C54.6739 32.7546 54.8618 33.1922 54.7078 33.578C54.5538 33.9639 54.1162 34.1518 53.7303 33.9978Z" fill="#E0E0E0"/>
<path d="M32.0158 35.7957L28.8394 34.5279C28.2902 34.3088 28.0227 33.686 28.2419 33.1368L29.5097 29.9604C29.7288 29.4112 30.3516 29.1437 30.9008 29.3629L34.0772 30.6306C34.6264 30.8498 34.8939 31.4726 34.6747 32.0218L33.4069 35.1982C33.1878 35.7474 32.565 36.0149 32.0158 35.7957Z" stroke="#CCC1E0" stroke-width="0.242381" stroke-miterlimit="10"/>
<path d="M56.4457 42.2699L37.2513 34.6092C36.8655 34.4552 36.6775 34.0176 36.8315 33.6317C36.9855 33.2459 37.4231 33.0579 37.809 33.2119L57.0034 40.8726C57.3892 41.0266 57.5772 41.4642 57.4231 41.8501C57.2691 42.2359 56.8316 42.4239 56.4457 42.2699Z" fill="#CCC1E0"/>
<path d="M44.1741 39.5561L36.4991 36.493C36.1133 36.339 35.9253 35.9014 36.0793 35.5155C36.2333 35.1297 36.6709 34.9417 37.0568 35.0957L44.7317 38.1589C45.1176 38.3129 45.3055 38.7505 45.1515 39.1363C44.9975 39.5222 44.5599 39.7101 44.1741 39.5561Z" fill="#CCC1E0"/>
<path d="M28.7443 43.9929L25.5678 42.7252C24.9575 42.4816 24.6591 41.7868 24.9027 41.1765L26.1705 37.9999C26.4141 37.3896 27.1089 37.0912 27.7192 37.3348L30.8956 38.6026C31.5059 38.8462 31.8043 39.5409 31.5607 40.1512L30.2929 43.3278C30.0494 43.9379 29.3546 44.2365 28.7443 43.9929ZM27.6294 37.5598C27.1431 37.3657 26.5896 37.6034 26.3956 38.0895L25.1278 41.2661C24.9337 41.7525 25.1714 42.3058 25.6577 42.4999L28.8342 43.7676C29.3205 43.9617 29.8739 43.7242 30.068 43.2379L31.3358 40.0612C31.5298 39.5751 31.2921 39.0216 30.8058 38.8275L27.6294 37.5598Z" fill="#E0E0E0"/>
<path d="M53.2189 50.3546L34.0245 42.6939C33.6386 42.5399 33.4507 42.1023 33.6047 41.7164C33.7587 41.3306 34.1963 41.1426 34.5822 41.2967L53.7765 48.9573C54.1624 49.1113 54.3503 49.5489 54.1963 49.9348C54.0424 50.3205 53.6048 50.5086 53.2189 50.3546Z" fill="#E0E0E0"/>
<path d="M42.6872 48.3353L33.2723 44.5777C32.8864 44.4237 32.6985 43.9861 32.8525 43.6002C33.0065 43.2144 33.4441 43.0264 33.83 43.1804L43.2448 46.938C43.6307 47.092 43.8186 47.5296 43.6646 47.9155C43.5108 48.3012 43.073 48.4893 42.6872 48.3353Z" fill="#E0E0E0"/>
<path d="M25.5177 52.0776L22.3413 50.8099C21.731 50.5663 21.4326 49.8716 21.6762 49.2612L22.944 46.0846C23.1876 45.4743 23.8823 45.176 24.4926 45.4195L27.669 46.6873C28.2794 46.9309 28.5777 47.6256 28.3341 48.2359L27.0663 51.4125C26.8228 52.0227 26.128 52.3212 25.5177 52.0776ZM24.4028 45.6445C23.9165 45.4504 23.3631 45.688 23.169 46.1743L21.9012 49.3509C21.7071 49.8372 21.9449 50.3905 22.4312 50.5846L25.6076 51.8523C26.0939 52.0464 26.6473 51.8089 26.8414 51.3226L28.1092 48.146C28.3033 47.6597 28.0656 47.1063 27.5793 46.9123L24.4028 45.6445Z" fill="#E0E0E0"/>
<path d="M49.9923 58.4391L30.7979 50.7784C30.4121 50.6244 30.2241 50.1868 30.3782 49.8009C30.5322 49.4151 30.9697 49.2271 31.3556 49.3811L50.55 57.0418C50.9358 57.1958 51.1238 57.6334 50.9698 58.0193C50.8158 58.405 50.3782 58.5931 49.9923 58.4391Z" fill="#E0E0E0"/>
<path d="M48.6642 60.0931L30.046 52.6624C29.6601 52.5084 29.4722 52.0708 29.6262 51.685C29.7802 51.2991 30.2178 51.1112 30.6037 51.2652L49.2221 58.696C49.6079 58.85 49.7959 59.2876 49.6418 59.6734C49.4878 60.0593 49.0501 60.2471 48.6642 60.0931Z" fill="#E0E0E0"/>
<path d="M22.291 60.1622L19.1145 58.8944C18.5042 58.6508 18.2058 57.9561 18.4494 57.3458L19.7172 54.1694C19.9608 53.5591 20.6555 53.2607 21.2658 53.5043L24.4422 54.772C25.0525 55.0156 25.3509 55.7103 25.1073 56.3206L23.8396 59.4971C23.5961 60.1072 22.9013 60.4058 22.291 60.1622ZM21.176 53.7292C20.6897 53.5351 20.1363 53.7727 19.9422 54.259L18.6745 57.4354C18.4804 57.9217 18.7181 58.475 19.2044 58.6691L22.3809 59.9369C22.8672 60.131 23.4206 59.8934 23.6147 59.4071L24.8824 56.2307C25.0765 55.7444 24.8388 55.1911 24.3524 54.997L21.176 53.7292Z" fill="#E0E0E0"/>
<path d="M46.7655 66.5238L27.5711 58.8631C27.1853 58.7091 26.9973 58.2715 27.1513 57.8856C27.3054 57.4998 27.7429 57.3118 28.1288 57.4658L47.3232 65.1265C47.709 65.2805 47.897 65.7181 47.743 66.104C47.589 66.4898 47.1514 66.6778 46.7655 66.5238Z" fill="#E0E0E0"/>
<path d="M42.4686 66.9926L26.8194 60.7469C26.4336 60.5929 26.2456 60.1553 26.3996 59.7694C26.5536 59.3836 26.9912 59.1956 27.3771 59.3496L43.0263 65.5954C43.4121 65.7494 43.6001 66.187 43.4461 66.5728C43.2922 66.9588 42.8545 67.1466 42.4686 66.9926Z" fill="#E0E0E0"/>
<path d="M61.0288 22.7331C61.1427 22.3609 60.9544 21.9576 60.587 21.811L60.6266 21.8268C60.6266 21.8268 56.2682 19.0308 56.6379 17.0219L58.6105 12.0793C59.2288 10.5302 58.4739 8.77206 56.9246 8.15373C55.3755 7.53546 53.6184 8.29082 53 9.84009L51.0273 14.7829C49.9114 16.4942 44.8255 15.5206 44.8255 15.5206L44.866 15.5367C44.4977 15.3898 44.0835 15.5524 43.9106 15.9012C43.9012 15.9198 43.8925 15.9387 43.8847 15.9582C43.73 16.3458 43.9186 16.7846 44.306 16.9392L60.027 23.2136C60.4135 23.3679 60.8534 23.1797 61.008 22.7923C61.0162 22.7728 61.023 22.7531 61.0288 22.7331ZM56.3882 9.49826C57.3003 9.8623 57.7443 10.8962 57.3803 11.8083C57.0162 12.7204 55.9824 13.1645 55.0702 12.8004C54.1591 12.4368 53.7141 11.4025 54.0781 10.4904C54.4422 9.57823 55.4769 9.13455 56.3882 9.49826Z" fill="#FFB100"/>
<path d="M61.0085 22.7921C60.8539 23.1796 60.4141 23.3677 60.0275 23.2134L44.3066 16.939C43.919 16.7843 43.7307 16.3454 43.8853 15.958C43.893 15.9387 43.9015 15.9197 43.9112 15.901L61.0293 22.733C61.0231 22.7531 61.0162 22.7728 61.0085 22.7921Z" fill="#F5973A"/>
</svg>
