<svg width="330" height="511" viewBox="0 0 330 511" fill="none" xmlns="http://www.w3.org/2000/svg">
<g filter="url(#filter0_dddd_8117_16676)">
<path d="M54 91.7987C54 88.6161 56.4921 85.3684 59.5662 84.5447L305.502 18.6464C308.576 17.8227 311.068 19.7349 311.068 22.9175V217.176C311.068 220.358 308.576 223.606 305.502 224.43L59.5662 290.328C56.4921 291.152 54 289.239 54 286.057V91.7987Z" fill="#FEFEFE"/>
<path d="M67.4484 102.158L65.4301 95.2956L66.8234 94.9222L68.1119 100.018L68.1782 99.9999L69.554 94.1906L70.8216 93.8509L72.2009 98.9257L72.2638 98.9088L73.5523 93.1192L74.9455 92.7459L72.9272 100.69L71.6492 101.033L70.2175 96.2216L70.1616 96.2366L68.7265 101.816L67.4484 102.158ZM77.5802 99.5521C77.0564 99.6925 76.6024 99.6948 76.2183 99.5591C75.8342 99.4235 75.5363 99.1695 75.3244 98.7973C75.1149 98.4244 75.0101 97.9512 75.0101 97.3776C75.0101 96.804 75.1149 96.2734 75.3244 95.7859C75.5363 95.2977 75.8342 94.8829 76.2183 94.5414C76.6024 94.1999 77.0564 93.9589 77.5802 93.8186C78.104 93.6782 78.5579 93.6759 78.942 93.8116C79.3261 93.9473 79.6229 94.2027 79.8325 94.578C80.0443 94.9526 80.1502 95.4267 80.1502 96.0003C80.1502 96.5739 80.0443 97.1036 79.8325 97.5893C79.6229 98.0745 79.3261 98.4878 78.942 98.8293C78.5579 99.1708 78.104 99.4118 77.5802 99.5521ZM77.5872 98.5019C77.8712 98.4258 78.1086 98.2814 78.2995 98.0688C78.4904 97.8538 78.6324 97.5964 78.7255 97.2967C78.821 96.9964 78.8687 96.6775 78.8687 96.3401C78.8687 96.0003 78.821 95.7058 78.7255 95.4566C78.6324 95.2044 78.4904 95.0219 78.2995 94.9092C78.1086 94.7965 77.8712 94.7781 77.5872 94.8542C77.2962 94.9322 77.0541 95.079 76.8608 95.2947C76.67 95.5097 76.5268 95.7686 76.4313 96.0713C76.3382 96.371 76.2917 96.6908 76.2917 97.0306C76.2917 97.368 76.3382 97.6616 76.4313 97.9114C76.5268 98.1606 76.67 98.3415 76.8608 98.4543C77.0541 98.564 77.2962 98.5798 77.5872 98.5019ZM81.2231 98.4675V92.9148L82.4488 92.5864V93.5118L82.5046 93.4968C82.6024 93.1501 82.77 92.8582 83.0075 92.621C83.2473 92.3808 83.5208 92.2196 83.8281 92.1372C83.8979 92.1185 83.9759 92.1012 84.062 92.0854C84.1505 92.0665 84.2238 92.0553 84.282 92.0518V93.2556C84.2285 93.2506 84.1435 93.2565 84.0271 93.2733C83.913 93.287 83.8025 93.3082 83.6954 93.3369C83.4649 93.3986 83.2577 93.5059 83.0738 93.6588C82.8922 93.8087 82.7491 93.9881 82.6443 94.1969C82.5396 94.4057 82.4872 94.6282 82.4872 94.8644V98.1288L81.2231 98.4675ZM86.2742 95.3716L86.2707 93.7928L86.4732 93.7385L88.4007 90.9915L89.8778 90.5958L87.5068 93.9641L87.2449 94.0342L86.2742 95.3716ZM85.1218 97.4229V90.0192L86.3859 89.6805V97.0842L85.1218 97.4229ZM88.488 96.5209L86.7421 94.4618L87.5941 93.3116L90 96.1158L88.488 96.5209ZM90.7202 95.9228V90.37L91.9843 90.0313V95.5841L90.7202 95.9228ZM91.3558 89.4116C91.1556 89.4653 90.9833 89.4428 90.839 89.3441C90.6946 89.243 90.6225 89.0948 90.6225 88.8996C90.6225 88.702 90.6946 88.5151 90.839 88.3391C90.9833 88.1606 91.1556 88.0446 91.3558 87.9909C91.5583 87.9366 91.7306 87.9604 91.8726 88.0621C92.0169 88.1608 92.0891 88.309 92.0891 88.5066C92.0891 88.7018 92.0169 88.8887 91.8726 89.0671C91.7306 89.2425 91.5583 89.3574 91.3558 89.4116ZM94.5482 91.6435V94.8971L93.2842 95.2358V89.683L94.4924 89.3593V90.3028L94.5552 90.286C94.6786 89.942 94.8753 89.6423 95.1453 89.3868C95.4177 89.1306 95.7541 88.9489 96.1545 88.8416C96.5246 88.7424 96.8471 88.738 97.1218 88.8283C97.3988 88.9179 97.613 89.0979 97.7643 89.3683C97.9179 89.638 97.9936 89.9949 97.9913 90.439V93.9745L96.7272 94.3132V90.9801C96.7272 90.609 96.6341 90.3435 96.4478 90.1837C96.2639 90.0233 96.009 89.9868 95.6831 90.0741C95.4619 90.1334 95.2652 90.2367 95.093 90.3841C94.923 90.5284 94.7892 90.7077 94.6914 90.9219C94.596 91.1355 94.5482 91.376 94.5482 91.6435ZM101.609 95.2032C101.155 95.3248 100.765 95.3654 100.439 95.325C100.113 95.287 99.8513 95.1885 99.6534 95.0294C99.4555 94.8704 99.3182 94.6722 99.2414 94.4349L100.38 93.8443C100.431 93.939 100.505 94.0263 100.603 94.1061C100.701 94.1884 100.832 94.2423 100.998 94.2679C101.165 94.2953 101.376 94.275 101.63 94.207C101.988 94.111 102.285 93.9411 102.52 93.6973C102.755 93.456 102.873 93.1304 102.873 92.7207V91.6687L102.81 91.6856C102.745 91.838 102.649 92.0022 102.524 92.178C102.4 92.3533 102.236 92.5166 102.031 92.6678C101.829 92.8185 101.574 92.935 101.267 93.0174C100.855 93.1278 100.481 93.1279 100.146 93.0177C99.8129 92.9044 99.5475 92.6743 99.3496 92.3272C99.1541 91.9771 99.0563 91.4996 99.0563 90.8947C99.0563 90.285 99.1541 89.7442 99.3496 89.2725C99.5475 88.7977 99.814 88.4069 100.149 88.1002C100.484 87.7911 100.858 87.5813 101.27 87.4709C101.584 87.3867 101.843 87.3729 102.045 87.4295C102.25 87.483 102.413 87.5707 102.534 87.6925C102.655 87.8119 102.747 87.9307 102.81 88.0488L102.88 88.0301V87.1118L104.127 86.7778V92.421C104.127 92.8957 104.017 93.3179 103.798 93.6874C103.579 94.057 103.28 94.3697 102.901 94.6256C102.521 94.8815 102.091 95.0741 101.609 95.2032ZM101.619 91.8962C101.887 91.8244 102.115 91.6958 102.304 91.5103C102.492 91.3249 102.635 91.0925 102.733 90.8132C102.831 90.534 102.88 90.2172 102.88 89.8629C102.88 89.5135 102.831 89.2205 102.733 88.984C102.638 88.7469 102.496 88.5813 102.307 88.4872C102.121 88.3901 101.892 88.378 101.619 88.451C101.338 88.5265 101.103 88.6654 100.914 88.8677C100.725 89.0701 100.583 89.3166 100.488 89.6073C100.393 89.8956 100.345 90.2072 100.345 90.5422C100.345 90.882 100.393 91.1669 100.488 91.3968C100.586 91.6236 100.729 91.7829 100.917 91.8746C101.108 91.9632 101.342 91.9704 101.619 91.8962ZM107.917 91.3149V83.9112L110.599 83.1927C111.148 83.0454 111.609 83.028 111.982 83.1403C112.356 83.2519 112.639 83.4678 112.83 83.7878C113.023 84.1047 113.12 84.4982 113.12 84.9681C113.12 85.4429 113.023 85.8906 112.83 86.3111C112.637 86.7316 112.352 87.0984 111.975 87.4116C111.597 87.7223 111.133 87.9516 110.581 88.0994L108.804 88.5756V87.473L110.407 87.0436C110.728 86.9575 110.991 86.8292 111.196 86.6586C111.401 86.488 111.552 86.2884 111.65 86.0598C111.75 85.8305 111.8 85.5845 111.8 85.3218C111.8 85.0591 111.75 84.8412 111.65 84.668C111.552 84.4941 111.4 84.3795 111.192 84.3242C110.988 84.2658 110.723 84.28 110.4 84.3667L109.212 84.6848V90.9678L107.917 91.3149ZM116.487 89.1271C115.949 89.2712 115.485 89.2799 115.094 89.1533C114.705 89.0237 114.406 88.7737 114.196 88.4033C113.987 88.0304 113.882 87.5536 113.882 86.9728C113.882 86.4016 113.987 85.8722 114.196 85.3847C114.408 84.8941 114.704 84.4775 115.083 84.1348C115.463 83.7897 115.909 83.5485 116.421 83.4113C116.751 83.3227 117.063 83.2946 117.356 83.3269C117.652 83.3561 117.913 83.4549 118.139 83.6234C118.367 83.7912 118.546 84.0348 118.676 84.3541C118.807 84.6711 118.872 85.073 118.872 85.5598V85.9611L114.476 87.1391V86.257L117.66 85.4037C117.658 85.1536 117.606 84.9447 117.503 84.777C117.401 84.6068 117.258 84.4897 117.074 84.4257C116.892 84.3611 116.68 84.3612 116.438 84.4261C116.18 84.4953 115.953 84.6212 115.757 84.8038C115.562 84.9839 115.409 85.1934 115.3 85.4324C115.193 85.6684 115.138 85.9108 115.136 86.1597V86.9297C115.136 87.2526 115.193 87.5145 115.307 87.7153C115.421 87.9137 115.58 88.0469 115.785 88.1149C115.99 88.1805 116.23 88.1765 116.504 88.1029C116.688 88.0537 116.855 87.9825 117.004 87.8896C117.153 87.7942 117.282 87.6789 117.391 87.5435C117.501 87.4082 117.583 87.2547 117.639 87.0831L118.82 86.9042C118.745 87.2471 118.603 87.5671 118.394 87.8643C118.186 88.1584 117.921 88.4151 117.597 88.6343C117.274 88.8512 116.904 89.0154 116.487 89.1271ZM119.941 88.093V82.5402L121.167 82.2118V83.1373L121.223 83.1223C121.321 82.7756 121.488 82.4836 121.726 82.2465C121.966 82.0063 122.239 81.845 122.546 81.7627C122.616 81.744 122.694 81.7267 122.78 81.7109C122.869 81.692 122.942 81.6808 123 81.6772V82.8811C122.947 82.8761 122.862 82.882 122.745 82.8987C122.631 82.9124 122.521 82.9336 122.414 82.9623C122.183 83.0241 121.976 83.1314 121.792 83.2843C121.611 83.4342 121.467 83.6135 121.363 83.8224C121.258 84.0312 121.205 84.2537 121.205 84.4899V87.7543L119.941 88.093ZM123.84 87.0484V81.4956L125.104 81.1569V86.7097L123.84 87.0484ZM124.476 80.5372C124.275 80.5908 124.103 80.5683 123.959 80.4696C123.814 80.3685 123.742 80.2203 123.742 80.0251C123.742 79.8275 123.814 79.6407 123.959 79.4646C124.103 79.2862 124.275 79.1701 124.476 79.1165C124.678 79.0622 124.85 79.0859 124.992 79.1877C125.137 79.2864 125.209 79.4345 125.209 79.6322C125.209 79.8274 125.137 80.0142 124.992 80.1927C124.85 80.3681 124.678 80.4829 124.476 80.5372ZM128.744 85.8429C128.22 85.9833 127.766 85.9856 127.382 85.8499C126.998 85.7143 126.7 85.4603 126.488 85.0881C126.278 84.7152 126.174 84.242 126.174 83.6684C126.174 83.0948 126.278 82.5643 126.488 82.0767C126.7 81.5885 126.998 81.1737 127.382 80.8322C127.766 80.4907 128.22 80.2497 128.744 80.1094C129.267 79.969 129.721 79.9667 130.105 80.1024C130.49 80.2381 130.786 80.4935 130.996 80.8688C131.208 81.2434 131.314 81.7175 131.314 82.2911C131.314 82.8647 131.208 83.3944 130.996 83.8801C130.786 84.3653 130.49 84.7786 130.105 85.1201C129.721 85.4616 129.267 85.7026 128.744 85.8429ZM128.751 84.7927C129.035 84.7166 129.272 84.5722 129.463 84.3596C129.654 84.1446 129.796 83.8872 129.889 83.5875C129.984 83.2872 130.032 82.9683 130.032 82.6309C130.032 82.2911 129.984 81.9966 129.889 81.7474C129.796 81.4952 129.654 81.3127 129.463 81.2C129.272 81.0873 129.035 81.0689 128.751 81.145C128.46 81.223 128.217 81.3698 128.024 81.5855C127.833 81.8005 127.69 82.0594 127.595 82.3621C127.502 82.6618 127.455 82.9816 127.455 83.3214C127.455 83.6588 127.502 83.9524 127.595 84.2022C127.69 84.4514 127.833 84.6323 128.024 84.7451C128.217 84.8548 128.46 84.8706 128.751 84.7927ZM134.377 84.3226C133.956 84.4355 133.578 84.4245 133.246 84.2896C132.913 84.1546 132.65 83.8998 132.456 83.525C132.263 83.1502 132.167 82.6579 132.167 82.0481C132.167 81.4312 132.264 80.8844 132.46 80.4078C132.658 79.9282 132.924 79.5351 133.26 79.2283C133.595 78.9192 133.968 78.7094 134.38 78.599C134.695 78.5148 134.953 78.501 135.156 78.5576C135.358 78.6118 135.519 78.7001 135.637 78.8225C135.756 78.9425 135.848 79.0613 135.913 79.1788L135.966 79.1648V76.3956L137.233 76.056V83.4597L135.99 83.7928V82.9179L135.913 82.9385C135.848 83.0909 135.754 83.2596 135.631 83.4445C135.507 83.627 135.344 83.7983 135.142 83.9587C134.939 84.119 134.684 84.2403 134.377 84.3226ZM134.73 83.1544C134.997 83.0827 135.225 82.9469 135.414 82.7469C135.603 82.5446 135.746 82.2953 135.844 81.9992C135.941 81.7031 135.99 81.3755 135.99 81.0164C135.99 80.6573 135.941 80.3583 135.844 80.1194C135.748 79.8798 135.606 79.7118 135.418 79.6153C135.231 79.5182 135.002 79.5061 134.73 79.5791C134.448 79.6546 134.213 79.7935 134.024 79.9959C133.836 80.1982 133.694 80.446 133.598 80.7391C133.503 81.0321 133.455 81.351 133.455 81.6956C133.455 82.0427 133.503 82.3396 133.598 82.5864C133.696 82.8301 133.839 83.005 134.028 83.1112C134.219 83.2142 134.453 83.2287 134.73 83.1544Z" fill="#101828"/>
<path d="M66.2317 115.939L65.4535 116.147L67.7043 109.198L68.4705 108.993L70.7213 114.736L69.9431 114.944L68.1114 110.093L68.0635 110.106L66.2317 115.939ZM66.5191 113.383L69.6558 112.542V113.224L66.5191 114.065V113.383ZM74.7635 108.893L73.0634 114.108L72.3451 114.301L70.645 109.997L71.4112 109.791L72.6803 113.244L72.7282 113.231L73.9972 109.098L74.7635 108.893ZM77.4587 113.03C77.0157 113.148 76.6336 113.15 76.3124 113.033C75.9931 112.914 75.7467 112.695 75.5731 112.376C75.4015 112.054 75.3157 111.65 75.3157 111.162C75.3157 110.675 75.4015 110.222 75.5731 109.804C75.7467 109.384 75.9881 109.028 76.2974 108.736C76.6087 108.442 76.9718 108.239 77.3869 108.128C77.6263 108.064 77.8628 108.042 78.0962 108.062C78.3297 108.082 78.5422 108.16 78.7338 108.294C78.9253 108.427 79.078 108.63 79.1917 108.903C79.3054 109.176 79.3623 109.535 79.3623 109.979V110.289L75.8185 111.238V110.606L78.644 109.849C78.644 109.58 78.5921 109.355 78.4883 109.172C78.3866 108.988 78.2409 108.861 78.0513 108.79C77.8638 108.718 77.6423 108.717 77.3869 108.785C77.1055 108.861 76.8621 108.998 76.6566 109.198C76.453 109.395 76.2964 109.623 76.1867 109.881C76.0769 110.14 76.022 110.401 76.022 110.663V111.084C76.022 111.444 76.0819 111.733 76.2016 111.95C76.3233 112.166 76.492 112.31 76.7075 112.382C76.923 112.452 77.1734 112.449 77.4587 112.373C77.6443 112.323 77.8119 112.251 77.9615 112.157C78.1132 112.061 78.2439 111.943 78.3536 111.805C78.4634 111.664 78.5482 111.502 78.608 111.321L79.2905 111.337C79.2186 111.595 79.0979 111.839 78.9283 112.066C78.7587 112.291 78.5492 112.488 78.2998 112.656C78.0503 112.822 77.77 112.946 77.4587 113.03ZM80.4368 112.133V107.373L81.1192 107.19V107.909L81.1671 107.896C81.2509 107.638 81.4026 107.407 81.6221 107.201C81.8416 106.996 82.089 106.856 82.3643 106.782C82.4162 106.768 82.4811 106.752 82.5589 106.733C82.6367 106.714 82.6956 106.702 82.7355 106.695V107.439C82.7115 107.439 82.6567 107.444 82.5709 107.455C82.4871 107.463 82.3983 107.48 82.3045 107.505C82.081 107.565 81.8815 107.667 81.7059 107.811C81.5323 107.952 81.3946 108.121 81.2928 108.318C81.1931 108.512 81.1432 108.717 81.1432 108.931V111.943L80.4368 112.133ZM84.9257 111.041C84.6343 111.119 84.3699 111.133 84.1325 111.083C83.895 111.031 83.7065 110.916 83.5668 110.736C83.4271 110.555 83.3573 110.309 83.3573 109.999C83.3573 109.726 83.4092 109.491 83.5129 109.294C83.6167 109.095 83.7554 108.923 83.929 108.78C84.1026 108.636 84.2941 108.513 84.5036 108.409C84.7151 108.303 84.9277 108.207 85.1412 108.12C85.4205 108.008 85.647 107.92 85.8206 107.855C85.9962 107.787 86.1239 107.719 86.2037 107.65C86.2855 107.58 86.3264 107.487 86.3264 107.369V107.344C86.3264 107.038 86.2456 106.823 86.084 106.696C85.9243 106.57 85.6819 106.55 85.3567 106.637C85.0194 106.728 84.7551 106.875 84.5635 107.079C84.3719 107.283 84.2373 107.483 84.1594 107.677L83.489 107.609C83.6087 107.287 83.7683 107.019 83.9679 106.805C84.1694 106.588 84.3889 106.415 84.6264 106.288C84.8658 106.157 85.1013 106.061 85.3327 105.999C85.4804 105.96 85.65 105.933 85.8415 105.919C86.0351 105.902 86.2217 105.925 86.4012 105.989C86.5828 106.052 86.7335 106.18 86.8532 106.373C86.9729 106.566 87.0328 106.851 87.0328 107.229V110.365L86.3264 110.554V109.91L86.2905 109.92C86.2426 110.036 86.1628 110.168 86.051 110.315C85.9393 110.463 85.7907 110.603 85.6051 110.735C85.4195 110.868 85.193 110.97 84.9257 111.041ZM85.0334 110.356C85.3128 110.281 85.5482 110.161 85.7398 109.996C85.9333 109.83 86.079 109.645 86.1768 109.439C86.2765 109.232 86.3264 109.03 86.3264 108.832V108.162C86.2965 108.207 86.2306 108.259 86.1289 108.317C86.0291 108.373 85.9134 108.43 85.7817 108.488C85.652 108.543 85.5253 108.596 85.4016 108.646C85.2798 108.693 85.1811 108.732 85.1052 108.762C84.9217 108.836 84.7501 108.922 84.5904 109.021C84.4328 109.117 84.3051 109.233 84.2073 109.368C84.1115 109.501 84.0637 109.661 84.0637 109.847C84.0637 110.101 84.1544 110.269 84.336 110.35C84.5196 110.429 84.7521 110.431 85.0334 110.356ZM90.1777 111.406C89.8365 111.498 89.5432 111.531 89.2978 111.506C89.0523 111.483 88.8478 111.42 88.6842 111.317C88.5226 111.216 88.3939 111.095 88.2981 110.956L88.8608 110.396C88.9246 110.466 89.0055 110.543 89.1032 110.628C89.201 110.716 89.3347 110.778 89.5043 110.815C89.6759 110.854 89.9004 110.836 90.1777 110.762C90.5489 110.662 90.8552 110.487 91.0966 110.237C91.338 109.986 91.4588 109.663 91.4588 109.266V108.299L91.3989 108.315C91.347 108.416 91.2732 108.543 91.1774 108.697C91.0836 108.848 90.948 108.997 90.7704 109.144C90.5948 109.288 90.3573 109.4 90.058 109.48C89.6869 109.58 89.3536 109.578 89.0583 109.475C88.765 109.372 88.5325 109.17 88.3609 108.869C88.1913 108.567 88.1065 108.169 88.1065 107.673C88.1065 107.185 88.1893 106.739 88.355 106.333C88.5206 105.925 88.751 105.582 89.0464 105.305C89.3417 105.025 89.6829 104.834 90.07 104.73C90.3693 104.65 90.6067 104.638 90.7823 104.694C90.9599 104.748 91.0956 104.827 91.1894 104.932C91.2852 105.034 91.359 105.12 91.4109 105.189L91.4827 105.169V104.413L92.1651 104.23V109.126C92.1651 109.535 92.0753 109.892 91.8958 110.196C91.7182 110.502 91.4787 110.755 91.1774 110.956C90.8781 111.158 90.5449 111.308 90.1777 111.406ZM90.1538 108.798C90.4371 108.722 90.6766 108.59 90.8721 108.404C91.0677 108.217 91.2163 107.984 91.3181 107.705C91.4199 107.425 91.4707 107.11 91.4707 106.759C91.4707 106.416 91.4209 106.127 91.3211 105.891C91.2213 105.656 91.0737 105.49 90.8781 105.393C90.6826 105.297 90.4411 105.287 90.1538 105.364C89.8545 105.444 89.6051 105.59 89.4055 105.8C89.208 106.01 89.0593 106.261 88.9596 106.552C88.8618 106.843 88.8129 107.149 88.8129 107.471C88.8129 107.802 88.8628 108.081 88.9626 108.308C89.0643 108.533 89.214 108.691 89.4115 108.783C89.611 108.872 89.8585 108.877 90.1538 108.798ZM95.3857 108.226C94.9427 108.345 94.5606 108.346 94.2393 108.23C93.9201 108.111 93.6736 107.892 93.5 107.573C93.3284 107.251 93.2426 106.846 93.2426 106.359C93.2426 105.871 93.3284 105.418 93.5 105.001C93.6736 104.58 93.9151 104.224 94.2244 103.933C94.5356 103.639 94.8988 103.436 95.3138 103.325C95.5533 103.261 95.7897 103.239 96.0232 103.259C96.2566 103.279 96.4692 103.356 96.6607 103.491C96.8523 103.623 97.0049 103.826 97.1186 104.099C97.2324 104.372 97.2893 104.731 97.2893 105.175V105.485L93.7455 106.435V105.802L96.5709 105.045C96.5709 104.777 96.519 104.551 96.4153 104.368C96.3135 104.185 96.1679 104.058 95.9783 103.986C95.7907 103.915 95.5692 103.913 95.3138 103.982C95.0325 104.057 94.789 104.195 94.5835 104.394C94.38 104.591 94.2234 104.819 94.1136 105.078C94.0039 105.337 93.949 105.597 93.949 105.86V106.281C93.949 106.64 94.0089 106.929 94.1286 107.147C94.2503 107.362 94.4189 107.506 94.6344 107.578C94.8499 107.649 95.1003 107.646 95.3857 107.569C95.5712 107.52 95.7388 107.448 95.8885 107.354C96.0401 107.258 96.1708 107.14 96.2806 107.001C96.3903 106.86 96.4751 106.699 96.535 106.518L97.2174 106.533C97.1456 106.792 97.0249 107.035 96.8553 107.262C96.6857 107.487 96.4761 107.684 96.2267 107.852C95.9773 108.018 95.6969 108.143 95.3857 108.226ZM101.189 108.357C101.069 108.389 100.963 108.407 100.869 108.412C100.775 108.418 100.71 108.417 100.674 108.408L100.854 107.715C101.026 107.715 101.177 107.691 101.309 107.643C101.441 107.595 101.557 107.503 101.659 107.366C101.763 107.231 101.858 107.031 101.943 106.766L102.075 106.359L100.375 102.031L101.141 101.825L102.41 105.278L102.458 105.265L103.727 101.132L104.494 100.927L102.542 106.904C102.454 107.173 102.346 107.406 102.216 107.601C102.086 107.799 101.935 107.961 101.764 108.085C101.594 108.209 101.403 108.3 101.189 108.357ZM107.129 105.08C106.714 105.191 106.35 105.186 106.036 105.066C105.725 104.944 105.482 104.724 105.306 104.403C105.133 104.082 105.046 103.675 105.046 103.184C105.046 102.688 105.133 102.232 105.306 101.816C105.482 101.399 105.725 101.046 106.036 100.758C106.35 100.47 106.714 100.27 107.129 100.159C107.544 100.048 107.907 100.053 108.218 100.174C108.532 100.294 108.775 100.516 108.949 100.839C109.124 101.162 109.212 101.571 109.212 102.067C109.212 102.559 109.124 103.012 108.949 103.427C108.775 103.841 108.532 104.192 108.218 104.481C107.907 104.769 107.544 104.968 107.129 105.08ZM107.129 104.423C107.444 104.338 107.704 104.185 107.907 103.963C108.111 103.741 108.261 103.481 108.359 103.182C108.457 102.883 108.506 102.575 108.506 102.257C108.506 101.938 108.457 101.655 108.359 101.406C108.261 101.158 108.111 100.976 107.907 100.861C107.704 100.747 107.444 100.731 107.129 100.816C106.814 100.9 106.554 101.054 106.351 101.278C106.147 101.502 105.997 101.765 105.899 102.066C105.801 102.367 105.752 102.676 105.752 102.994C105.752 103.312 105.801 103.595 105.899 103.841C105.997 104.088 106.147 104.267 106.351 104.38C106.554 104.493 106.814 104.507 107.129 104.423ZM113.188 101.411V98.5974L113.894 98.4082V103.168L113.188 103.357V102.551L113.14 102.564C113.032 102.835 112.864 103.085 112.637 103.316C112.409 103.544 112.122 103.704 111.775 103.797C111.488 103.874 111.232 103.878 111.009 103.808C110.785 103.735 110.61 103.584 110.482 103.354C110.354 103.122 110.29 102.803 110.29 102.398V99.3738L110.997 99.1845V102.159C110.997 102.506 111.091 102.758 111.278 102.914C111.468 103.07 111.709 103.109 112.002 103.03C112.178 102.983 112.357 102.889 112.538 102.747C112.722 102.605 112.875 102.421 112.999 102.196C113.125 101.97 113.188 101.708 113.188 101.411ZM115.188 102.821V98.0615L115.87 97.8787V98.5976L115.918 98.5847C116.002 98.3268 116.154 98.0951 116.373 97.8896C116.593 97.6841 116.84 97.5445 117.115 97.4707C117.167 97.4568 117.232 97.4404 117.31 97.4216C117.388 97.4029 117.447 97.3902 117.486 97.3836V98.1273C117.462 98.1275 117.408 98.1329 117.322 98.1435C117.238 98.1515 117.149 98.1681 117.055 98.1932C116.832 98.2531 116.632 98.3551 116.457 98.4992C116.283 98.6408 116.146 98.8099 116.044 99.0065C115.944 99.2006 115.894 99.405 115.894 99.6199V102.632L115.188 102.821ZM121.736 101.066L120.335 96.6823L121.077 96.4834L122.071 99.8612L122.119 99.8483L123.101 95.9413L123.855 95.7392L124.825 99.1109L124.873 99.0981L125.866 95.2002L126.609 95.0013L125.208 100.136L124.513 100.322L123.508 96.9353L123.436 96.9546L122.43 100.88L121.736 101.066ZM129.254 99.1513C128.839 99.2625 128.474 99.2578 128.161 99.1372C127.85 99.0161 127.606 98.7952 127.431 98.4746C127.257 98.1534 127.17 97.747 127.17 97.2553C127.17 96.7595 127.257 96.3035 127.431 95.8872C127.606 95.4704 127.85 95.118 128.161 94.8301C128.474 94.5416 128.839 94.3418 129.254 94.2306C129.669 94.1194 130.032 94.1243 130.343 94.2454C130.656 94.366 130.9 94.5879 131.073 94.9112C131.249 95.2339 131.337 95.6432 131.337 96.1389C131.337 96.6306 131.249 97.0838 131.073 97.4986C130.9 97.9128 130.656 98.2641 130.343 98.5526C130.032 98.8405 129.669 99.04 129.254 99.1513ZM129.254 98.4943C129.569 98.4099 129.828 98.2567 130.032 98.0348C130.235 97.813 130.386 97.5526 130.484 97.2537C130.582 96.9548 130.63 96.6463 130.63 96.3282C130.63 96.0101 130.582 95.7267 130.484 95.4782C130.386 95.2296 130.235 95.0479 130.032 94.9331C129.828 94.8182 129.569 94.803 129.254 94.8875C128.938 94.972 128.679 95.1262 128.475 95.3501C128.272 95.574 128.121 95.8365 128.024 96.1374C127.926 96.4384 127.877 96.7479 127.877 97.066C127.877 97.3842 127.926 97.6665 128.024 97.913C128.121 98.1594 128.272 98.3391 128.475 98.4519C128.679 98.5647 128.938 98.5788 129.254 98.4943ZM132.415 98.205V93.4455L133.098 93.2626V93.9815L133.145 93.9687C133.229 93.7107 133.381 93.479 133.6 93.2735C133.82 93.068 134.067 92.9284 134.343 92.8546C134.395 92.8407 134.459 92.8244 134.537 92.8056C134.615 92.7868 134.674 92.7741 134.714 92.7676V93.5112C134.69 93.5115 134.635 93.5169 134.549 93.5275C134.465 93.5355 134.377 93.552 134.283 93.5772C134.059 93.637 133.86 93.739 133.684 93.8832C133.511 94.0247 133.373 94.1938 133.271 94.3905C133.171 94.5846 133.121 94.789 133.121 95.0038V98.0157L132.415 98.205ZM136.21 95.453L136.198 94.5514L136.341 94.5129L138.353 91.8545L139.227 91.6203L137.084 94.438L137.024 94.454L136.21 95.453ZM135.551 97.3647V91.0187L136.257 90.8294V97.1754L135.551 97.3647ZM138.472 96.582L136.676 94.7082L137.179 94.0653L139.37 96.3414L138.472 96.582ZM140.136 96.1363V91.3767L140.842 91.1875V95.947L140.136 96.1363ZM140.495 90.4872C140.357 90.5241 140.238 90.5074 140.139 90.437C140.041 90.3662 139.992 90.2625 139.992 90.1262C139.992 89.9899 140.041 89.86 140.139 89.7368C140.238 89.6129 140.357 89.5326 140.495 89.4957C140.633 89.4588 140.75 89.4758 140.848 89.5467C140.948 89.617 140.998 89.7204 140.998 89.8567C140.998 89.9931 140.948 90.1232 140.848 90.247C140.75 90.3703 140.633 90.4504 140.495 90.4872ZM142.842 92.5479V95.4111L142.136 95.6003V90.8408L142.818 90.658V91.4016L142.878 91.3856C142.986 91.115 143.149 90.877 143.369 90.6715C143.588 90.464 143.872 90.3137 144.219 90.2207C144.53 90.1372 144.803 90.1304 145.036 90.2C145.27 90.2676 145.451 90.4173 145.581 90.649C145.711 90.8787 145.775 91.1959 145.775 91.6008V94.6251L145.069 94.8144V91.8397C145.069 91.4658 144.975 91.1996 144.788 91.0413C144.6 90.8808 144.343 90.8444 144.015 90.9321C143.79 90.9925 143.588 91.0971 143.411 91.2459C143.235 91.3942 143.097 91.5791 142.995 91.8005C142.893 92.022 142.842 92.2711 142.842 92.5479ZM148.922 95.666C148.581 95.7574 148.287 95.7906 148.042 95.7654C147.796 95.7424 147.592 95.6794 147.428 95.5766C147.267 95.4753 147.138 95.3549 147.042 95.2153L147.605 94.6555C147.669 94.7251 147.75 94.8026 147.847 94.888C147.945 94.9754 148.079 95.0377 148.248 95.0749C148.42 95.1136 148.644 95.0958 148.922 95.0215C149.293 94.922 149.599 94.747 149.841 94.4964C150.082 94.2458 150.203 93.9222 150.203 93.5255V92.5588L150.143 92.5748C150.091 92.6755 150.017 92.8027 149.922 92.9564C149.828 93.1075 149.692 93.2565 149.514 93.4032C149.339 93.5474 149.101 93.6595 148.802 93.7397C148.431 93.8392 148.098 93.8376 147.802 93.7349C147.509 93.6317 147.277 93.4296 147.105 93.1285C146.935 92.8269 146.851 92.4282 146.851 91.9325C146.851 91.4449 146.933 90.9982 147.099 90.5923C147.265 90.1844 147.495 89.8417 147.79 89.5643C148.086 89.2847 148.427 89.0931 148.814 88.9894C149.113 88.9092 149.351 88.8972 149.526 88.9535C149.704 89.0071 149.84 89.0864 149.933 89.1914C150.029 89.2939 150.103 89.3794 150.155 89.4482L150.227 89.4289V88.6728L150.909 88.49V93.3858C150.909 93.7949 150.819 94.1515 150.64 94.4558C150.462 94.7616 150.223 95.0148 149.922 95.2153C149.622 95.4174 149.289 95.5676 148.922 95.666ZM148.898 93.0572C149.181 92.9812 149.421 92.8499 149.616 92.6633C149.812 92.4766 149.96 92.2436 150.062 91.9643C150.164 91.685 150.215 91.3698 150.215 91.0186C150.215 90.6757 150.165 90.3864 150.065 90.1508C149.965 89.9152 149.818 89.7492 149.622 89.6529C149.427 89.5565 149.185 89.5469 148.898 89.6239C148.599 89.7041 148.349 89.8494 148.15 90.0599C147.952 90.2698 147.803 90.5203 147.704 90.8115C147.606 91.1021 147.557 91.4085 147.557 91.7308C147.557 92.0613 147.607 92.3402 147.707 92.5676C147.808 92.7924 147.958 92.9506 148.156 93.0422C148.355 93.1313 148.603 93.1363 148.898 93.0572ZM154.573 94.0527V87.5083L155.255 87.3255V88.0816L155.339 88.0591C155.391 87.9626 155.463 87.838 155.554 87.6853C155.648 87.53 155.782 87.3785 155.956 87.2308C156.131 87.0805 156.369 86.9652 156.668 86.885C157.055 86.7813 157.396 86.79 157.692 86.9113C157.987 87.0325 158.217 87.2548 158.383 87.5781C158.549 87.9015 158.631 88.3131 158.631 88.813C158.631 89.3171 158.549 89.7762 158.383 90.1903C158.217 90.6024 157.988 90.9489 157.694 91.23C157.401 91.509 157.063 91.6998 156.68 91.8024C156.385 91.8816 156.148 91.8943 155.97 91.8407C155.793 91.785 155.656 91.7049 155.56 91.6004C155.465 91.4938 155.391 91.4041 155.339 91.3313L155.279 91.3473V93.8634L154.573 94.0527ZM155.267 89.702C155.267 90.0615 155.318 90.365 155.42 90.6124C155.522 90.8578 155.67 91.0318 155.866 91.1344C156.061 91.2348 156.301 91.2471 156.584 91.1712C156.879 91.092 157.126 90.9455 157.323 90.7314C157.523 90.5147 157.673 90.2557 157.772 89.9542C157.874 89.6501 157.925 89.3287 157.925 88.9899C157.925 88.6552 157.875 88.367 157.775 88.1252C157.678 87.8808 157.529 87.7068 157.329 87.6033C157.132 87.4971 156.883 87.4842 156.584 87.5644C156.297 87.6413 156.055 87.7814 155.86 87.9846C155.664 88.1858 155.517 88.434 155.417 88.7293C155.317 89.0225 155.267 89.3467 155.267 89.702ZM161.636 90.4743C161.193 90.593 160.811 90.5942 160.49 90.4778C160.171 90.3589 159.924 90.1398 159.751 89.8207C159.579 89.499 159.493 89.0943 159.493 88.6068C159.493 88.1193 159.579 87.6666 159.751 87.2488C159.924 86.8284 160.166 86.4724 160.475 86.1809C160.786 85.8868 161.149 85.6841 161.565 85.5729C161.804 85.5088 162.04 85.4867 162.274 85.5068C162.507 85.5269 162.72 85.6042 162.911 85.7388C163.103 85.8713 163.256 86.0742 163.369 86.3474C163.483 86.6206 163.54 86.9792 163.54 87.4234V87.7332L159.996 88.6828V88.0507L162.822 87.2936C162.822 87.025 162.77 86.7993 162.666 86.6164C162.564 86.433 162.419 86.3057 162.229 86.2346C162.041 86.163 161.82 86.1614 161.565 86.2298C161.283 86.3052 161.04 86.4428 160.834 86.6424C160.631 86.8395 160.474 87.0674 160.364 87.3261C160.255 87.5848 160.2 87.8453 160.2 88.1077V88.5291C160.2 88.8885 160.26 89.1772 160.379 89.3951C160.501 89.6104 160.67 89.7542 160.885 89.8266C161.101 89.8969 161.351 89.8939 161.636 89.8174C161.822 89.7677 161.99 89.6959 162.139 89.6021C162.291 89.5057 162.422 89.3881 162.531 89.2492C162.641 89.1082 162.726 88.9471 162.786 88.7658L163.468 88.7812C163.396 89.0401 163.276 89.2832 163.106 89.5104C162.936 89.7356 162.727 89.9322 162.477 90.1002C162.228 90.2662 161.948 90.3909 161.636 90.4743ZM164.614 89.5772V84.8177L165.297 84.6348V85.3537L165.345 85.3409C165.429 85.0829 165.58 84.8512 165.8 84.6457C166.019 84.4402 166.267 84.3006 166.542 84.2268C166.594 84.2129 166.659 84.1966 166.737 84.1778C166.814 84.159 166.873 84.1463 166.913 84.1398V84.8834C166.889 84.8837 166.834 84.8891 166.749 84.8997C166.665 84.9077 166.576 84.9242 166.482 84.9494C166.259 85.0092 166.059 85.1113 165.884 85.2554C165.71 85.3969 165.572 85.566 165.47 85.7627C165.371 85.9568 165.321 86.1612 165.321 86.376V89.3879L164.614 89.5772ZM167.75 88.7369V83.9774L168.457 83.7881V88.5476L167.75 88.7369ZM168.11 83.0879C167.972 83.1248 167.853 83.1081 167.753 83.0377C167.656 82.9668 167.607 82.8632 167.607 82.7269C167.607 82.5905 167.656 82.4607 167.753 82.3374C167.853 82.2136 167.972 82.1332 168.11 82.0963C168.247 82.0594 168.365 82.0764 168.463 82.1473C168.563 82.2177 168.612 82.321 168.612 82.4574C168.612 82.5937 168.563 82.7238 168.463 82.8476C168.365 82.9709 168.247 83.051 168.11 83.0879ZM171.618 87.7997C171.203 87.9109 170.839 87.9062 170.526 87.7857C170.214 87.6646 169.971 87.4437 169.795 87.123C169.622 86.8018 169.535 86.3954 169.535 85.9038C169.535 85.408 169.622 84.9519 169.795 84.5356C169.971 84.1188 170.214 83.7665 170.526 83.4785C170.839 83.1901 171.203 82.9903 171.618 82.879C172.033 82.7678 172.396 82.7728 172.708 82.8939C173.021 83.0145 173.264 83.2364 173.438 83.5596C173.614 83.8824 173.701 84.2916 173.701 84.7874C173.701 85.279 173.614 85.7322 173.438 86.147C173.264 86.5612 173.021 86.9126 172.708 87.201C172.396 87.4889 172.033 87.6885 171.618 87.7997ZM171.618 87.1428C171.934 87.0583 172.193 86.9051 172.396 86.6833C172.6 86.4614 172.751 86.201 172.848 85.9022C172.946 85.6033 172.995 85.2948 172.995 84.9767C172.995 84.6585 172.946 84.3752 172.848 84.1266C172.751 83.8781 172.6 83.6964 172.396 83.5815C172.193 83.4667 171.934 83.4515 171.618 83.536C171.303 83.6204 171.044 83.7746 170.84 83.9986C170.637 84.2225 170.486 84.4849 170.388 84.7859C170.29 85.0868 170.241 85.3964 170.241 85.7145C170.241 86.0326 170.29 86.3149 170.388 86.5614C170.486 86.8079 170.637 86.9875 170.84 87.1003C171.044 87.2131 171.303 87.2273 171.618 87.1428ZM176.516 86.4874C176.133 86.5901 175.794 86.5805 175.501 86.4588C175.208 86.3349 174.978 86.1113 174.813 85.788C174.647 85.4626 174.564 85.0479 174.564 84.5438C174.564 84.0439 174.647 83.5879 174.813 83.1758C174.978 82.7637 175.209 82.4179 175.504 82.1384C175.799 81.8589 176.14 81.6673 176.528 81.5636C176.827 81.4834 177.063 81.4717 177.237 81.5284C177.413 81.5826 177.546 81.6625 177.638 81.768C177.732 81.871 177.805 81.9568 177.857 82.0255L177.916 82.0095V79.6669L178.623 79.4777V85.8237L177.94 86.0065V85.2753L177.857 85.2977C177.805 85.3984 177.731 85.5276 177.635 85.6855C177.539 85.8413 177.403 85.9947 177.225 86.1455C177.047 86.2943 176.811 86.4083 176.516 86.4874ZM176.611 85.8049C176.895 85.7289 177.134 85.5884 177.33 85.3831C177.525 85.1758 177.674 84.9221 177.776 84.6222C177.877 84.3202 177.928 83.9894 177.928 83.63C177.928 83.2747 177.878 82.9771 177.779 82.7374C177.679 82.4956 177.531 82.3265 177.336 82.2302C177.14 82.1318 176.899 82.1211 176.611 82.198C176.312 82.2782 176.063 82.4246 175.863 82.6371C175.666 82.8471 175.517 83.1007 175.417 83.3981C175.319 83.6928 175.271 84.0075 175.271 84.3422C175.271 84.6809 175.32 84.9754 175.42 85.2255C175.522 85.4729 175.672 85.6518 175.869 85.7621C176.069 85.8697 176.316 85.884 176.611 85.8049Z" fill="#475467"/>
<path d="M65.238 127.931L299.83 65.072" stroke="#EBEFFA" stroke-width="0.727149"/>
<path d="M91.928 248.03L289.295 195.146" stroke="#E2E6F0" stroke-width="0.727149" stroke-dasharray="2.91 2.91"/>
<path d="M91.928 167.317L289.295 114.433" stroke="#E2E6F0" stroke-width="0.727149" stroke-dasharray="2.91 2.91"/>
<path d="M91.928 219.671L289.295 166.787" stroke="#E2E6F0" stroke-width="0.727149" stroke-dasharray="2.91 2.91"/>
<path d="M91.928 193.494L289.295 140.61" stroke="#E2E6F0" stroke-width="0.727149" stroke-dasharray="2.91 2.91"/>
<path d="M91.928 141.139L289.295 88.2552" stroke="#E2E6F0" stroke-width="0.727149" stroke-dasharray="2.91 2.91"/>
<path d="M67.4629 150.404C67.2534 150.457 67.0439 150.472 66.8343 150.449C66.6248 150.426 66.4336 150.344 66.2607 150.202C66.0877 150.059 65.9489 149.841 65.8441 149.547C65.7394 149.251 65.687 148.859 65.687 148.37C65.687 147.902 65.7294 147.476 65.8142 147.091C65.899 146.706 66.0221 146.367 66.1833 146.076C66.3446 145.783 66.5392 145.542 66.767 145.351C66.9965 145.161 67.255 145.027 67.5427 144.95C67.8287 144.873 68.0831 144.864 68.3059 144.924C68.5304 144.98 68.7133 145.095 68.8547 145.267C68.996 145.439 69.0874 145.657 69.129 145.919L68.5204 146.082C68.4639 145.86 68.3541 145.692 68.1912 145.579C68.0282 145.466 67.8121 145.446 67.5427 145.518C67.1469 145.624 66.8352 145.886 66.6074 146.303C66.3812 146.72 66.2673 147.251 66.2657 147.895L66.3056 147.884C66.3987 147.713 66.5093 147.559 66.6373 147.421C66.767 147.281 66.91 147.162 67.0663 147.063C67.2226 146.965 67.3881 146.892 67.5626 146.845C67.8553 146.767 68.123 146.771 68.3658 146.857C68.6086 146.942 68.8031 147.097 68.9494 147.323C69.0958 147.547 69.1689 147.83 69.1689 148.171C69.1689 148.498 69.0983 148.816 68.9569 149.126C68.8156 149.434 68.6169 149.703 68.3608 149.931C68.1064 150.158 67.8071 150.315 67.4629 150.404ZM67.4629 149.836C67.6724 149.78 67.8603 149.675 68.0266 149.522C68.1945 149.369 68.3267 149.188 68.4232 148.98C68.5213 148.771 68.5703 148.555 68.5703 148.331C68.5703 148.112 68.5229 147.926 68.4281 147.773C68.335 147.617 68.2062 147.508 68.0415 147.445C67.8786 147.382 67.6923 147.378 67.4828 147.435C67.3249 147.477 67.1777 147.549 67.0414 147.651C66.905 147.751 66.7853 147.871 66.6822 148.011C66.5808 148.15 66.5009 148.299 66.4427 148.459C66.3845 148.618 66.3554 148.776 66.3554 148.935C66.3554 149.145 66.4028 149.328 66.4976 149.485C66.5941 149.642 66.7254 149.754 66.8917 149.821C67.0596 149.888 67.25 149.893 67.4629 149.836ZM71.4647 149.332C71.0889 149.433 70.7688 149.413 70.5045 149.272C70.2401 149.129 70.038 148.874 69.8984 148.507C69.7587 148.138 69.6888 147.666 69.6888 147.091C69.6888 146.52 69.7587 146.013 69.8984 145.571C70.0397 145.127 70.2426 144.763 70.507 144.478C70.773 144.192 71.0923 143.999 71.4647 143.899C71.8372 143.799 72.1556 143.821 72.42 143.966C72.6861 144.108 72.8889 144.363 73.0286 144.732C73.1699 145.099 73.2406 145.568 73.2406 146.14C73.2406 146.715 73.1708 147.224 73.0311 147.668C72.8914 148.11 72.6894 148.473 72.425 148.757C72.1606 149.04 71.8405 149.231 71.4647 149.332ZM71.4647 148.764C71.8372 148.664 72.1265 148.401 72.3327 147.974C72.5389 147.546 72.642 146.989 72.642 146.3C72.642 145.842 72.5946 145.465 72.4998 145.168C72.4067 144.871 72.272 144.662 72.0958 144.541C71.9212 144.419 71.7108 144.391 71.4647 144.457C71.0956 144.556 70.8071 144.821 70.5992 145.254C70.3914 145.685 70.2875 146.244 70.2875 146.931C70.2875 147.389 70.334 147.765 70.4271 148.061C70.5203 148.356 70.6541 148.564 70.8287 148.684C71.005 148.804 71.217 148.83 71.4647 148.764ZM76.0601 145.642V148.028L75.4714 148.186V142.898L76.0601 142.74V144.682L76.11 144.668C76.1998 144.44 76.3344 144.241 76.514 144.072C76.6953 143.901 76.9364 143.776 77.2374 143.695C77.4984 143.625 77.727 143.618 77.9233 143.674C78.1195 143.728 78.2716 143.852 78.3797 144.045C78.4894 144.236 78.5443 144.502 78.5443 144.842V147.363L77.9557 147.52V145.041C77.9557 144.726 77.8767 144.504 77.7187 144.374C77.5624 144.242 77.3454 144.213 77.0677 144.288C76.8749 144.34 76.7019 144.428 76.5489 144.553C76.3976 144.678 76.2779 144.833 76.1898 145.019C76.1033 145.204 76.0601 145.412 76.0601 145.642ZM79.27 147.168V143.202L79.8387 143.05V143.649L79.8786 143.638C79.9484 143.423 80.0748 143.23 80.2577 143.059C80.4406 142.887 80.6468 142.771 80.8763 142.71C80.9195 142.698 80.9736 142.684 81.0384 142.669C81.1033 142.653 81.1523 142.643 81.1856 142.637V143.257C81.1656 143.257 81.1199 143.261 81.0484 143.27C80.9786 143.277 80.9046 143.291 80.8264 143.312C80.6402 143.362 80.4739 143.447 80.3276 143.567C80.1829 143.685 80.0682 143.826 79.9834 143.989C79.9002 144.151 79.8587 144.322 79.8587 144.501V147.011L79.27 147.168ZM84.2459 142.757L83.7171 143.054C83.6838 142.971 83.6348 142.896 83.5699 142.827C83.5067 142.756 83.4203 142.707 83.3105 142.68C83.2008 142.652 83.0603 142.662 82.889 142.707C82.6545 142.77 82.4592 142.879 82.3029 143.032C82.1482 143.184 82.0709 143.345 82.0709 143.515C82.0709 143.667 82.1241 143.772 82.2305 143.832C82.3369 143.891 82.5032 143.919 82.7294 143.917L83.2981 143.91C83.6406 143.904 83.8958 143.967 84.0638 144.099C84.2317 144.23 84.3157 144.434 84.3157 144.711C84.3157 144.938 84.2525 145.158 84.1261 145.371C84.0014 145.584 83.8268 145.772 83.6023 145.935C83.3779 146.099 83.1168 146.22 82.8192 146.3C82.4284 146.405 82.105 146.403 81.8489 146.296C81.5928 146.19 81.4307 145.976 81.3625 145.657L81.9212 145.363C81.9745 145.562 82.0751 145.695 82.223 145.762C82.3727 145.829 82.5681 145.83 82.8092 145.765C83.0836 145.692 83.3014 145.573 83.4627 145.41C83.6256 145.244 83.7071 145.076 83.7071 144.905C83.7071 144.767 83.6605 144.665 83.5674 144.597C83.4743 144.527 83.3313 144.495 83.1384 144.5L82.4999 144.516C82.149 144.524 81.8913 144.459 81.7267 144.323C81.5637 144.184 81.4823 143.978 81.4823 143.704C81.4823 143.48 81.543 143.266 81.6643 143.061C81.7874 142.856 81.9545 142.676 82.1657 142.522C82.3785 142.366 82.6196 142.253 82.889 142.181C83.2681 142.079 83.5658 142.085 83.7819 142.2C83.9998 142.313 84.1544 142.499 84.2459 142.757Z" fill="#2D2D2D"/>
<path d="M67.3631 176.883C67.0705 176.961 66.8069 176.971 66.5724 176.914C66.338 176.856 66.1501 176.741 66.0088 176.569C65.8674 176.397 65.7901 176.178 65.7768 175.913L66.3754 175.753C66.3987 175.986 66.5034 176.156 66.6897 176.263C66.8776 176.367 67.1021 176.384 67.3631 176.314C67.5726 176.258 67.7589 176.158 67.9218 176.012C68.0864 175.867 68.2153 175.693 68.3084 175.491C68.4032 175.286 68.4506 175.071 68.4506 174.846C68.4506 174.615 68.4015 174.422 68.3034 174.268C68.207 174.111 68.074 174.003 67.9044 173.944C67.7348 173.884 67.541 173.883 67.3232 173.939C67.1669 173.979 67.0064 174.047 66.8418 174.143C66.6772 174.237 66.5417 174.338 66.4353 174.446L65.8566 174.528L66.1659 171.843L68.8197 171.132V171.7L66.6847 172.272L66.5051 173.88L66.535 173.872C66.6398 173.757 66.7712 173.651 66.9291 173.552C67.0871 173.452 67.2517 173.38 67.423 173.334C67.7356 173.25 68.0141 173.253 68.2585 173.343C68.5046 173.43 68.6975 173.588 68.8372 173.818C68.9785 174.047 69.0492 174.332 69.0492 174.675C69.0492 175.012 68.976 175.333 68.8297 175.637C68.685 175.94 68.4855 176.201 68.2311 176.423C67.9767 176.642 67.6874 176.796 67.3631 176.883ZM71.355 175.813C70.9792 175.914 70.6591 175.894 70.3947 175.753C70.1303 175.61 69.9283 175.355 69.7886 174.988C69.6489 174.619 69.5791 174.147 69.5791 173.572C69.5791 173.001 69.6489 172.494 69.7886 172.052C69.93 171.608 70.1328 171.244 70.3972 170.959C70.6633 170.673 70.9825 170.48 71.355 170.38C71.7275 170.28 72.0459 170.302 72.3103 170.447C72.5763 170.589 72.7792 170.844 72.9189 171.213C73.0602 171.58 73.1309 172.049 73.1309 172.621C73.1309 173.196 73.061 173.705 72.9214 174.149C72.7817 174.591 72.5796 174.954 72.3153 175.238C72.0509 175.521 71.7308 175.712 71.355 175.813ZM71.355 175.245C71.7275 175.145 72.0168 174.882 72.223 174.455C72.4292 174.027 72.5323 173.47 72.5323 172.781C72.5323 172.323 72.4849 171.946 72.3901 171.649C72.297 171.352 72.1623 171.143 71.986 171.022C71.8114 170.9 71.6011 170.872 71.355 170.938C70.9858 171.037 70.6973 171.302 70.4895 171.735C70.2816 172.166 70.1777 172.725 70.1777 173.412C70.1777 173.87 70.2243 174.246 70.3174 174.542C70.4105 174.837 70.5444 175.045 70.719 175.165C70.8952 175.285 71.1072 175.311 71.355 175.245ZM75.9503 172.123V174.509L75.3617 174.667V169.379L75.9503 169.221V171.163L76.0002 171.149C76.09 170.92 76.2247 170.722 76.4043 170.553C76.5855 170.382 76.8266 170.257 77.1276 170.176C77.3887 170.106 77.6173 170.099 77.8135 170.155C78.0097 170.209 78.1619 170.333 78.27 170.526C78.3797 170.717 78.4346 170.983 78.4346 171.323V173.844L77.8459 174.001V171.522C77.8459 171.207 77.767 170.985 77.609 170.855C77.4527 170.723 77.2357 170.694 76.958 170.769C76.7651 170.821 76.5922 170.909 76.4392 171.034C76.2879 171.159 76.1682 171.314 76.08 171.5C75.9936 171.685 75.9503 171.893 75.9503 172.123ZM79.1603 173.649V169.683L79.729 169.531V170.13L79.7689 170.119C79.8387 169.904 79.9651 169.711 80.148 169.54C80.3309 169.368 80.5371 169.252 80.7665 169.191C80.8098 169.179 80.8638 169.165 80.9287 169.15C80.9935 169.134 81.0426 169.124 81.0758 169.118V169.738C81.0559 169.738 81.0101 169.742 80.9386 169.751C80.8688 169.758 80.7948 169.772 80.7167 169.793C80.5304 169.843 80.3641 169.928 80.2178 170.048C80.0732 170.166 79.9584 170.307 79.8736 170.47C79.7905 170.632 79.7489 170.803 79.7489 170.982V173.491L79.1603 173.649ZM84.1361 169.238L83.6073 169.535C83.5741 169.452 83.525 169.377 83.4602 169.308C83.397 169.237 83.3105 169.188 83.2008 169.161C83.091 169.133 82.9505 169.142 82.7793 169.188C82.5448 169.251 82.3494 169.359 82.1931 169.513C82.0385 169.665 81.9612 169.826 81.9612 169.996C81.9612 170.148 82.0144 170.253 82.1208 170.312C82.2272 170.372 82.3935 170.4 82.6196 170.398L83.1883 170.391C83.5308 170.385 83.7861 170.448 83.954 170.58C84.122 170.711 84.2059 170.915 84.2059 171.192C84.2059 171.419 84.1428 171.639 84.0164 171.852C83.8917 172.065 83.7171 172.253 83.4926 172.416C83.2681 172.58 83.0071 172.701 82.7094 172.781C82.3187 172.886 81.9952 172.884 81.7392 172.777C81.4831 172.67 81.321 172.457 81.2528 172.138L81.8115 171.844C81.8647 172.043 81.9653 172.176 82.1133 172.243C82.263 172.31 82.4583 172.311 82.6994 172.246C82.9738 172.173 83.1916 172.054 83.3529 171.891C83.5159 171.725 83.5974 171.557 83.5974 171.386C83.5974 171.248 83.5508 171.146 83.4577 171.078C83.3646 171.008 83.2216 170.976 83.0287 170.981L82.3902 170.997C82.0393 171.005 81.7816 170.94 81.6169 170.804C81.454 170.665 81.3725 170.459 81.3725 170.185C81.3725 169.961 81.4332 169.747 81.5546 169.542C81.6776 169.337 81.8448 169.157 82.0559 169.003C82.2688 168.847 82.5099 168.734 82.7793 168.662C83.1584 168.56 83.456 168.566 83.6722 168.681C83.89 168.794 84.0447 168.98 84.1361 169.238Z" fill="#2D2D2D"/>
<path d="M65.6471 202.637V202.11L67.8919 197.832L68.261 197.733V198.549L68.0116 198.616L66.3155 201.849V201.89L69.3385 201.08V201.648L65.6471 202.637ZM68.0515 203.077V201.833V201.587V197.789L68.6402 197.631V202.92L68.0515 203.077ZM71.5882 202.202C71.2124 202.303 70.8923 202.283 70.6279 202.142C70.3635 201.999 70.1615 201.744 70.0218 201.377C69.8821 201.008 69.8123 200.536 69.8123 199.961C69.8123 199.39 69.8821 198.883 70.0218 198.441C70.1632 197.997 70.366 197.633 70.6304 197.349C70.8965 197.062 71.2157 196.869 71.5882 196.769C71.9607 196.669 72.2791 196.692 72.5435 196.836C72.8095 196.978 73.0124 197.234 73.1521 197.602C73.2934 197.969 73.3641 198.438 73.3641 199.01C73.3641 199.585 73.2942 200.094 73.1546 200.538C73.0149 200.98 72.8129 201.343 72.5485 201.627C72.2841 201.91 71.964 202.101 71.5882 202.202ZM71.5882 201.634C71.9607 201.534 72.25 201.271 72.4562 200.844C72.6624 200.417 72.7655 199.859 72.7655 199.17C72.7655 198.712 72.7181 198.335 72.6233 198.038C72.5302 197.742 72.3955 197.532 72.2192 197.411C72.0446 197.289 71.8343 197.261 71.5882 197.327C71.219 197.426 70.9306 197.692 70.7227 198.124C70.5148 198.555 70.4109 199.114 70.4109 199.801C70.4109 200.259 70.4575 200.636 70.5506 200.931C70.6437 201.226 70.7776 201.434 70.9522 201.554C71.1284 201.674 71.3404 201.7 71.5882 201.634ZM76.1835 198.512V200.898L75.5949 201.056V195.768L76.1835 195.61V197.552L76.2334 197.539C76.3232 197.31 76.4579 197.111 76.6375 196.942C76.8187 196.771 77.0598 196.646 77.3608 196.565C77.6219 196.495 77.8505 196.488 78.0467 196.544C78.2429 196.598 78.3951 196.722 78.5032 196.915C78.6129 197.106 78.6678 197.372 78.6678 197.713V200.233L78.0791 200.391V197.912C78.0791 197.597 78.0002 197.374 77.8422 197.244C77.6859 197.112 77.4689 197.084 77.1912 197.158C76.9983 197.21 76.8254 197.298 76.6724 197.423C76.5211 197.548 76.4014 197.704 76.3132 197.889C76.2268 198.074 76.1835 198.282 76.1835 198.512ZM79.3935 200.038V196.072L79.9622 195.92V196.519L80.0021 196.508C80.0719 196.293 80.1983 196.1 80.3812 195.929C80.5641 195.758 80.7703 195.641 80.9998 195.58C81.043 195.568 81.097 195.554 81.1619 195.539C81.2267 195.523 81.2758 195.513 81.309 195.507V196.127C81.2891 196.127 81.2434 196.132 81.1719 196.14C81.102 196.147 81.028 196.161 80.9499 196.182C80.7636 196.232 80.5974 196.317 80.451 196.437C80.3064 196.555 80.1916 196.696 80.1068 196.86C80.0237 197.021 79.9821 197.192 79.9821 197.371V199.881L79.3935 200.038ZM84.3693 195.627L83.8405 195.924C83.8073 195.841 83.7582 195.766 83.6934 195.697C83.6302 195.626 83.5437 195.577 83.434 195.55C83.3242 195.522 83.1837 195.532 83.0125 195.577C82.778 195.64 82.5826 195.749 82.4263 195.902C82.2717 196.054 82.1944 196.215 82.1944 196.385C82.1944 196.537 82.2476 196.642 82.354 196.702C82.4604 196.761 82.6267 196.789 82.8528 196.787L83.4215 196.78C83.7641 196.774 84.0193 196.837 84.1872 196.97C84.3552 197.1 84.4392 197.304 84.4392 197.581C84.4392 197.808 84.376 198.028 84.2496 198.241C84.1249 198.454 83.9503 198.642 83.7258 198.805C83.5013 198.969 83.2403 199.09 82.9426 199.17C82.5519 199.275 82.2284 199.274 81.9724 199.167C81.7163 199.06 81.5542 198.847 81.486 198.527L82.0447 198.233C82.0979 198.432 82.1985 198.565 82.3465 198.633C82.4962 198.699 82.6915 198.7 82.9327 198.636C83.207 198.562 83.4248 198.443 83.5861 198.28C83.7491 198.114 83.8306 197.946 83.8306 197.775C83.8306 197.637 83.784 197.535 83.6909 197.467C83.5978 197.397 83.4548 197.365 83.2619 197.37L82.6234 197.386C82.2725 197.394 82.0148 197.33 81.8502 197.193C81.6872 197.054 81.6057 196.848 81.6057 196.574C81.6057 196.35 81.6664 196.136 81.7878 195.931C81.9109 195.726 82.078 195.546 82.2891 195.392C82.502 195.237 82.7431 195.123 83.0125 195.051C83.3916 194.949 83.6892 194.955 83.9054 195.07C84.1232 195.183 84.2779 195.369 84.3693 195.627Z" fill="#2D2D2D"/>
<path d="M67.4928 229.751C67.1636 229.839 66.8701 229.859 66.6124 229.811C66.3563 229.763 66.1526 229.655 66.0013 229.487C65.8516 229.317 65.7701 229.095 65.7568 228.822L66.3854 228.653C66.3987 228.82 66.4552 228.952 66.555 229.049C66.6548 229.145 66.7853 229.205 66.9466 229.229C67.1079 229.252 67.2866 229.238 67.4828 229.186C67.7023 229.127 67.8969 229.035 68.0665 228.91C68.2361 228.786 68.3691 228.64 68.4656 228.473C68.562 228.306 68.6102 228.129 68.6102 227.944C68.6102 227.749 68.5637 227.59 68.4705 227.467C68.3774 227.342 68.2411 227.262 68.0615 227.226C67.8819 227.189 67.6624 227.206 67.403 227.275L66.994 227.385V226.817L67.403 226.707C67.6059 226.653 67.7838 226.567 67.9368 226.451C68.0914 226.334 68.212 226.195 68.2984 226.034C68.3866 225.872 68.4306 225.699 68.4306 225.513C68.4306 225.334 68.3924 225.188 68.3159 225.076C68.2394 224.964 68.1313 224.89 67.9917 224.853C67.8536 224.816 67.6907 224.823 67.5028 224.873C67.3265 224.92 67.1602 224.998 67.0039 225.107C66.8493 225.214 66.7229 225.344 66.6248 225.496C66.5267 225.646 66.4735 225.81 66.4652 225.988L65.8666 226.148C65.8766 225.868 65.9572 225.604 66.1085 225.355C66.2598 225.105 66.4577 224.888 66.7021 224.705C66.9482 224.522 67.2184 224.392 67.5128 224.313C67.8287 224.228 68.0997 224.222 68.3259 224.294C68.552 224.364 68.7258 224.49 68.8472 224.673C68.9686 224.856 69.0293 225.072 69.0293 225.321C69.0293 225.619 68.9536 225.893 68.8023 226.144C68.6526 226.394 68.4489 226.594 68.1912 226.744V226.785C68.5138 226.754 68.7657 226.829 68.9469 227.009C69.1282 227.188 69.2188 227.445 69.2188 227.78C69.2188 228.068 69.1432 228.346 68.9918 228.616C68.8422 228.883 68.6377 229.117 68.3783 229.317C68.1189 229.518 67.8237 229.662 67.4928 229.751ZM71.5539 228.663C71.1781 228.764 70.858 228.743 70.5936 228.603C70.3292 228.46 70.1272 228.205 69.9875 227.838C69.8479 227.469 69.778 226.997 69.778 226.422C69.778 225.851 69.8479 225.344 69.9875 224.902C70.1289 224.458 70.3317 224.094 70.5961 223.809C70.8622 223.523 71.1814 223.33 71.5539 223.23C71.9264 223.13 72.2448 223.152 72.5092 223.297C72.7752 223.439 72.9781 223.694 73.1178 224.063C73.2591 224.43 73.3298 224.899 73.3298 225.47C73.3298 226.045 73.2599 226.555 73.1203 226.998C72.9806 227.44 72.7786 227.804 72.5142 228.088C72.2498 228.37 71.9297 228.562 71.5539 228.663ZM71.5539 228.095C71.9264 227.995 72.2157 227.731 72.4219 227.304C72.6281 226.877 72.7312 226.319 72.7312 225.631C72.7312 225.173 72.6838 224.796 72.589 224.499C72.4959 224.202 72.3612 223.993 72.1849 223.872C72.0103 223.75 71.8 223.722 71.5539 223.788C71.1848 223.887 70.8963 224.152 70.6884 224.585C70.4806 225.016 70.3766 225.575 70.3766 226.262C70.3766 226.72 70.4232 227.096 70.5163 227.392C70.6094 227.687 70.7433 227.894 70.9179 228.015C71.0941 228.134 71.3061 228.161 71.5539 228.095ZM76.1492 224.973V227.359L75.5606 227.517V222.229L76.1492 222.071V224.013L76.1991 223.999C76.2889 223.77 76.4236 223.572 76.6032 223.403C76.7844 223.232 77.0255 223.106 77.3265 223.026C77.5876 222.956 77.8162 222.949 78.0124 223.005C78.2086 223.059 78.3608 223.183 78.4689 223.376C78.5786 223.567 78.6335 223.832 78.6335 224.173V226.694L78.0449 226.851V224.372C78.0449 224.057 77.9659 223.835 77.8079 223.705C77.6516 223.573 77.4346 223.544 77.1569 223.619C76.964 223.67 76.7911 223.759 76.6381 223.884C76.4868 224.009 76.3671 224.164 76.2789 224.35C76.1925 224.535 76.1492 224.743 76.1492 224.973ZM79.3592 226.499V222.533L79.9279 222.38V222.98L79.9678 222.969C80.0376 222.754 80.164 222.561 80.3469 222.39C80.5298 222.218 80.736 222.102 80.9655 222.04C81.0087 222.029 81.0627 222.015 81.1276 222C81.1924 221.984 81.2415 221.973 81.2747 221.968V222.588C81.2548 222.588 81.2091 222.592 81.1376 222.601C81.0677 222.608 80.9937 222.622 80.9156 222.643C80.7293 222.692 80.5631 222.777 80.4167 222.898C80.2721 223.016 80.1573 223.156 80.0725 223.32C79.9894 223.482 79.9478 223.652 79.9478 223.831V226.341L79.3592 226.499ZM84.335 222.088L83.8063 222.384C83.773 222.302 83.7239 222.227 83.6591 222.158C83.5959 222.087 83.5094 222.038 83.3997 222.011C83.2899 221.983 83.1494 221.992 82.9782 222.038C82.7437 222.101 82.5483 222.209 82.392 222.363C82.2374 222.515 82.1601 222.676 82.1601 222.846C82.1601 222.998 82.2133 223.103 82.3197 223.162C82.4261 223.222 82.5924 223.25 82.8185 223.248L83.3872 223.24C83.7298 223.235 83.985 223.298 84.1529 223.43C84.3209 223.561 84.4049 223.765 84.4049 224.042C84.4049 224.269 84.3417 224.489 84.2153 224.702C84.0906 224.915 83.916 225.103 83.6915 225.266C83.467 225.429 83.206 225.551 82.9083 225.631C82.5176 225.735 82.1942 225.734 81.9381 225.627C81.682 225.52 81.5199 225.307 81.4517 224.988L82.0104 224.694C82.0636 224.893 82.1642 225.026 82.3122 225.093C82.4619 225.16 82.6572 225.161 82.8984 225.096C83.1727 225.023 83.3905 224.904 83.5518 224.74C83.7148 224.575 83.7963 224.406 83.7963 224.236C83.7963 224.098 83.7497 223.995 83.6566 223.927C83.5635 223.858 83.4205 223.825 83.2276 223.831L82.5891 223.847C82.2382 223.855 81.9805 223.79 81.8159 223.654C81.6529 223.515 81.5714 223.309 81.5714 223.035C81.5714 222.811 81.6321 222.597 81.7535 222.392C81.8766 222.187 82.0437 222.007 82.2548 221.852C82.4677 221.697 82.7088 221.584 82.9782 221.511C83.3573 221.41 83.6549 221.416 83.8711 221.53C84.0889 221.644 84.2436 221.83 84.335 222.088Z" fill="#2D2D2D"/>
<path d="M65.7668 256.593V256.128L67.4529 253.765C67.6508 253.488 67.8137 253.25 67.9418 253.051C68.0698 252.849 68.1646 252.667 68.2261 252.505C68.2893 252.34 68.3209 252.176 68.3209 252.014C68.3209 251.828 68.2777 251.679 68.1912 251.566C68.1064 251.453 67.99 251.379 67.842 251.345C67.694 251.31 67.5277 251.318 67.3432 251.367C67.1469 251.42 66.9757 251.508 66.8293 251.632C66.6847 251.753 66.5724 251.899 66.4926 252.07C66.4145 252.241 66.3754 252.427 66.3754 252.629L65.7868 252.786C65.7868 252.477 65.8558 252.186 65.9938 251.915C66.1318 251.644 66.3197 251.411 66.5575 251.216C66.7969 251.021 67.0655 250.884 67.3631 250.804C67.6624 250.724 67.9276 250.718 68.1588 250.787C68.3899 250.856 68.5711 250.984 68.7025 251.171C68.8339 251.358 68.8996 251.587 68.8996 251.859C68.8996 252.054 68.8655 252.253 68.7973 252.457C68.7308 252.659 68.6144 252.896 68.4481 253.168C68.2835 253.438 68.0548 253.774 67.7622 254.178L66.6148 255.756V255.797L68.9893 255.161V255.729L65.7668 256.593ZM71.3344 255.173C70.9586 255.274 70.6385 255.254 70.3741 255.113C70.1097 254.97 69.9077 254.715 69.768 254.348C69.6284 253.979 69.5585 253.508 69.5585 252.933C69.5585 252.361 69.6284 251.854 69.768 251.412C69.9094 250.968 70.1122 250.604 70.3766 250.32C70.6427 250.033 70.9619 249.84 71.3344 249.74C71.7069 249.64 72.0253 249.663 72.2897 249.807C72.5557 249.949 72.7586 250.205 72.8983 250.574C73.0396 250.94 73.1103 251.409 73.1103 251.981C73.1103 252.556 73.0405 253.065 72.9008 253.509C72.7611 253.951 72.5591 254.314 72.2947 254.598C72.0303 254.881 71.7102 255.072 71.3344 255.173ZM71.3344 254.605C71.7069 254.505 71.9962 254.242 72.2024 253.815C72.4086 253.388 72.5117 252.83 72.5117 252.141C72.5117 251.683 72.4643 251.306 72.3695 251.01C72.2764 250.713 72.1417 250.503 71.9654 250.382C71.7908 250.26 71.5805 250.232 71.3344 250.298C70.9653 250.397 70.6768 250.663 70.4689 251.095C70.2611 251.526 70.1571 252.085 70.1571 252.772C70.1571 253.23 70.2037 253.607 70.2968 253.902C70.3899 254.197 70.5238 254.405 70.6984 254.525C70.8746 254.645 71.0866 254.671 71.3344 254.605ZM75.9298 251.484V253.87L75.3411 254.027V248.739L75.9298 248.581V250.523L75.9796 250.51C76.0694 250.281 76.2041 250.082 76.3837 249.913C76.565 249.743 76.8061 249.617 77.107 249.536C77.3681 249.466 77.5967 249.459 77.7929 249.515C77.9891 249.569 78.1413 249.693 78.2494 249.886C78.3591 250.077 78.414 250.343 78.414 250.684V253.204L77.8254 253.362V250.883C77.8254 250.568 77.7464 250.345 77.5884 250.215C77.4321 250.083 77.2151 250.055 76.9374 250.129C76.7445 250.181 76.5716 250.269 76.4186 250.395C76.2673 250.52 76.1476 250.675 76.0595 250.86C75.973 251.045 75.9298 251.253 75.9298 251.484ZM79.1397 253.009V249.043L79.7084 248.891V249.49L79.7483 249.479C79.8181 249.264 79.9445 249.071 80.1274 248.9C80.3103 248.729 80.5165 248.612 80.746 248.551C80.7892 248.539 80.8432 248.526 80.9081 248.51C80.9729 248.494 81.022 248.484 81.0553 248.478V249.098C81.0353 249.098 80.9896 249.103 80.9181 249.112C80.8482 249.118 80.7742 249.132 80.6961 249.153C80.5098 249.203 80.3436 249.288 80.1972 249.408C80.0526 249.526 79.9378 249.667 79.853 249.831C79.7699 249.992 79.7283 250.163 79.7283 250.342V252.852L79.1397 253.009ZM84.1155 248.598L83.5868 248.895C83.5535 248.812 83.5045 248.737 83.4396 248.668C83.3764 248.597 83.2899 248.548 83.1802 248.521C83.0705 248.493 82.9299 248.503 82.7587 248.549C82.5242 248.611 82.3288 248.72 82.1725 248.874C82.0179 249.025 81.9406 249.186 81.9406 249.357C81.9406 249.508 81.9938 249.613 82.1002 249.673C82.2066 249.732 82.3729 249.761 82.599 249.759L83.1677 249.751C83.5103 249.745 83.7655 249.808 83.9335 249.941C84.1014 250.071 84.1854 250.275 84.1854 250.552C84.1854 250.78 84.1222 251 83.9958 251.212C83.8711 251.425 83.6965 251.613 83.472 251.776C83.2475 251.94 82.9865 252.061 82.6888 252.141C82.2981 252.246 81.9747 252.245 81.7186 252.138C81.4625 252.031 81.3004 251.818 81.2322 251.499L81.7909 251.204C81.8441 251.403 81.9447 251.537 82.0927 251.604C82.2424 251.67 82.4378 251.671 82.6789 251.607C82.9532 251.533 83.1711 251.415 83.3323 251.251C83.4953 251.085 83.5768 250.917 83.5768 250.746C83.5768 250.609 83.5302 250.506 83.4371 250.438C83.344 250.368 83.201 250.336 83.0081 250.341L82.3696 250.357C82.0187 250.365 81.761 250.301 81.5964 250.164C81.4334 250.025 81.3519 249.819 81.3519 249.545C81.3519 249.321 81.4126 249.107 81.534 248.903C81.6571 248.697 81.8242 248.518 82.0354 248.363C82.2482 248.208 82.4893 248.094 82.7587 248.022C83.1378 247.92 83.4354 247.927 83.6516 248.041C83.8694 248.155 84.0241 248.34 84.1155 248.598Z" fill="#2D2D2D"/>
<path d="M105.892 254.726L106.63 254.528L108.366 258.453L108.426 258.437L110.162 253.582L110.9 253.384V258.673L110.321 258.828V254.81L110.272 254.823L108.675 259.269L108.117 259.418L106.52 255.828L106.47 255.842V259.86L105.892 260.015V254.726ZM112.837 258.247C112.594 258.312 112.374 258.323 112.176 258.282C111.978 258.238 111.821 258.142 111.704 257.992C111.588 257.841 111.53 257.636 111.53 257.378C111.53 257.151 111.573 256.955 111.66 256.791C111.746 256.625 111.862 256.482 112.006 256.362C112.151 256.242 112.311 256.139 112.485 256.053C112.661 255.964 112.838 255.884 113.016 255.813C113.249 255.719 113.438 255.645 113.583 255.591C113.729 255.535 113.835 255.478 113.902 255.42C113.97 255.362 114.004 255.284 114.004 255.186V255.166C114.004 254.911 113.937 254.731 113.802 254.626C113.669 254.52 113.467 254.504 113.196 254.577C112.915 254.652 112.695 254.775 112.535 254.945C112.375 255.115 112.263 255.281 112.198 255.443L111.64 255.386C111.739 255.118 111.872 254.895 112.039 254.716C112.207 254.535 112.389 254.392 112.587 254.285C112.787 254.177 112.983 254.097 113.176 254.045C113.299 254.012 113.44 253.989 113.6 253.978C113.761 253.964 113.917 253.983 114.066 254.036C114.218 254.088 114.343 254.195 114.443 254.356C114.543 254.517 114.593 254.755 114.593 255.07V257.683L114.004 257.841V257.304L113.974 257.312C113.934 257.409 113.868 257.518 113.775 257.642C113.681 257.765 113.558 257.881 113.403 257.992C113.248 258.102 113.06 258.187 112.837 258.247ZM112.927 257.675C113.159 257.613 113.356 257.513 113.515 257.375C113.677 257.237 113.798 257.083 113.879 256.911C113.963 256.739 114.004 256.57 114.004 256.405V255.847C113.979 255.885 113.924 255.928 113.839 255.977C113.756 256.023 113.66 256.07 113.55 256.119C113.442 256.165 113.336 256.209 113.233 256.25C113.132 256.289 113.05 256.322 112.986 256.347C112.833 256.409 112.69 256.481 112.557 256.563C112.426 256.643 112.32 256.739 112.238 256.853C112.158 256.963 112.118 257.096 112.118 257.251C112.118 257.463 112.194 257.603 112.345 257.671C112.498 257.736 112.692 257.738 112.927 257.675ZM115.558 258.912C115.458 258.939 115.369 258.954 115.291 258.958C115.213 258.963 115.159 258.962 115.129 258.955L115.279 258.377C115.422 258.377 115.548 258.357 115.658 258.317C115.767 258.277 115.865 258.2 115.949 258.087C116.036 257.974 116.115 257.807 116.186 257.587L116.296 257.247L114.879 253.64L115.518 253.469L116.575 256.346L116.615 256.336L117.673 252.892L118.311 252.72L116.685 257.701C116.612 257.925 116.521 258.119 116.413 258.282C116.305 258.447 116.18 258.582 116.037 258.685C115.895 258.789 115.736 258.864 115.558 258.912Z" fill="#A3ADC8"/>
<path d="M147.882 243.475L148.501 243.309V247.089C148.501 247.427 148.441 247.729 148.321 247.997C148.202 248.265 148.033 248.49 147.815 248.67C147.597 248.851 147.34 248.981 147.044 249.06C146.765 249.135 146.516 249.149 146.299 249.102C146.081 249.054 145.909 248.948 145.785 248.786C145.66 248.623 145.598 248.406 145.598 248.136L146.206 247.973C146.206 248.123 146.242 248.244 146.314 248.337C146.387 248.427 146.486 248.486 146.613 248.515C146.739 248.543 146.883 248.535 147.044 248.492C147.222 248.444 147.374 248.365 147.498 248.254C147.623 248.143 147.718 248.004 147.783 247.837C147.849 247.668 147.882 247.474 147.882 247.255V243.475ZM151.724 246.112V243.768L152.313 243.61V247.576L151.724 247.734V247.062L151.684 247.073C151.594 247.299 151.455 247.507 151.265 247.699C151.075 247.89 150.836 248.023 150.547 248.101C150.307 248.165 150.094 248.168 149.908 248.109C149.722 248.049 149.576 247.923 149.469 247.731C149.363 247.538 149.31 247.272 149.31 246.935V244.414L149.898 244.257V246.736C149.898 247.025 149.976 247.235 150.133 247.365C150.291 247.495 150.492 247.527 150.736 247.461C150.883 247.422 151.031 247.344 151.183 247.226C151.336 247.107 151.464 246.954 151.567 246.766C151.672 246.578 151.724 246.36 151.724 246.112ZM153.628 244.838V247.224L153.04 247.381V243.415L153.608 243.263V243.882L153.658 243.869C153.748 243.644 153.884 243.445 154.067 243.274C154.25 243.101 154.486 242.976 154.776 242.898C155.035 242.829 155.262 242.823 155.456 242.881C155.651 242.937 155.802 243.062 155.91 243.255C156.018 243.447 156.073 243.711 156.073 244.048V246.569L155.484 246.726V244.247C155.484 243.936 155.406 243.714 155.249 243.582C155.093 243.448 154.879 243.418 154.606 243.491C154.418 243.541 154.25 243.629 154.102 243.753C153.956 243.876 153.84 244.03 153.755 244.215C153.671 244.399 153.628 244.607 153.628 244.838Z" fill="#A3ADC8"/>
<path d="M187.215 232.936L187.834 232.77V236.55C187.834 236.888 187.774 237.19 187.654 237.458C187.535 237.726 187.366 237.95 187.148 238.131C186.93 238.312 186.673 238.442 186.377 238.521C186.098 238.596 185.849 238.61 185.632 238.563C185.414 238.515 185.242 238.409 185.118 238.246C184.993 238.084 184.931 237.867 184.931 237.597L185.539 237.434C185.539 237.583 185.575 237.705 185.647 237.797C185.72 237.888 185.819 237.947 185.946 237.975C186.072 238.004 186.216 237.996 186.377 237.953C186.555 237.905 186.707 237.826 186.831 237.715C186.956 237.604 187.051 237.465 187.116 237.298C187.182 237.129 187.215 236.935 187.215 236.716V232.936ZM191.057 235.573V233.228L191.646 233.071V237.037L191.057 237.195V236.523L191.017 236.534C190.927 236.759 190.788 236.968 190.598 237.16C190.408 237.35 190.169 237.484 189.88 237.562C189.64 237.626 189.427 237.629 189.241 237.57C189.055 237.51 188.909 237.384 188.802 237.192C188.696 236.998 188.643 236.733 188.643 236.396V233.875L189.231 233.718V236.196C189.231 236.486 189.309 236.695 189.466 236.826C189.624 236.956 189.825 236.988 190.069 236.922C190.216 236.883 190.364 236.804 190.516 236.686C190.669 236.568 190.797 236.415 190.9 236.227C191.005 236.039 191.057 235.821 191.057 235.573ZM192.961 231.396V236.684L192.373 236.842V231.554L192.961 231.396Z" fill="#A3ADC8"/>
<path d="M221.622 229.005L220.634 229.269L222.433 223.499L223.575 223.193L225.376 227.999L224.388 228.264L223.024 224.425L222.984 224.436L221.622 229.005ZM221.654 226.923L224.348 226.201V226.97L221.654 227.692V226.923ZM228.099 225.601V223.303L229.002 223.061V227.027L228.127 227.262V226.557L228.087 226.568C228 226.813 227.858 227.032 227.66 227.227C227.464 227.42 227.222 227.556 226.935 227.633C226.683 227.7 226.461 227.702 226.269 227.638C226.077 227.572 225.928 227.443 225.82 227.25C225.712 227.055 225.657 226.799 225.657 226.483V223.957L226.56 223.715V226.096C226.56 226.347 226.627 226.529 226.76 226.642C226.893 226.754 227.068 226.781 227.284 226.723C227.417 226.688 227.546 226.62 227.67 226.519C227.795 226.418 227.897 226.291 227.977 226.137C228.059 225.981 228.099 225.802 228.099 225.601ZM231.246 227.996C230.921 228.083 230.643 228.112 230.41 228.083C230.177 228.056 229.99 227.986 229.849 227.872C229.708 227.758 229.609 227.617 229.555 227.447L230.368 227.025C230.404 227.093 230.457 227.155 230.527 227.212C230.597 227.271 230.691 227.31 230.809 227.328C230.929 227.348 231.079 227.333 231.261 227.285C231.517 227.216 231.729 227.095 231.897 226.92C232.065 226.748 232.149 226.516 232.149 226.223V225.471L232.104 225.483C232.057 225.592 231.989 225.71 231.899 225.835C231.811 225.96 231.694 226.077 231.547 226.185C231.403 226.293 231.221 226.376 231.001 226.435C230.707 226.514 230.44 226.514 230.201 226.435C229.963 226.354 229.773 226.19 229.632 225.942C229.492 225.692 229.422 225.351 229.422 224.919C229.422 224.483 229.492 224.097 229.632 223.76C229.773 223.421 229.964 223.142 230.203 222.922C230.443 222.702 230.709 222.552 231.004 222.473C231.228 222.413 231.413 222.403 231.557 222.443C231.704 222.482 231.82 222.544 231.907 222.631C231.993 222.717 232.059 222.801 232.104 222.886L232.154 222.872V222.217L233.044 221.978V226.009C233.044 226.348 232.966 226.649 232.81 226.913C232.653 227.177 232.44 227.401 232.169 227.583C231.897 227.766 231.59 227.904 231.246 227.996ZM231.253 225.634C231.444 225.583 231.607 225.491 231.742 225.358C231.877 225.226 231.979 225.06 232.049 224.86C232.119 224.661 232.154 224.435 232.154 224.182C232.154 223.932 232.119 223.723 232.049 223.554C231.981 223.384 231.879 223.266 231.745 223.199C231.611 223.13 231.448 223.121 231.253 223.173C231.052 223.227 230.884 223.326 230.749 223.471C230.615 223.615 230.513 223.791 230.445 223.999C230.377 224.205 230.343 224.427 230.343 224.667C230.343 224.91 230.377 225.113 230.445 225.277C230.515 225.439 230.617 225.553 230.752 225.618C230.888 225.682 231.055 225.687 231.253 225.634Z" fill="#2D2D2D"/>
<path d="M263.207 213.896C263.177 213.642 263.056 213.471 262.843 213.384C262.63 213.296 262.369 213.294 262.06 213.377C261.834 213.437 261.636 213.528 261.466 213.65C261.298 213.77 261.167 213.91 261.072 214.068C260.979 214.225 260.933 214.388 260.933 214.557C260.933 214.698 260.965 214.811 261.03 214.895C261.096 214.977 261.181 215.038 261.284 215.077C261.387 215.115 261.495 215.14 261.608 215.153C261.722 215.164 261.825 215.17 261.92 215.17L262.439 215.176C262.572 215.176 262.72 215.187 262.883 215.207C263.048 215.226 263.205 215.271 263.354 215.341C263.506 215.409 263.63 215.515 263.729 215.659C263.827 215.803 263.876 215.999 263.876 216.247C263.876 216.533 263.803 216.811 263.659 217.08C263.516 217.349 263.306 217.588 263.03 217.798C262.756 218.008 262.422 218.165 262.03 218.27C261.664 218.368 261.347 218.392 261.08 218.342C260.814 218.291 260.604 218.176 260.451 217.999C260.3 217.821 260.214 217.59 260.194 217.306L260.833 217.135C260.849 217.33 260.914 217.478 261.027 217.579C261.142 217.677 261.287 217.735 261.461 217.751C261.638 217.766 261.827 217.746 262.03 217.692C262.266 217.629 262.478 217.532 262.666 217.403C262.854 217.272 263.003 217.12 263.112 216.947C263.222 216.773 263.277 216.59 263.277 216.397C263.277 216.222 263.23 216.091 263.135 216.007C263.04 215.922 262.915 215.866 262.761 215.838C262.606 215.811 262.439 215.796 262.259 215.792L261.631 215.774C261.232 215.763 260.916 215.678 260.683 215.52C260.45 215.362 260.334 215.105 260.334 214.748C260.334 214.452 260.411 214.173 260.566 213.911C260.722 213.648 260.932 213.419 261.194 213.227C261.459 213.032 261.754 212.891 262.08 212.803C262.409 212.715 262.702 212.698 262.958 212.752C263.214 212.803 263.417 212.914 263.566 213.084C263.718 213.254 263.798 213.471 263.806 213.735L263.207 213.896ZM266.068 217.178C265.699 217.277 265.38 217.278 265.113 217.181C264.847 217.082 264.641 216.899 264.497 216.633C264.354 216.365 264.282 216.028 264.282 215.622C264.282 215.216 264.354 214.838 264.497 214.49C264.641 214.14 264.843 213.843 265.1 213.6C265.36 213.355 265.662 213.186 266.008 213.094C266.208 213.04 266.405 213.022 266.599 213.038C266.794 213.055 266.971 213.12 267.131 213.232C267.29 213.342 267.417 213.511 267.512 213.739C267.607 213.967 267.654 214.266 267.654 214.636V214.894L264.701 215.685V215.158L267.056 214.527C267.056 214.304 267.012 214.116 266.926 213.963C266.841 213.81 266.72 213.704 266.562 213.645C266.406 213.585 266.221 213.584 266.008 213.641C265.774 213.704 265.571 213.818 265.4 213.985C265.23 214.149 265.099 214.339 265.008 214.555C264.917 214.77 264.871 214.987 264.871 215.206V215.557C264.871 215.857 264.921 216.097 265.02 216.279C265.122 216.458 265.262 216.578 265.442 216.638C265.622 216.697 265.83 216.694 266.068 216.631C266.223 216.589 266.362 216.529 266.487 216.451C266.613 216.371 266.722 216.273 266.814 216.157C266.905 216.04 266.976 215.905 267.026 215.754L267.594 215.767C267.535 215.983 267.434 216.185 267.293 216.375C267.151 216.562 266.977 216.726 266.769 216.866C266.561 217.005 266.327 217.109 266.068 217.178ZM268.199 218.012V212.558L268.767 212.406V213.036L268.837 213.017C268.88 212.937 268.94 212.833 269.017 212.706C269.095 212.576 269.206 212.45 269.351 212.327C269.497 212.202 269.695 212.106 269.945 212.039C270.267 211.952 270.551 211.96 270.798 212.061C271.044 212.162 271.236 212.347 271.374 212.616C271.512 212.886 271.581 213.229 271.581 213.646C271.581 214.066 271.512 214.448 271.374 214.793C271.236 215.137 271.044 215.425 270.8 215.66C270.556 215.892 270.274 216.051 269.954 216.137C269.708 216.203 269.511 216.213 269.363 216.169C269.215 216.122 269.101 216.055 269.022 215.968C268.942 215.88 268.88 215.805 268.837 215.744L268.787 215.757V217.854L268.199 218.012ZM268.777 214.386C268.777 214.686 268.82 214.939 268.904 215.145C268.989 215.35 269.113 215.495 269.276 215.58C269.439 215.664 269.639 215.674 269.875 215.611C270.121 215.545 270.326 215.423 270.491 215.244C270.657 215.064 270.782 214.848 270.865 214.597C270.95 214.343 270.992 214.075 270.992 213.793C270.992 213.514 270.951 213.274 270.867 213.072C270.786 212.869 270.662 212.724 270.496 212.637C270.331 212.549 270.124 212.538 269.875 212.605C269.635 212.669 269.434 212.786 269.271 212.955C269.108 213.123 268.985 213.33 268.902 213.576C268.819 213.82 268.777 214.09 268.777 214.386ZM273.794 211.059V211.576L271.808 212.108V211.591L273.794 211.059ZM272.387 210.486L272.975 210.328V214.108C272.975 214.281 273 214.403 273.048 214.476C273.098 214.547 273.161 214.587 273.237 214.596C273.316 214.603 273.398 214.594 273.484 214.571C273.549 214.554 273.602 214.536 273.644 214.518C273.686 214.498 273.719 214.483 273.744 214.471L273.863 214.986C273.824 215.012 273.768 215.043 273.696 215.077C273.625 215.114 273.534 215.147 273.424 215.176C273.258 215.221 273.095 215.227 272.936 215.196C272.778 215.164 272.646 215.087 272.541 214.963C272.438 214.839 272.387 214.662 272.387 214.431V210.486Z" fill="#A3ADC8"/>
<rect width="26.8172" height="11.6344" transform="matrix(0.965926 -0.258819 0 1 213.438 128.941)" fill="white"/>
<path d="M216.61 135.427V134.665L218.777 130.539L219.391 130.375V131.459L219.017 131.56L217.558 134.344V134.386L220.583 133.575V134.363L216.61 135.427ZM219.047 135.755V134.542L219.057 134.198V130.464L219.93 130.231V135.519L219.047 135.755ZM222.899 134.795C222.655 134.859 222.416 134.879 222.184 134.856C221.951 134.83 221.741 134.744 221.555 134.598C221.369 134.45 221.221 134.227 221.111 133.929C221.001 133.63 220.947 133.237 220.949 132.751C220.949 132.299 220.995 131.882 221.089 131.503C221.182 131.123 221.316 130.788 221.49 130.497C221.665 130.204 221.875 129.96 222.121 129.765C222.369 129.569 222.646 129.43 222.952 129.348C223.273 129.262 223.557 129.252 223.805 129.316C224.054 129.38 224.255 129.505 224.408 129.691C224.561 129.876 224.656 130.105 224.693 130.38L223.782 130.624C223.736 130.433 223.64 130.297 223.495 130.215C223.352 130.131 223.171 130.119 222.952 130.177C222.598 130.272 222.325 130.505 222.134 130.874C221.944 131.243 221.848 131.706 221.847 132.263L221.882 132.253C221.963 132.08 222.069 131.922 222.199 131.779C222.328 131.635 222.475 131.513 222.637 131.411C222.802 131.306 222.976 131.23 223.159 131.181C223.458 131.1 223.727 131.102 223.964 131.187C224.204 131.271 224.393 131.424 224.533 131.646C224.673 131.867 224.742 132.145 224.74 132.479C224.742 132.826 224.665 133.159 224.511 133.478C224.356 133.795 224.141 134.069 223.865 134.302C223.589 134.534 223.267 134.699 222.899 134.795ZM222.894 134.022C223.076 133.974 223.238 133.884 223.381 133.755C223.524 133.625 223.637 133.472 223.72 133.295C223.803 133.118 223.844 132.933 223.842 132.74C223.844 132.551 223.804 132.39 223.722 132.259C223.643 132.127 223.532 132.035 223.391 131.983C223.249 131.932 223.088 131.93 222.907 131.979C222.772 132.015 222.647 132.075 222.53 132.16C222.414 132.244 222.312 132.346 222.226 132.463C222.139 132.58 222.071 132.706 222.021 132.844C221.973 132.979 221.948 133.116 221.947 133.256C221.948 133.44 221.99 133.598 222.071 133.731C222.153 133.864 222.265 133.958 222.408 134.013C222.551 134.068 222.713 134.071 222.894 134.022ZM227.536 131.157V133.481L226.633 133.723V128.434L227.516 128.198V130.194L227.561 130.182C227.651 129.934 227.789 129.72 227.977 129.541C228.167 129.359 228.408 129.229 228.701 129.151C228.967 129.079 229.199 129.075 229.397 129.137C229.594 129.2 229.747 129.327 229.856 129.52C229.965 129.713 230.02 129.97 230.02 130.29V132.815L229.117 133.057V130.676C229.117 130.409 229.051 130.22 228.918 130.107C228.786 129.993 228.602 129.967 228.364 130.031C228.204 130.074 228.061 130.148 227.935 130.255C227.81 130.359 227.712 130.487 227.641 130.641C227.571 130.794 227.536 130.966 227.536 131.157ZM230.589 132.663V128.696L231.465 128.462V129.123L231.505 129.112C231.575 128.864 231.694 128.656 231.864 128.487C232.035 128.315 232.231 128.2 232.45 128.141C232.5 128.128 232.556 128.115 232.617 128.104C232.68 128.09 232.733 128.082 232.774 128.08V128.94C232.736 128.936 232.675 128.94 232.592 128.952C232.511 128.962 232.432 128.977 232.355 128.998C232.191 129.042 232.043 129.119 231.911 129.228C231.782 129.335 231.679 129.463 231.604 129.612C231.53 129.761 231.492 129.92 231.492 130.089V132.421L230.589 132.663ZM236.051 128.281L235.228 128.595C235.205 128.515 235.164 128.445 235.106 128.385C235.049 128.324 234.973 128.284 234.876 128.263C234.78 128.242 234.662 128.251 234.522 128.288C234.334 128.338 234.176 128.423 234.048 128.542C233.922 128.66 233.859 128.786 233.861 128.92C233.859 129.036 233.9 129.118 233.983 129.168C234.068 129.218 234.208 129.24 234.402 129.234L235.056 129.204C235.418 129.188 235.688 129.244 235.864 129.372C236.042 129.5 236.132 129.706 236.133 129.989C236.132 130.239 236.061 130.479 235.921 130.707C235.783 130.934 235.591 131.133 235.345 131.306C235.099 131.478 234.816 131.607 234.497 131.693C234.028 131.819 233.651 131.818 233.365 131.692C233.079 131.564 232.908 131.324 232.853 130.974L233.734 130.65C233.774 130.819 233.858 130.931 233.988 130.988C234.118 131.044 234.287 131.044 234.495 130.989C234.709 130.931 234.881 130.84 235.011 130.714C235.142 130.587 235.208 130.457 235.208 130.322C235.208 130.209 235.165 130.126 235.081 130.075C234.998 130.023 234.868 130.001 234.692 130.009L234.038 130.042C233.671 130.061 233.399 130.001 233.222 129.86C233.046 129.718 232.959 129.502 232.961 129.213C232.959 128.969 233.023 128.74 233.153 128.526C233.284 128.31 233.466 128.122 233.699 127.961C233.933 127.799 234.204 127.676 234.509 127.594C234.958 127.474 235.312 127.478 235.57 127.607C235.829 127.736 235.989 127.96 236.051 128.281Z" fill="black"/>
<path d="M203.605 163.57L91.928 193.494V248.03L288.592 195.334V140.798L251.015 150.867L227.135 139.814L203.605 163.57Z" fill="url(#paint0_linear_8117_16676)"/>
<circle cx="2.9086" cy="2.9086" r="2.9086" transform="matrix(0.965926 -0.258819 0 1 108.785 186.069)" fill="#9B8AFB"/>
<circle cx="1.4543" cy="1.4543" r="1.4543" transform="matrix(0.965926 -0.258819 0 1 110.19 187.147)" fill="#ECE4FF"/>
<circle cx="2.9086" cy="2.9086" r="2.9086" transform="matrix(0.965926 -0.258819 0 1 145.308 176.282)" fill="#9B8AFB"/>
<circle cx="1.4543" cy="1.4543" r="1.4543" transform="matrix(0.965926 -0.258819 0 1 146.713 177.36)" fill="#ECE4FF"/>
<circle cx="2.9086" cy="2.9086" r="2.9086" transform="matrix(0.965926 -0.258819 0 1 186.046 165.367)" fill="#9B8AFB"/>
<circle cx="1.4543" cy="1.4543" r="1.4543" transform="matrix(0.965926 -0.258819 0 1 187.451 166.445)" fill="#ECE4FF"/>
<circle cx="2.9086" cy="2.9086" r="2.9086" transform="matrix(0.965926 -0.258819 0 1 223.974 138.479)" fill="#9B8AFB"/>
<circle cx="1.4543" cy="1.4543" r="1.4543" transform="matrix(0.965926 -0.258819 0 1 225.379 139.557)" fill="#ECE4FF"/>
<circle cx="2.9086" cy="2.9086" r="2.9086" transform="matrix(0.965926 -0.258819 0 1 264.009 144.477)" fill="#9B8AFB"/>
<circle cx="1.4543" cy="1.4543" r="1.4543" transform="matrix(0.965926 -0.258819 0 1 265.414 145.554)" fill="#ECE4FF"/>
</g>
<defs>
<filter id="filter0_dddd_8117_16676" x="-166.375" y="-1.30015" width="495.898" height="513.495" filterUnits="userSpaceOnUse" color-interpolation-filters="sRGB">
<feFlood flood-opacity="0" result="BackgroundImageFix"/>
<feColorMatrix in="SourceAlpha" type="matrix" values="0 0 0 0 0 0 0 0 0 0 0 0 0 0 0 0 0 0 127 0" result="hardAlpha"/>
<feOffset dx="-8.68473" dy="8.68473"/>
<feGaussianBlur stdDeviation="13.5699"/>
<feColorMatrix type="matrix" values="0 0 0 0 0.760784 0 0 0 0 0.831373 0 0 0 0 1 0 0 0 0.1 0"/>
<feBlend mode="normal" in2="BackgroundImageFix" result="effect1_dropShadow_8117_16676"/>
<feColorMatrix in="SourceAlpha" type="matrix" values="0 0 0 0 0 0 0 0 0 0 0 0 0 0 0 0 0 0 127 0" result="hardAlpha"/>
<feOffset dx="-34.7389" dy="34.7389"/>
<feGaussianBlur stdDeviation="24.9686"/>
<feColorMatrix type="matrix" values="0 0 0 0 0.760784 0 0 0 0 0.831373 0 0 0 0 1 0 0 0 0.09 0"/>
<feBlend mode="normal" in2="effect1_dropShadow_8117_16676" result="effect2_dropShadow_8117_16676"/>
<feColorMatrix in="SourceAlpha" type="matrix" values="0 0 0 0 0 0 0 0 0 0 0 0 0 0 0 0 0 0 127 0" result="hardAlpha"/>
<feOffset dx="-79.2482" dy="79.2482"/>
<feGaussianBlur stdDeviation="33.6533"/>
<feColorMatrix type="matrix" values="0 0 0 0 0.760784 0 0 0 0 0.831373 0 0 0 0 1 0 0 0 0.05 0"/>
<feBlend mode="normal" in2="effect2_dropShadow_8117_16676" result="effect3_dropShadow_8117_16676"/>
<feColorMatrix in="SourceAlpha" type="matrix" values="0 0 0 0 0 0 0 0 0 0 0 0 0 0 0 0 0 0 127 0" result="hardAlpha"/>
<feOffset dx="-141.127" dy="141.127"/>
<feGaussianBlur stdDeviation="39.6241"/>
<feColorMatrix type="matrix" values="0 0 0 0 0.760784 0 0 0 0 0.831373 0 0 0 0 1 0 0 0 0.01 0"/>
<feBlend mode="normal" in2="effect3_dropShadow_8117_16676" result="effect4_dropShadow_8117_16676"/>
<feBlend mode="normal" in="SourceGraphic" in2="effect4_dropShadow_8117_16676" result="shape"/>
</filter>
<linearGradient id="paint0_linear_8117_16676" x1="190.26" y1="149.695" x2="208.257" y2="216.86" gradientUnits="userSpaceOnUse">
<stop stop-color="#B9ACFF"/>
<stop offset="1" stop-color="white" stop-opacity="0"/>
</linearGradient>
</defs>
</svg>
