<svg width="363" height="509" viewBox="0 0 363 509" fill="none" xmlns="http://www.w3.org/2000/svg">
<g filter="url(#filter0_dddd_8117_13323)">
<path d="M96 90.9148C96 87.8001 98.4389 84.6217 101.447 83.8156L338.409 20.3221C341.417 19.5159 343.856 21.3873 343.856 24.502V211.632C343.856 214.746 341.417 217.925 338.409 218.731L101.447 282.224C98.4389 283.031 96 281.159 96 278.044L96 90.9148Z" fill="#FEFEFE"/>
<path d="M108.966 101.214L107.02 94.597L108.364 94.2371L109.606 99.1499L109.67 99.1328L110.997 93.5316L112.219 93.2042L113.549 98.097L113.609 98.0808L114.851 92.4987L116.195 92.1387L114.249 99.7986L113.017 100.129L111.636 95.4899L111.582 95.5043L110.199 100.884L108.966 101.214ZM118.735 98.701C118.23 98.8364 117.792 98.8386 117.422 98.7078C117.052 98.577 116.764 98.3321 116.56 97.9733C116.358 97.6138 116.257 97.1575 116.257 96.6045C116.257 96.0514 116.358 95.5399 116.56 95.0698C116.764 94.5991 117.052 94.1992 117.422 93.8699C117.792 93.5406 118.23 93.3083 118.735 93.173C119.24 93.0377 119.678 93.0354 120.048 93.1662C120.418 93.297 120.705 93.5433 120.907 93.9052C121.111 94.2664 121.213 94.7235 121.213 95.2765C121.213 95.8296 121.111 96.3403 120.907 96.8086C120.705 97.2764 120.418 97.6749 120.048 98.0041C119.678 98.3334 119.24 98.5657 118.735 98.701ZM118.742 97.6884C119.016 97.6151 119.245 97.4759 119.429 97.2709C119.613 97.0635 119.75 96.8154 119.839 96.5264C119.931 96.2369 119.977 95.9294 119.977 95.6041C119.977 95.2765 119.931 94.9925 119.839 94.7523C119.75 94.5091 119.613 94.3332 119.429 94.2245C119.245 94.1158 119.016 94.0982 118.742 94.1715C118.461 94.2467 118.228 94.3883 118.042 94.5962C117.857 94.8035 117.719 95.0531 117.627 95.345C117.538 95.634 117.493 95.9423 117.493 96.2699C117.493 96.5952 117.538 96.8783 117.627 97.1191C117.719 97.3594 117.857 97.5338 118.042 97.6425C118.228 97.7483 118.461 97.7636 118.742 97.6884ZM122.247 97.6553V92.3015L123.429 91.9849V92.8772L123.483 92.8628C123.577 92.5285 123.739 92.247 123.968 92.0183C124.199 91.7868 124.463 91.6313 124.759 91.5519C124.826 91.5338 124.902 91.5172 124.985 91.5019C125.07 91.4837 125.141 91.4729 125.197 91.4695V92.6301C125.145 92.6254 125.063 92.6311 124.951 92.6472C124.841 92.6604 124.734 92.6808 124.631 92.7085C124.409 92.768 124.209 92.8715 124.032 93.019C123.857 93.1635 123.719 93.3364 123.618 93.5377C123.517 93.7391 123.466 93.9536 123.466 94.1813V97.3288L122.247 97.6553ZM127.117 94.6704L127.114 93.1481L127.309 93.0958L129.168 90.4472L130.592 90.0656L128.306 93.3132L128.053 93.3809L127.117 94.6704ZM126.006 96.6481V89.5097L127.225 89.1832V96.3215L126.006 96.6481ZM129.252 95.7785L127.569 93.7931L128.39 92.6842L130.71 95.3878L129.252 95.7785ZM131.404 95.2018V89.848L132.623 89.5214V94.8752L131.404 95.2018ZM132.017 88.924C131.824 88.9757 131.658 88.954 131.519 88.8588C131.38 88.7613 131.31 88.6185 131.31 88.4302C131.31 88.2397 131.38 88.0596 131.519 87.8898C131.658 87.7178 131.824 87.6059 132.017 87.5541C132.212 87.5018 132.378 87.5247 132.515 87.6228C132.654 87.718 132.724 87.8608 132.724 88.0514C132.724 88.2396 132.654 88.4197 132.515 88.5918C132.378 88.7609 132.212 88.8716 132.017 88.924ZM135.095 91.0758V94.2128L133.876 94.5394V89.1856L135.041 88.8735V89.7832L135.102 89.767C135.221 89.4353 135.41 89.1463 135.671 88.9C135.933 88.653 136.258 88.4778 136.644 88.3744C137.001 88.2787 137.312 88.2744 137.576 88.3615C137.843 88.4479 138.05 88.6215 138.196 88.8821C138.344 89.1422 138.417 89.4863 138.415 89.9145V93.3233L137.196 93.6499V90.4362C137.196 90.0784 137.106 89.8224 136.927 89.6684C136.749 89.5137 136.503 89.4785 136.189 89.5627C135.976 89.6199 135.786 89.7195 135.62 89.8616C135.456 90.0007 135.327 90.1736 135.233 90.3801C135.141 90.586 135.095 90.8179 135.095 91.0758ZM141.903 94.5079C141.465 94.6252 141.089 94.6644 140.775 94.6254C140.461 94.5888 140.208 94.4938 140.017 94.3404C139.826 94.1871 139.694 93.996 139.62 93.7672L140.718 93.1977C140.767 93.2891 140.839 93.3732 140.933 93.4502C141.027 93.5295 141.154 93.5815 141.313 93.6062C141.475 93.6326 141.678 93.613 141.923 93.5475C142.269 93.4549 142.555 93.2911 142.781 93.056C143.008 92.8233 143.121 92.5095 143.121 92.1145V91.1002L143.061 91.1164C142.998 91.2634 142.906 91.4216 142.785 91.5912C142.666 91.7602 142.508 91.9176 142.31 92.0635C142.115 92.2087 141.869 92.3211 141.573 92.4005C141.175 92.5069 140.815 92.507 140.492 92.4007C140.171 92.2916 139.915 92.0697 139.724 91.735C139.536 91.3975 139.442 90.9371 139.442 90.3539C139.442 89.766 139.536 89.2446 139.724 88.7898C139.915 88.332 140.172 87.9552 140.495 87.6595C140.819 87.3615 141.179 87.1592 141.576 87.0527C141.879 86.9716 142.128 86.9582 142.324 87.0128C142.521 87.0645 142.678 87.149 142.795 87.2664C142.912 87.3816 143 87.4961 143.061 87.6099L143.128 87.5919V86.7066L144.33 86.3845V91.8254C144.33 92.2832 144.225 92.6902 144.014 93.0465C143.803 93.4028 143.514 93.7043 143.148 93.9511C142.783 94.1978 142.367 94.3835 141.903 94.5079ZM141.913 91.3195C142.171 91.2503 142.391 91.1263 142.573 90.9475C142.754 90.7686 142.892 90.5446 142.987 90.2753C143.081 90.0061 143.128 89.7007 143.128 89.3591C143.128 89.0221 143.081 88.7397 142.987 88.5116C142.895 88.283 142.758 88.1233 142.576 88.0326C142.396 87.939 142.175 87.9274 141.913 87.9977C141.641 88.0705 141.414 88.2044 141.233 88.3996C141.051 88.5947 140.914 88.8324 140.822 89.1126C140.73 89.3906 140.684 89.691 140.684 90.014C140.684 90.3417 140.73 90.6163 140.822 90.838C140.916 91.0567 141.054 91.2102 141.236 91.2986C141.42 91.3841 141.646 91.391 141.913 91.3195ZM147.985 90.7591V83.6207L149.234 83.286V89.3404L152.271 88.5266V89.6106L147.985 90.7591ZM155.59 88.8257C155.072 88.9646 154.624 88.9731 154.247 88.8511C153.872 88.7261 153.584 88.485 153.382 88.1279C153.18 87.7684 153.079 87.3086 153.079 86.7486C153.079 86.1979 153.18 85.6875 153.382 85.2174C153.586 84.7444 153.871 84.3427 154.237 84.0123C154.603 83.6796 155.033 83.4471 155.526 83.3148C155.845 83.2294 156.146 83.2023 156.429 83.2334C156.714 83.2615 156.965 83.3568 157.183 83.5193C157.403 83.6811 157.576 83.9159 157.701 84.2238C157.827 84.5294 157.89 84.9169 157.89 85.3863V85.7732L153.651 86.909V86.0585L156.722 85.2357C156.719 84.9947 156.669 84.7933 156.57 84.6315C156.471 84.4674 156.333 84.3545 156.156 84.2928C155.981 84.2305 155.777 84.2307 155.543 84.2932C155.294 84.36 155.075 84.4813 154.887 84.6573C154.698 84.831 154.551 85.0331 154.446 85.2635C154.342 85.491 154.29 85.7247 154.287 85.9647V86.7071C154.287 87.0185 154.342 87.2709 154.452 87.4646C154.562 87.6558 154.716 87.7843 154.914 87.8498C155.111 87.9131 155.342 87.9093 155.607 87.8383C155.784 87.7908 155.945 87.7222 156.089 87.6326C156.232 87.5407 156.357 87.4294 156.462 87.2989C156.568 87.1684 156.647 87.0204 156.701 86.855L157.839 86.6825C157.767 87.0131 157.631 87.3217 157.429 87.6082C157.229 87.8917 156.973 88.1392 156.661 88.3506C156.349 88.5597 155.992 88.7181 155.59 88.8257ZM163.392 81.2769L161.55 87.1242L160.204 87.485L158.362 82.6247L159.662 82.2765L160.85 85.935L160.904 85.9206L162.096 81.6242L163.392 81.2769ZM166.349 85.943C165.83 86.0819 165.383 86.0904 165.005 85.9683C164.631 85.8434 164.342 85.6023 164.14 85.2451C163.938 84.8856 163.837 84.4259 163.837 83.8659C163.837 83.3152 163.938 82.8048 164.14 82.3347C164.344 81.8617 164.629 81.46 164.995 81.1296C165.361 80.7969 165.791 80.5644 166.285 80.4321C166.604 80.3467 166.904 80.3195 167.187 80.3506C167.472 80.3788 167.724 80.4741 167.941 80.6365C168.161 80.7983 168.334 81.0332 168.46 81.3411C168.585 81.6467 168.648 82.0342 168.648 82.5035V82.8904L164.41 84.0262V83.1757L167.48 82.353C167.478 82.1119 167.427 81.9105 167.329 81.7488C167.23 81.5847 167.092 81.4718 166.914 81.4101C166.739 81.3478 166.535 81.3479 166.302 81.4105C166.053 81.4772 165.834 81.5986 165.645 81.7746C165.457 81.9483 165.31 82.1503 165.204 82.3808C165.101 82.6083 165.048 82.842 165.046 83.0819V83.8243C165.046 84.1357 165.101 84.3882 165.211 84.5818C165.321 84.7731 165.475 84.9015 165.672 84.9671C165.87 85.0304 166.101 85.0265 166.366 84.9556C166.543 84.908 166.703 84.8395 166.847 84.7499C166.991 84.6579 167.115 84.5467 167.221 84.4162C167.326 84.2857 167.406 84.1377 167.46 83.9722L168.598 83.7998C168.526 84.1304 168.389 84.4389 168.187 84.7254C167.987 85.009 167.731 85.2565 167.419 85.4679C167.107 85.677 166.751 85.8353 166.349 85.943ZM170.898 77.481V84.6194L169.679 84.946V77.8076L170.898 77.481Z" fill="#101828"/>
<path d="M107.043 109.013L107.863 108.793L109.502 111.21L109.571 111.192L111.21 107.896L112.03 107.677L109.894 111.846V114.368L109.178 114.559V112.038L107.043 109.013ZM114.037 113.353C113.637 113.46 113.285 113.456 112.983 113.34C112.683 113.223 112.449 113.01 112.279 112.701C112.112 112.391 112.028 111.999 112.028 111.525C112.028 111.047 112.112 110.607 112.279 110.206C112.449 109.804 112.683 109.464 112.983 109.187C113.285 108.909 113.637 108.716 114.037 108.609C114.437 108.502 114.787 108.506 115.087 108.623C115.389 108.739 115.624 108.953 115.791 109.265C115.961 109.576 116.045 109.971 116.045 110.449C116.045 110.923 115.961 111.36 115.791 111.76C115.624 112.159 115.389 112.498 115.087 112.776C114.787 113.054 114.437 113.246 114.037 113.353ZM114.037 112.72C114.341 112.638 114.591 112.491 114.787 112.277C114.983 112.063 115.129 111.812 115.223 111.524C115.317 111.235 115.364 110.938 115.364 110.631C115.364 110.325 115.317 110.051 115.223 109.812C115.129 109.572 114.983 109.397 114.787 109.286C114.591 109.175 114.341 109.161 114.037 109.242C113.733 109.324 113.483 109.472 113.286 109.688C113.09 109.904 112.945 110.157 112.851 110.447C112.756 110.738 112.709 111.036 112.709 111.343C112.709 111.649 112.756 111.922 112.851 112.159C112.945 112.397 113.09 112.57 113.286 112.679C113.483 112.788 113.733 112.801 114.037 112.72ZM119.878 109.816V107.103L120.559 106.921V111.51L119.878 111.692V110.916L119.832 110.928C119.728 111.189 119.567 111.43 119.347 111.652C119.128 111.872 118.851 112.027 118.516 112.117C118.239 112.191 117.993 112.195 117.777 112.127C117.562 112.057 117.393 111.911 117.27 111.689C117.146 111.465 117.085 111.158 117.085 110.768V107.852L117.766 107.669V110.537C117.766 110.872 117.856 111.115 118.037 111.265C118.22 111.416 118.453 111.453 118.736 111.377C118.905 111.332 119.077 111.241 119.252 111.104C119.429 110.967 119.577 110.79 119.697 110.573C119.818 110.355 119.878 110.103 119.878 109.816ZM121.807 111.176V106.587L122.465 106.41V107.103L122.511 107.091C122.592 106.842 122.738 106.619 122.95 106.421C123.161 106.223 123.4 106.088 123.665 106.017C123.715 106.004 123.778 105.988 123.853 105.97C123.928 105.952 123.985 105.939 124.023 105.933V106.65C124 106.65 123.947 106.655 123.864 106.666C123.784 106.673 123.698 106.689 123.607 106.714C123.392 106.771 123.2 106.87 123.03 107.009C122.863 107.145 122.73 107.308 122.632 107.498C122.536 107.685 122.488 107.882 122.488 108.089V110.993L121.807 111.176ZM130.256 105.351L129.644 105.694C129.605 105.598 129.549 105.511 129.474 105.432C129.401 105.35 129.3 105.293 129.173 105.261C129.047 105.229 128.884 105.24 128.686 105.293C128.415 105.366 128.188 105.491 128.008 105.669C127.829 105.844 127.739 106.031 127.739 106.228C127.739 106.403 127.801 106.525 127.924 106.594C128.047 106.662 128.239 106.695 128.501 106.693L129.159 106.684C129.555 106.677 129.851 106.751 130.045 106.904C130.239 107.055 130.336 107.291 130.336 107.611C130.336 107.874 130.263 108.129 130.117 108.375C129.973 108.621 129.771 108.838 129.511 109.028C129.251 109.217 128.949 109.357 128.605 109.45C128.153 109.571 127.779 109.569 127.482 109.446C127.186 109.322 126.999 109.075 126.92 108.706L127.566 108.366C127.628 108.596 127.744 108.75 127.915 108.828C128.088 108.905 128.314 108.906 128.593 108.831C128.911 108.746 129.163 108.609 129.35 108.42C129.538 108.228 129.632 108.033 129.632 107.836C129.632 107.677 129.578 107.558 129.471 107.479C129.363 107.398 129.198 107.361 128.974 107.367L128.236 107.386C127.83 107.395 127.531 107.32 127.341 107.162C127.152 107.002 127.058 106.763 127.058 106.446C127.058 106.187 127.128 105.939 127.269 105.703C127.411 105.465 127.605 105.257 127.849 105.078C128.095 104.899 128.374 104.767 128.686 104.684C129.124 104.566 129.469 104.573 129.719 104.706C129.971 104.837 130.15 105.052 130.256 105.351ZM133.289 103.51V104.107L130.992 104.723V104.125L133.289 103.51ZM131.662 102.847L132.343 102.664V107.038C132.343 107.237 132.371 107.379 132.427 107.464C132.484 107.546 132.557 107.592 132.646 107.602C132.736 107.61 132.831 107.6 132.932 107.573C133.007 107.553 133.068 107.533 133.116 107.512C133.164 107.489 133.203 107.471 133.232 107.457L133.37 108.053C133.324 108.084 133.26 108.119 133.177 108.159C133.094 108.201 132.989 108.239 132.862 108.273C132.67 108.325 132.481 108.332 132.297 108.296C132.114 108.259 131.962 108.17 131.841 108.027C131.721 107.884 131.662 107.679 131.662 107.412V102.847ZM136.067 107.45C135.667 107.557 135.316 107.553 135.014 107.437C134.714 107.32 134.479 107.107 134.31 106.798C134.142 106.488 134.058 106.096 134.058 105.622C134.058 105.144 134.142 104.704 134.31 104.303C134.479 103.901 134.714 103.561 135.014 103.284C135.316 103.006 135.667 102.813 136.067 102.706C136.467 102.599 136.817 102.603 137.117 102.72C137.419 102.836 137.654 103.05 137.822 103.362C137.991 103.673 138.075 104.068 138.075 104.546C138.075 105.02 137.991 105.457 137.822 105.857C137.654 106.256 137.419 106.595 137.117 106.873C136.817 107.151 136.467 107.343 136.067 107.45ZM136.067 106.817C136.371 106.735 136.621 106.588 136.817 106.374C137.014 106.16 137.159 105.909 137.253 105.621C137.347 105.333 137.394 105.035 137.394 104.728C137.394 104.422 137.347 104.148 137.253 103.909C137.159 103.669 137.014 103.494 136.817 103.383C136.621 103.272 136.371 103.258 136.067 103.339C135.763 103.421 135.513 103.569 135.317 103.785C135.12 104.001 134.975 104.254 134.881 104.544C134.787 104.835 134.739 105.133 134.739 105.44C134.739 105.746 134.787 106.019 134.881 106.256C134.975 106.494 135.12 106.667 135.317 106.776C135.513 106.885 135.763 106.898 136.067 106.817ZM139.115 106.538V101.949L139.773 101.773V102.466L139.819 102.453C139.9 102.205 140.046 101.981 140.258 101.783C140.469 101.585 140.708 101.45 140.974 101.379C141.024 101.366 141.086 101.35 141.161 101.332C141.236 101.314 141.293 101.302 141.331 101.295V102.012C141.308 102.013 141.255 102.018 141.173 102.028C141.092 102.036 141.006 102.052 140.916 102.076C140.7 102.134 140.508 102.232 140.339 102.371C140.171 102.507 140.039 102.67 139.94 102.86C139.844 103.047 139.796 103.244 139.796 103.451V106.355L139.115 106.538ZM142.712 107.295C142.597 107.326 142.494 107.343 142.403 107.348C142.313 107.354 142.251 107.353 142.216 107.344L142.389 106.676C142.554 106.676 142.701 106.653 142.828 106.607C142.955 106.561 143.067 106.472 143.165 106.34C143.265 106.21 143.357 106.017 143.439 105.762L143.566 105.369L141.927 101.195L142.666 100.997L143.89 104.326L143.936 104.314L145.159 100.329L145.898 100.131L144.017 105.894C143.932 106.153 143.827 106.378 143.702 106.567C143.577 106.757 143.432 106.913 143.266 107.033C143.103 107.152 142.918 107.24 142.712 107.295ZM149.083 105.588V99.2781L149.741 99.1018V99.8308L149.821 99.8091C149.871 99.716 149.941 99.5959 150.029 99.4487C150.12 99.299 150.249 99.1529 150.416 99.0105C150.585 98.8655 150.814 98.7544 151.103 98.6771C151.476 98.5771 151.805 98.5855 152.09 98.7024C152.374 98.8193 152.597 99.0336 152.756 99.3454C152.916 99.6571 152.996 100.054 152.996 100.536C152.996 101.022 152.916 101.465 152.756 101.864C152.597 102.261 152.375 102.595 152.093 102.866C151.81 103.135 151.484 103.319 151.114 103.418C150.83 103.495 150.602 103.507 150.43 103.455C150.259 103.401 150.127 103.324 150.035 103.223C149.943 103.121 149.871 103.034 149.821 102.964L149.764 102.979V105.405L149.083 105.588ZM149.752 101.393C149.752 101.74 149.801 102.032 149.899 102.271C149.997 102.508 150.141 102.675 150.329 102.774C150.518 102.871 150.749 102.883 151.022 102.81C151.307 102.733 151.544 102.592 151.735 102.386C151.927 102.177 152.071 101.927 152.168 101.636C152.266 101.343 152.315 101.033 152.315 100.707C152.315 100.384 152.267 100.106 152.17 99.8728C152.076 99.6372 151.933 99.4694 151.74 99.3696C151.55 99.2673 151.31 99.2548 151.022 99.3321C150.745 99.4063 150.512 99.5414 150.324 99.7373C150.135 99.9312 149.993 100.171 149.896 100.455C149.8 100.738 149.752 101.051 149.752 101.393ZM155.835 102.153C155.435 102.26 155.084 102.256 154.782 102.14C154.482 102.023 154.247 101.81 154.078 101.501C153.911 101.191 153.827 100.799 153.827 100.325C153.827 99.8472 153.911 99.4075 154.078 99.0062C154.247 98.6043 154.482 98.2645 154.782 97.9869C155.084 97.7088 155.435 97.5162 155.835 97.4089C156.236 97.3017 156.586 97.3065 156.886 97.4233C157.188 97.5395 157.423 97.7535 157.59 98.0651C157.759 98.3763 157.844 98.7709 157.844 99.2489C157.844 99.7229 157.759 100.16 157.59 100.56C157.423 100.959 157.188 101.298 156.886 101.576C156.586 101.854 156.236 102.046 155.835 102.153ZM155.835 101.52C156.139 101.438 156.39 101.291 156.586 101.077C156.782 100.863 156.927 100.612 157.022 100.324C157.116 100.036 157.163 99.7381 157.163 99.4314C157.163 99.1247 157.116 98.8515 157.022 98.6118C156.927 98.3722 156.782 98.197 156.586 98.0863C156.39 97.9755 156.139 97.9609 155.835 98.0423C155.531 98.1238 155.281 98.2724 155.085 98.4883C154.889 98.7042 154.744 98.9573 154.649 99.2474C154.555 99.5376 154.508 99.836 154.508 100.143C154.508 100.449 154.555 100.722 154.649 100.959C154.744 101.197 154.889 101.37 155.085 101.479C155.281 101.588 155.531 101.601 155.835 101.52ZM158.884 101.241V96.6519L159.565 96.4695V101.058L158.884 101.241ZM159.23 95.7943C159.097 95.8299 158.983 95.8138 158.886 95.7459C158.792 95.6776 158.745 95.5777 158.745 95.4462C158.745 95.3148 158.792 95.1896 158.886 95.0707C158.983 94.9513 159.097 94.8739 159.23 94.8383C159.363 94.8027 159.476 94.8191 159.57 94.8875C159.667 94.9553 159.715 95.055 159.715 95.1864C159.715 95.3179 159.667 95.4433 159.57 95.5627C159.476 95.6815 159.363 95.7588 159.23 95.7943ZM161.493 97.7812V100.542L160.812 100.724V96.1352L161.47 95.9589V96.6759L161.528 96.6605C161.632 96.3996 161.789 96.1701 162.001 95.972C162.213 95.7719 162.486 95.627 162.821 95.5373C163.121 95.4569 163.383 95.4502 163.608 95.5174C163.833 95.5826 164.009 95.7269 164.134 95.9503C164.259 96.1717 164.321 96.4776 164.321 96.868V99.7839L163.64 99.9664V97.0983C163.64 96.7378 163.55 96.4812 163.369 96.3285C163.188 96.1738 162.94 96.1387 162.624 96.2232C162.407 96.2815 162.213 96.3824 162.041 96.5258C161.872 96.6688 161.738 96.847 161.64 97.0605C161.542 97.2741 161.493 97.5143 161.493 97.7812ZM167.493 94.345V94.9425L165.196 95.558V94.9605L167.493 94.345ZM165.866 93.6816L166.547 93.4991V97.873C166.547 98.0722 166.575 98.2141 166.631 98.2987C166.688 98.3808 166.761 98.427 166.85 98.4371C166.94 98.4448 167.035 98.4352 167.136 98.4084C167.211 98.3883 167.272 98.3678 167.32 98.3469C167.368 98.3241 167.407 98.3058 167.436 98.2921L167.574 98.8884C167.528 98.9187 167.464 98.9539 167.381 98.994C167.298 99.036 167.193 99.0741 167.066 99.1081C166.874 99.1597 166.685 99.1674 166.501 99.1312C166.318 99.0945 166.166 99.0048 166.045 98.862C165.925 98.7187 165.866 98.5136 165.866 98.2467V93.6816ZM173.943 93.6445L173.331 93.9877C173.293 93.8924 173.236 93.8051 173.161 93.7256C173.088 93.6436 172.988 93.5867 172.861 93.555C172.734 93.5233 172.571 93.534 172.373 93.5871C172.102 93.6598 171.876 93.7851 171.695 93.963C171.516 94.1384 171.427 94.3247 171.427 94.5219C171.427 94.6972 171.488 94.8191 171.611 94.8877C171.735 94.9563 171.927 94.9894 172.189 94.987L172.847 94.978C173.243 94.9714 173.538 95.0446 173.732 95.1977C173.927 95.3488 174.024 95.5847 174.024 95.9054C174.024 96.1683 173.951 96.4229 173.805 96.6692C173.66 96.915 173.458 97.1325 173.199 97.3216C172.939 97.5107 172.637 97.6513 172.292 97.7436C171.84 97.8648 171.466 97.8634 171.17 97.7397C170.874 97.6159 170.686 97.3694 170.607 97.0001L171.254 96.6596C171.315 96.8901 171.432 97.0442 171.603 97.1218C171.776 97.1989 172.002 97.2 172.281 97.1253C172.598 97.0402 172.85 96.903 173.037 96.7136C173.226 96.5216 173.32 96.3271 173.32 96.1299C173.32 95.9705 173.266 95.8515 173.158 95.7729C173.05 95.6922 172.885 95.6548 172.662 95.6609L171.923 95.6796C171.517 95.6887 171.219 95.6143 171.028 95.4562C170.84 95.2956 170.746 95.0569 170.746 94.7403C170.746 94.4813 170.816 94.2335 170.956 93.9967C171.099 93.7593 171.292 93.5512 171.536 93.3722C171.783 93.1927 172.062 93.0612 172.373 92.9776C172.812 92.8601 173.156 92.8674 173.406 92.9996C173.658 93.1312 173.837 93.3462 173.943 93.6445ZM176.85 96.5225C176.45 96.6297 176.099 96.6252 175.797 96.5089C175.496 96.3922 175.262 96.1792 175.092 95.87C174.925 95.5603 174.841 95.1685 174.841 94.6945C174.841 94.2164 174.925 93.7767 175.092 93.3754C175.262 92.9735 175.496 92.6337 175.797 92.3562C176.099 92.078 176.45 91.8854 176.85 91.7781C177.25 91.6709 177.6 91.6757 177.9 91.7925C178.202 91.9087 178.437 92.1227 178.604 92.4343C178.774 92.7455 178.858 93.1401 178.858 93.6181C178.858 94.0921 178.774 94.5291 178.604 94.929C178.437 95.3284 178.202 95.6671 177.9 95.9452C177.6 96.2228 177.25 96.4152 176.85 96.5225ZM176.85 95.8891C177.154 95.8076 177.404 95.66 177.6 95.446C177.796 95.2321 177.942 94.9811 178.036 94.6929C178.13 94.4048 178.177 94.1073 178.177 93.8006C178.177 93.4939 178.13 93.2207 178.036 92.981C177.942 92.7414 177.796 92.5662 177.6 92.4555C177.404 92.3447 177.154 92.3301 176.85 92.4115C176.546 92.493 176.296 92.6416 176.1 92.8575C175.903 93.0734 175.758 93.3265 175.664 93.6166C175.57 93.9068 175.522 94.2052 175.522 94.512C175.522 94.8187 175.57 95.0909 175.664 95.3285C175.758 95.5662 175.903 95.7394 176.1 95.8481C176.296 95.9569 176.546 95.9705 176.85 95.8891ZM184.157 89.8798V90.4774L181.768 91.1176V90.5201L184.157 89.8798ZM182.484 94.9173V89.6949C182.484 89.432 182.543 89.197 182.663 88.9897C182.782 88.7825 182.937 88.6095 183.127 88.4709C183.318 88.3322 183.519 88.2345 183.73 88.1778C183.898 88.133 184.034 88.1103 184.14 88.1098C184.246 88.1094 184.325 88.1141 184.377 88.1241L184.181 88.7862C184.146 88.7835 184.098 88.7814 184.036 88.78C183.977 88.7781 183.898 88.7902 183.8 88.8165C183.575 88.8768 183.412 88.9792 183.312 89.1235C183.214 89.2673 183.165 89.4527 183.165 89.6798V94.7348L182.484 94.9173ZM186.289 94.0051C186.008 94.0804 185.754 94.0939 185.525 94.0457C185.296 93.9955 185.114 93.8839 184.979 93.7108C184.844 93.5358 184.777 93.2989 184.777 93.0001C184.777 92.7372 184.827 92.5107 184.927 92.3206C185.027 92.1285 185.161 91.9632 185.328 91.8247C185.496 91.6863 185.68 91.5671 185.882 91.4671C186.086 91.3647 186.291 91.2719 186.497 91.1889C186.766 91.0809 186.985 90.9955 187.152 90.9327C187.321 90.8674 187.445 90.8016 187.522 90.7351C187.6 90.6682 187.64 90.5779 187.64 90.4644V90.4405C187.64 90.1457 187.562 89.9376 187.406 89.816C187.252 89.6939 187.018 89.6749 186.705 89.7589C186.38 89.846 186.125 89.988 185.94 90.1849C185.755 90.3818 185.626 90.5739 185.551 90.7613L184.904 90.6955C185.02 90.3858 185.173 90.1274 185.366 89.9205C185.56 89.7111 185.772 89.5449 186.001 89.4218C186.232 89.2962 186.459 89.2035 186.682 89.1437C186.824 89.1055 186.988 89.0796 187.172 89.066C187.359 89.0499 187.539 89.0724 187.712 89.1335C187.887 89.1942 188.032 89.3176 188.148 89.5037C188.263 89.6899 188.321 89.9652 188.321 90.3297V93.3532L187.64 93.5357V92.9143L187.605 92.9235C187.559 93.0355 187.482 93.1627 187.374 93.3051C187.267 93.4475 187.123 93.5825 186.944 93.7101C186.765 93.8377 186.547 93.936 186.289 94.0051ZM186.393 93.3439C186.663 93.2717 186.89 93.1561 187.074 92.9971C187.261 92.8375 187.401 92.6585 187.496 92.46C187.592 92.2609 187.64 92.0658 187.64 91.8746V91.2292C187.611 91.2728 187.548 91.3227 187.449 91.3789C187.353 91.4325 187.242 91.4873 187.115 91.5433C186.99 91.5967 186.867 91.6473 186.748 91.6952C186.631 91.7406 186.536 91.7781 186.462 91.8076C186.285 91.879 186.12 91.9621 185.966 92.0572C185.814 92.1497 185.691 92.2613 185.597 92.3922C185.504 92.5205 185.458 92.6743 185.458 92.8535C185.458 93.0985 185.546 93.2603 185.721 93.3388C185.898 93.4149 186.122 93.4166 186.393 93.3439ZM189.564 93.0201V88.4312L190.222 88.2549V88.948L190.268 88.9356C190.349 88.6869 190.495 88.4635 190.707 88.2654C190.918 88.0672 191.157 87.9326 191.422 87.8615C191.472 87.8481 191.535 87.8323 191.61 87.8142C191.685 87.7961 191.742 87.7839 191.78 87.7775V88.4946C191.757 88.4948 191.704 88.5 191.622 88.5102C191.541 88.5179 191.455 88.5339 191.365 88.5581C191.149 88.6159 190.957 88.7142 190.788 88.8532C190.62 88.9897 190.487 89.1527 190.389 89.3423C190.293 89.5294 190.245 89.7265 190.245 89.9337V92.8376L189.564 93.0201Z" fill="#475467"/>
<path d="M106.835 126.6L333.021 65.9941" stroke="#EBEFFA" stroke-width="0.701091"/>
<path d="M132.569 242.396L322.863 191.407" stroke="#E2E6F0" stroke-width="0.701091" stroke-dasharray="2.8 2.8"/>
<path d="M132.569 164.575L322.863 113.586" stroke="#E2E6F0" stroke-width="0.701091" stroke-dasharray="2.8 2.8"/>
<path d="M132.569 215.053L322.863 164.064" stroke="#E2E6F0" stroke-width="0.701091" stroke-dasharray="2.8 2.8"/>
<path d="M132.569 189.814L322.863 138.825" stroke="#E2E6F0" stroke-width="0.701091" stroke-dasharray="2.8 2.8"/>
<path d="M132.569 139.336L322.863 88.3465" stroke="#E2E6F0" stroke-width="0.701091" stroke-dasharray="2.8 2.8"/>
<path d="M109.077 143.325V148.424L108.48 148.584V144.132L108.451 144.14L107.249 145.289V144.661L108.48 143.485L109.077 143.325ZM110.154 148.135V147.687L111.78 145.409C111.971 145.142 112.128 144.912 112.251 144.72C112.375 144.526 112.466 144.35 112.526 144.193C112.586 144.034 112.617 143.877 112.617 143.721C112.617 143.541 112.575 143.397 112.492 143.289C112.41 143.179 112.298 143.108 112.155 143.075C112.012 143.042 111.852 143.049 111.674 143.097C111.485 143.148 111.32 143.233 111.179 143.352C111.039 143.469 110.931 143.61 110.854 143.775C110.779 143.939 110.741 144.119 110.741 144.313L110.174 144.465C110.174 144.166 110.24 143.886 110.373 143.625C110.506 143.363 110.687 143.139 110.917 142.951C111.148 142.763 111.406 142.631 111.693 142.554C111.982 142.477 112.238 142.471 112.461 142.538C112.683 142.604 112.858 142.727 112.985 142.908C113.112 143.088 113.175 143.309 113.175 143.571C113.175 143.759 113.142 143.951 113.076 144.148C113.012 144.343 112.9 144.571 112.74 144.833C112.581 145.093 112.36 145.418 112.078 145.807L110.972 147.328V147.368L113.261 146.755V147.302L110.154 148.135ZM115.522 146.766C115.16 146.863 114.851 146.844 114.597 146.708C114.342 146.571 114.147 146.325 114.012 145.971C113.878 145.615 113.81 145.16 113.81 144.606C113.81 144.055 113.878 143.566 114.012 143.14C114.148 142.712 114.344 142.361 114.599 142.087C114.855 141.81 115.163 141.624 115.522 141.528C115.882 141.432 116.189 141.453 116.443 141.592C116.7 141.73 116.896 141.976 117.03 142.331C117.167 142.685 117.235 143.137 117.235 143.688C117.235 144.243 117.167 144.734 117.033 145.162C116.898 145.588 116.703 145.938 116.448 146.212C116.193 146.484 115.885 146.669 115.522 146.766ZM115.522 146.219C115.882 146.122 116.161 145.868 116.359 145.457C116.558 145.045 116.658 144.507 116.658 143.843C116.658 143.402 116.612 143.038 116.52 142.752C116.431 142.466 116.301 142.264 116.131 142.147C115.963 142.029 115.76 142.002 115.522 142.066C115.167 142.161 114.888 142.417 114.688 142.835C114.488 143.25 114.387 143.789 114.387 144.451C114.387 144.893 114.432 145.256 114.522 145.541C114.612 145.825 114.741 146.025 114.909 146.141C115.079 146.257 115.284 146.283 115.522 146.219Z" fill="#2D2D2D"/>
<path d="M109.077 168.151V173.25L108.48 173.41V168.958L108.451 168.966L107.249 170.115V169.487L108.48 168.311L109.077 168.151ZM111.886 167.398V172.497L111.289 172.657V168.205L111.261 168.213L110.058 169.362V168.735L111.289 167.558L111.886 167.398ZM114.57 171.848C114.208 171.945 113.899 171.925 113.644 171.789C113.389 171.652 113.195 171.406 113.06 171.052C112.925 170.697 112.858 170.242 112.858 169.687C112.858 169.136 112.925 168.648 113.06 168.222C113.196 167.793 113.392 167.442 113.647 167.168C113.903 166.892 114.211 166.706 114.57 166.609C114.929 166.513 115.236 166.535 115.491 166.674C115.748 166.811 115.943 167.057 116.078 167.413C116.214 167.766 116.282 168.219 116.282 168.77C116.282 169.324 116.215 169.815 116.08 170.243C115.946 170.669 115.751 171.019 115.496 171.293C115.241 171.566 114.932 171.751 114.57 171.848ZM114.57 171.3C114.929 171.204 115.208 170.95 115.407 170.538C115.606 170.126 115.705 169.588 115.705 168.924C115.705 168.483 115.66 168.119 115.568 167.833C115.478 167.547 115.348 167.345 115.179 167.228C115.01 167.111 114.807 167.084 114.57 167.147C114.214 167.243 113.936 167.499 113.736 167.916C113.535 168.332 113.435 168.87 113.435 169.533C113.435 169.974 113.48 170.337 113.57 170.622C113.659 170.907 113.789 171.107 113.957 171.223C114.127 171.338 114.331 171.364 114.57 171.3Z" fill="#2D2D2D"/>
<path d="M109.077 192.977V198.076L108.48 198.236V193.784L108.451 193.792L107.249 194.941V194.314L108.48 193.137L109.077 192.977ZM111.761 197.427C111.398 197.524 111.09 197.504 110.835 197.368C110.58 197.231 110.385 196.985 110.251 196.631C110.116 196.276 110.049 195.821 110.049 195.266C110.049 194.715 110.116 194.227 110.251 193.8C110.387 193.372 110.582 193.021 110.837 192.747C111.094 192.471 111.402 192.285 111.761 192.188C112.12 192.092 112.427 192.114 112.682 192.253C112.938 192.39 113.134 192.636 113.269 192.992C113.405 193.345 113.473 193.798 113.473 194.349C113.473 194.903 113.406 195.394 113.271 195.822C113.136 196.248 112.942 196.598 112.687 196.872C112.432 197.145 112.123 197.33 111.761 197.427ZM111.761 196.879C112.12 196.783 112.399 196.529 112.598 196.117C112.796 195.705 112.896 195.167 112.896 194.503C112.896 194.062 112.85 193.698 112.759 193.412C112.669 193.126 112.539 192.924 112.369 192.807C112.201 192.69 111.998 192.663 111.761 192.726C111.405 192.821 111.127 193.078 110.926 193.495C110.726 193.91 110.626 194.449 110.626 195.112C110.626 195.553 110.671 195.916 110.76 196.201C110.85 196.486 110.979 196.686 111.148 196.802C111.318 196.917 111.522 196.943 111.761 196.879ZM115.655 196.383C115.292 196.48 114.984 196.461 114.729 196.325C114.474 196.188 114.279 195.942 114.144 195.588C114.01 195.232 113.942 194.777 113.942 194.223C113.942 193.672 114.01 193.183 114.144 192.757C114.281 192.329 114.476 191.978 114.731 191.704C114.988 191.427 115.296 191.241 115.655 191.145C116.014 191.049 116.321 191.07 116.576 191.209C116.832 191.346 117.028 191.593 117.163 191.948C117.299 192.302 117.367 192.754 117.367 193.305C117.367 193.86 117.3 194.351 117.165 194.779C117.03 195.205 116.835 195.555 116.581 195.829C116.326 196.101 116.017 196.286 115.655 196.383ZM115.655 195.836C116.014 195.739 116.293 195.485 116.492 195.073C116.69 194.662 116.79 194.124 116.79 193.46C116.79 193.018 116.744 192.655 116.653 192.369C116.563 192.083 116.433 191.881 116.263 191.764C116.095 191.646 115.892 191.619 115.655 191.683C115.299 191.778 115.021 192.034 114.82 192.452C114.62 192.867 114.52 193.406 114.52 194.068C114.52 194.51 114.565 194.873 114.654 195.157C114.744 195.442 114.873 195.642 115.041 195.758C115.211 195.874 115.416 195.9 115.655 195.836Z" fill="#2D2D2D"/>
<path d="M108.913 217.778C109.115 217.725 109.317 217.711 109.519 217.735C109.721 217.759 109.905 217.839 110.072 217.975C110.239 218.109 110.373 218.318 110.474 218.602C110.575 218.885 110.625 219.261 110.625 219.729C110.625 220.182 110.584 220.596 110.5 220.97C110.418 221.342 110.3 221.669 110.144 221.951C109.99 222.233 109.803 222.466 109.582 222.65C109.362 222.833 109.113 222.962 108.836 223.036C108.56 223.11 108.314 223.12 108.098 223.065C107.883 223.008 107.707 222.897 107.569 222.731C107.432 222.564 107.345 222.35 107.307 222.092L107.893 221.935C107.946 222.155 108.051 222.32 108.208 222.43C108.367 222.539 108.576 222.558 108.836 222.489C109.216 222.387 109.516 222.135 109.735 221.732C109.957 221.33 110.067 220.814 110.067 220.187L110.029 220.197C109.939 220.361 109.832 220.51 109.709 220.644C109.586 220.778 109.448 220.893 109.298 220.988C109.147 221.083 108.987 221.154 108.817 221.199C108.535 221.275 108.276 221.272 108.04 221.191C107.806 221.107 107.618 220.958 107.477 220.742C107.338 220.523 107.268 220.25 107.268 219.921C107.268 219.609 107.335 219.306 107.47 219.011C107.606 218.714 107.797 218.455 108.042 218.235C108.289 218.014 108.58 217.862 108.913 217.778ZM108.913 218.325C108.711 218.379 108.529 218.48 108.367 218.628C108.207 218.774 108.079 218.948 107.985 219.149C107.892 219.348 107.845 219.554 107.845 219.767C107.845 219.979 107.89 220.16 107.98 220.311C108.071 220.459 108.196 220.563 108.353 220.624C108.511 220.683 108.692 220.685 108.894 220.631C109.046 220.59 109.188 220.521 109.319 220.425C109.451 220.326 109.565 220.21 109.663 220.076C109.763 219.94 109.84 219.795 109.897 219.643C109.953 219.488 109.981 219.335 109.981 219.184C109.981 218.985 109.934 218.811 109.841 218.662C109.75 218.512 109.623 218.405 109.461 218.34C109.301 218.275 109.118 218.27 108.913 218.325ZM112.839 221.964C112.476 222.061 112.168 222.042 111.913 221.906C111.658 221.768 111.463 221.523 111.329 221.169C111.194 220.813 111.127 220.358 111.127 219.804C111.127 219.253 111.194 218.764 111.329 218.338C111.465 217.91 111.66 217.558 111.915 217.284C112.172 217.008 112.48 216.822 112.839 216.726C113.198 216.629 113.505 216.651 113.76 216.79C114.016 216.927 114.212 217.174 114.347 217.529C114.483 217.883 114.551 218.335 114.551 218.886C114.551 219.44 114.484 219.931 114.349 220.359C114.214 220.785 114.02 221.136 113.765 221.41C113.51 221.682 113.201 221.867 112.839 221.964ZM112.839 221.416C113.198 221.32 113.477 221.066 113.676 220.654C113.874 220.242 113.974 219.705 113.974 219.041C113.974 218.599 113.928 218.235 113.837 217.95C113.747 217.663 113.617 217.462 113.447 217.344C113.279 217.227 113.076 217.2 112.839 217.263C112.483 217.359 112.205 217.615 112.004 218.032C111.804 218.448 111.704 218.987 111.704 219.649C111.704 220.09 111.749 220.454 111.838 220.738C111.928 221.023 112.057 221.223 112.226 221.339C112.395 221.454 112.6 221.48 112.839 221.416Z" fill="#2D2D2D"/>
<path d="M108.923 247.839C108.592 247.928 108.301 247.946 108.047 247.892C107.796 247.837 107.599 247.721 107.458 247.545C107.317 247.367 107.247 247.14 107.249 246.864C107.247 246.648 107.288 246.438 107.371 246.233C107.455 246.027 107.569 245.843 107.713 245.681C107.859 245.518 108.022 245.395 108.201 245.314V245.284C107.965 245.284 107.778 245.198 107.638 245.024C107.499 244.849 107.43 244.626 107.432 244.355C107.43 244.097 107.493 243.848 107.622 243.61C107.75 243.371 107.926 243.163 108.151 242.985C108.377 242.806 108.634 242.678 108.923 242.601C109.208 242.525 109.463 242.515 109.687 242.573C109.912 242.631 110.088 242.744 110.216 242.914C110.346 243.084 110.412 243.298 110.414 243.556C110.412 243.827 110.341 244.088 110.2 244.338C110.06 244.586 109.875 244.773 109.644 244.898V244.927C109.822 244.913 109.982 244.949 110.125 245.035C110.268 245.12 110.382 245.243 110.467 245.404C110.551 245.564 110.595 245.752 110.596 245.967C110.595 246.243 110.523 246.508 110.38 246.762C110.239 247.014 110.042 247.235 109.791 247.425C109.541 247.613 109.251 247.751 108.923 247.839ZM108.923 247.292C109.145 247.232 109.338 247.143 109.5 247.025C109.662 246.907 109.787 246.768 109.875 246.608C109.963 246.449 110.008 246.277 110.01 246.094C110.008 245.902 109.96 245.745 109.865 245.622C109.771 245.5 109.642 245.419 109.478 245.378C109.316 245.336 109.131 245.344 108.923 245.4C108.713 245.456 108.525 245.548 108.36 245.677C108.196 245.806 108.067 245.957 107.973 246.13C107.88 246.302 107.834 246.485 107.836 246.677C107.834 246.86 107.876 247.008 107.963 247.121C108.051 247.233 108.177 247.305 108.341 247.336C108.504 247.366 108.698 247.352 108.923 247.292ZM108.923 244.872C109.099 244.824 109.255 244.746 109.392 244.637C109.529 244.527 109.638 244.396 109.716 244.243C109.795 244.091 109.835 243.927 109.836 243.751C109.835 243.578 109.796 243.439 109.719 243.331C109.642 243.223 109.535 243.152 109.399 243.118C109.262 243.084 109.104 243.09 108.923 243.139C108.738 243.188 108.577 243.267 108.439 243.376C108.301 243.482 108.195 243.61 108.119 243.76C108.044 243.908 108.007 244.068 108.009 244.24C108.007 244.417 108.045 244.56 108.122 244.671C108.2 244.781 108.309 244.854 108.446 244.89C108.584 244.926 108.743 244.92 108.923 244.872ZM112.786 246.804C112.424 246.901 112.115 246.882 111.86 246.746C111.605 246.609 111.41 246.363 111.276 246.009C111.141 245.653 111.074 245.198 111.074 244.644C111.074 244.093 111.141 243.604 111.276 243.178C111.412 242.75 111.607 242.399 111.862 242.125C112.119 241.848 112.427 241.662 112.786 241.566C113.145 241.47 113.452 241.491 113.707 241.63C113.963 241.768 114.159 242.014 114.294 242.369C114.43 242.723 114.498 243.175 114.498 243.726C114.498 244.281 114.431 244.772 114.296 245.2C114.161 245.626 113.967 245.976 113.712 246.25C113.457 246.522 113.148 246.707 112.786 246.804ZM112.786 246.257C113.145 246.16 113.424 245.906 113.623 245.495C113.822 245.083 113.921 244.545 113.921 243.881C113.921 243.44 113.875 243.076 113.784 242.79C113.694 242.504 113.564 242.302 113.394 242.185C113.226 242.067 113.023 242.04 112.786 242.104C112.43 242.199 112.152 242.455 111.951 242.873C111.751 243.288 111.651 243.827 111.651 244.489C111.651 244.931 111.696 245.294 111.785 245.579C111.875 245.863 112.004 246.063 112.173 246.179C112.343 246.295 112.547 246.321 112.786 246.257Z" fill="#2D2D2D"/>
<rect width="14.0218" height="42.0655" rx="4.20655" transform="matrix(0.965926 -0.258819 0 1 145.436 198.285)" fill="#EAECF0"/>
<rect width="14.0218" height="56.0873" rx="4.20655" transform="matrix(0.965926 -0.258819 0 1 183.359 174.102)" fill="#EAECF0"/>
<rect width="14.0218" height="42.0655" rx="4.20655" transform="matrix(0.965926 -0.258819 0 1 219.928 178.325)" fill="#EAECF0"/>
<g filter="url(#filter1_dddd_8117_13323)">
<rect width="14.0218" height="85.5331" rx="4.20655" transform="matrix(0.965926 -0.258819 0 1 256.497 125.059)" fill="#7A5AF8"/>
</g>
<rect width="14.0218" height="75.0168" rx="4.20655" transform="matrix(0.965926 -0.258819 0 1 294.42 125.413)" fill="#EAECF0"/>
<path d="M145.339 250.563C145.311 250.318 145.193 250.154 144.988 250.07C144.783 249.985 144.531 249.983 144.233 250.063C144.015 250.121 143.824 250.209 143.661 250.326C143.499 250.442 143.372 250.576 143.281 250.729C143.191 250.881 143.146 251.038 143.146 251.201C143.146 251.337 143.177 251.445 143.24 251.526C143.304 251.605 143.386 251.664 143.485 251.702C143.585 251.739 143.689 251.763 143.798 251.775C143.907 251.786 144.007 251.791 144.098 251.792L144.599 251.797C144.727 251.798 144.87 251.808 145.027 251.827C145.185 251.846 145.337 251.889 145.481 251.957C145.627 252.022 145.747 252.124 145.842 252.263C145.937 252.402 145.984 252.591 145.984 252.83C145.984 253.106 145.914 253.373 145.775 253.633C145.637 253.893 145.435 254.123 145.169 254.326C144.904 254.528 144.583 254.68 144.204 254.781C143.852 254.875 143.546 254.898 143.288 254.85C143.032 254.801 142.83 254.69 142.682 254.519C142.536 254.347 142.454 254.125 142.434 253.851L143.05 253.686C143.066 253.874 143.129 254.017 143.238 254.114C143.348 254.209 143.488 254.264 143.656 254.281C143.826 254.295 144.009 254.276 144.204 254.223C144.432 254.162 144.636 254.069 144.818 253.944C144.999 253.818 145.142 253.672 145.248 253.505C145.354 253.338 145.407 253.161 145.407 252.975C145.407 252.806 145.361 252.68 145.27 252.598C145.178 252.517 145.058 252.463 144.909 252.436C144.76 252.41 144.599 252.395 144.426 252.391L143.82 252.374C143.435 252.363 143.13 252.281 142.906 252.129C142.681 251.977 142.569 251.729 142.569 251.385C142.569 251.1 142.644 250.831 142.793 250.578C142.943 250.324 143.145 250.104 143.399 249.918C143.654 249.73 143.938 249.594 144.252 249.51C144.57 249.425 144.852 249.408 145.099 249.46C145.346 249.51 145.541 249.617 145.686 249.781C145.832 249.944 145.909 250.153 145.917 250.408L145.339 250.563ZM146.549 255.497V250.239L147.097 250.092V250.7L147.165 250.681C147.206 250.604 147.264 250.504 147.338 250.381C147.413 250.256 147.52 250.135 147.66 250.016C147.801 249.895 147.992 249.803 148.232 249.738C148.543 249.655 148.817 249.662 149.055 249.759C149.292 249.857 149.477 250.035 149.61 250.295C149.743 250.555 149.81 250.886 149.81 251.287C149.81 251.692 149.743 252.061 149.61 252.394C149.477 252.725 149.293 253.003 149.057 253.229C148.821 253.453 148.55 253.607 148.242 253.689C148.005 253.753 147.815 253.763 147.672 253.72C147.529 253.675 147.419 253.611 147.342 253.527C147.266 253.441 147.206 253.369 147.165 253.311L147.116 253.323V255.345L146.549 255.497ZM147.107 252.002C147.107 252.29 147.148 252.534 147.229 252.733C147.311 252.93 147.431 253.07 147.588 253.152C147.745 253.233 147.937 253.243 148.165 253.182C148.402 253.118 148.6 253.001 148.759 252.829C148.919 252.654 149.039 252.446 149.12 252.204C149.201 251.96 149.242 251.702 149.242 251.429C149.242 251.16 149.202 250.929 149.122 250.735C149.044 250.538 148.924 250.398 148.764 250.315C148.605 250.23 148.405 250.22 148.165 250.284C147.934 250.346 147.74 250.458 147.583 250.622C147.426 250.783 147.307 250.983 147.227 251.22C147.147 251.456 147.107 251.716 147.107 252.002ZM150.337 253.048V249.224L150.885 249.077V249.655L150.924 249.644C150.991 249.437 151.113 249.251 151.289 249.086C151.466 248.921 151.664 248.808 151.886 248.749C151.927 248.738 151.979 248.725 152.042 248.71C152.105 248.695 152.152 248.685 152.184 248.679V249.277C152.165 249.277 152.121 249.281 152.052 249.29C151.984 249.296 151.913 249.31 151.838 249.33C151.658 249.378 151.498 249.46 151.357 249.576C151.217 249.689 151.107 249.825 151.025 249.983C150.945 250.139 150.905 250.303 150.905 250.476V252.896L150.337 253.048ZM152.518 252.464V248.64L153.086 248.487V252.312L152.518 252.464ZM152.807 247.925C152.696 247.954 152.601 247.941 152.52 247.885C152.442 247.828 152.403 247.744 152.403 247.635C152.403 247.525 152.442 247.421 152.52 247.322C152.601 247.222 152.696 247.158 152.807 247.128C152.917 247.099 153.012 247.112 153.09 247.169C153.171 247.226 153.211 247.309 153.211 247.418C153.211 247.528 153.171 247.632 153.09 247.732C153.012 247.831 152.917 247.895 152.807 247.925ZM154.354 249.671V251.972L153.786 252.124V248.3L154.335 248.153V248.75L154.383 248.737C154.469 248.52 154.601 248.329 154.777 248.164C154.954 247.997 155.181 247.876 155.46 247.801C155.71 247.734 155.929 247.729 156.117 247.785C156.304 247.839 156.45 247.959 156.554 248.146C156.659 248.33 156.711 248.585 156.711 248.91V251.34L156.143 251.492V249.102C156.143 248.802 156.068 248.588 155.917 248.461C155.766 248.332 155.56 248.303 155.297 248.373C155.116 248.422 154.954 248.506 154.811 248.625C154.67 248.744 154.558 248.893 154.477 249.071C154.395 249.249 154.354 249.449 154.354 249.671ZM159.016 246.898V247.396L157.101 247.909V247.411L159.016 246.898ZM157.659 246.346L158.227 246.194V249.839C158.227 250.004 158.25 250.123 158.297 250.193C158.345 250.262 158.406 250.3 158.479 250.309C158.555 250.315 158.634 250.307 158.717 250.285C158.78 250.268 158.831 250.251 158.871 250.233C158.911 250.214 158.944 250.199 158.968 250.188L159.083 250.685C159.045 250.71 158.991 250.739 158.922 250.773C158.853 250.808 158.766 250.839 158.66 250.868C158.499 250.911 158.342 250.917 158.188 250.887C158.036 250.856 157.909 250.782 157.808 250.663C157.709 250.543 157.659 250.372 157.659 250.15V246.346ZM162.819 244.605V249.704L162.222 249.863V245.412L162.193 245.42L160.991 246.568V245.941L162.222 244.765L162.819 244.605Z" fill="#A3ADC8"/>
<path d="M182.586 240.583C182.557 240.338 182.44 240.174 182.235 240.089C182.029 240.005 181.778 240.003 181.479 240.083C181.261 240.141 181.071 240.229 180.907 240.346C180.745 240.462 180.619 240.596 180.527 240.749C180.437 240.9 180.393 241.058 180.393 241.22C180.393 241.357 180.424 241.465 180.486 241.546C180.55 241.625 180.632 241.684 180.732 241.722C180.831 241.759 180.935 241.783 181.044 241.795C181.153 241.806 181.253 241.811 181.345 241.812L181.845 241.817C181.973 241.818 182.116 241.827 182.273 241.847C182.432 241.866 182.583 241.909 182.728 241.976C182.873 242.042 182.994 242.144 183.088 242.283C183.183 242.422 183.23 242.611 183.23 242.85C183.23 243.126 183.16 243.393 183.021 243.653C182.883 243.912 182.681 244.143 182.415 244.346C182.15 244.548 181.829 244.699 181.451 244.801C181.098 244.895 180.793 244.918 180.534 244.87C180.278 244.82 180.076 244.71 179.928 244.539C179.782 244.367 179.7 244.145 179.681 243.871L180.296 243.706C180.312 243.894 180.375 244.037 180.484 244.134C180.595 244.229 180.734 244.284 180.902 244.3C181.072 244.315 181.255 244.296 181.451 244.243C181.678 244.182 181.883 244.089 182.064 243.964C182.245 243.838 182.389 243.691 182.494 243.525C182.6 243.358 182.653 243.181 182.653 242.995C182.653 242.826 182.607 242.7 182.516 242.618C182.425 242.537 182.304 242.482 182.155 242.456C182.006 242.43 181.845 242.415 181.672 242.411L181.066 242.394C180.681 242.383 180.376 242.301 180.152 242.149C179.928 241.996 179.815 241.748 179.815 241.405C179.815 241.119 179.89 240.85 180.039 240.598C180.19 240.344 180.392 240.123 180.645 239.938C180.9 239.75 181.184 239.614 181.499 239.53C181.816 239.445 182.098 239.428 182.345 239.48C182.592 239.53 182.788 239.637 182.932 239.801C183.078 239.964 183.155 240.173 183.163 240.428L182.586 240.583ZM183.795 245.517V240.259L184.344 240.112V240.719L184.411 240.701C184.453 240.624 184.51 240.524 184.584 240.401C184.659 240.276 184.767 240.155 184.906 240.036C185.047 239.915 185.238 239.822 185.479 239.758C185.79 239.675 186.064 239.682 186.301 239.779C186.538 239.877 186.724 240.055 186.857 240.315C186.99 240.575 187.056 240.905 187.056 241.307C187.056 241.712 186.99 242.081 186.857 242.414C186.724 242.745 186.539 243.023 186.303 243.249C186.068 243.473 185.796 243.627 185.488 243.709C185.251 243.773 185.061 243.783 184.918 243.74C184.776 243.695 184.666 243.631 184.589 243.547C184.512 243.461 184.453 243.389 184.411 243.33L184.363 243.343V245.365L183.795 245.517ZM184.353 242.021C184.353 242.31 184.394 242.554 184.476 242.753C184.558 242.95 184.677 243.09 184.834 243.172C184.991 243.253 185.184 243.263 185.411 243.202C185.649 243.138 185.847 243.02 186.005 242.848C186.166 242.674 186.286 242.466 186.366 242.224C186.448 241.98 186.489 241.721 186.489 241.449C186.489 241.18 186.449 240.949 186.368 240.754C186.29 240.558 186.17 240.418 186.01 240.335C185.851 240.25 185.652 240.239 185.411 240.304C185.18 240.366 184.986 240.478 184.829 240.642C184.672 240.803 184.554 241.003 184.473 241.24C184.393 241.475 184.353 241.736 184.353 242.021ZM187.583 243.068V239.244L188.132 239.097V239.675L188.17 239.664C188.237 239.457 188.359 239.271 188.536 239.106C188.712 238.941 188.911 238.828 189.132 238.769C189.174 238.758 189.226 238.745 189.288 238.73C189.351 238.715 189.398 238.704 189.43 238.699V239.297C189.411 239.297 189.367 239.301 189.298 239.31C189.231 239.316 189.159 239.329 189.084 239.35C188.904 239.398 188.744 239.48 188.603 239.596C188.463 239.709 188.353 239.845 188.271 240.003C188.191 240.159 188.151 240.323 188.151 240.496V242.916L187.583 243.068ZM189.764 242.484V238.659L190.332 238.507V242.331L189.764 242.484ZM190.053 237.945C189.942 237.974 189.847 237.961 189.767 237.904C189.688 237.847 189.649 237.764 189.649 237.655C189.649 237.545 189.688 237.441 189.767 237.342C189.847 237.242 189.942 237.178 190.053 237.148C190.164 237.118 190.258 237.132 190.337 237.189C190.417 237.246 190.457 237.329 190.457 237.438C190.457 237.548 190.417 237.652 190.337 237.752C190.258 237.851 190.164 237.915 190.053 237.945ZM191.6 239.691V241.992L191.033 242.144V238.32L191.581 238.173V238.77L191.629 238.757C191.716 238.54 191.847 238.349 192.024 238.184C192.2 238.017 192.428 237.896 192.707 237.821C192.957 237.754 193.176 237.749 193.363 237.805C193.551 237.859 193.697 237.979 193.801 238.165C193.905 238.35 193.957 238.605 193.957 238.93V241.36L193.39 241.512V239.122C193.39 238.822 193.314 238.608 193.164 238.481C193.013 238.352 192.806 238.322 192.543 238.393C192.362 238.441 192.2 238.525 192.057 238.645C191.916 238.764 191.805 238.913 191.723 239.091C191.641 239.269 191.6 239.469 191.6 239.691ZM196.262 236.918V237.416L194.348 237.929V237.431L196.262 236.918ZM194.906 236.366L195.473 236.214V239.858C195.473 240.024 195.496 240.143 195.543 240.213C195.591 240.282 195.652 240.32 195.726 240.329C195.801 240.335 195.88 240.327 195.964 240.305C196.026 240.288 196.078 240.271 196.118 240.253C196.158 240.234 196.19 240.219 196.214 240.208L196.329 240.705C196.291 240.73 196.237 240.759 196.168 240.793C196.099 240.828 196.012 240.859 195.906 240.888C195.746 240.931 195.589 240.937 195.435 240.907C195.282 240.876 195.156 240.802 195.055 240.683C194.955 240.563 194.906 240.392 194.906 240.17V236.366ZM198.334 240.187V239.739L199.959 237.461C200.15 237.194 200.307 236.965 200.431 236.772C200.554 236.578 200.645 236.403 200.705 236.246C200.766 236.087 200.796 235.929 200.796 235.773C200.796 235.594 200.754 235.45 200.671 235.341C200.589 235.232 200.477 235.161 200.334 235.128C200.192 235.094 200.031 235.102 199.853 235.149C199.664 235.2 199.499 235.285 199.358 235.404C199.219 235.521 199.11 235.662 199.033 235.827C198.958 235.992 198.92 236.171 198.92 236.365L198.353 236.518C198.353 236.219 198.419 235.939 198.552 235.677C198.685 235.416 198.867 235.191 199.096 235.004C199.327 234.816 199.586 234.683 199.873 234.606C200.161 234.529 200.417 234.524 200.64 234.59C200.863 234.657 201.037 234.78 201.164 234.96C201.291 235.14 201.354 235.361 201.354 235.624C201.354 235.811 201.321 236.003 201.255 236.2C201.191 236.395 201.079 236.624 200.919 236.886C200.76 237.146 200.54 237.47 200.257 237.859L199.151 239.381V239.421L201.441 238.807V239.355L198.334 240.187Z" fill="#A3ADC8"/>
<path d="M219.155 230.784C219.126 230.54 219.009 230.375 218.803 230.291C218.598 230.206 218.347 230.204 218.048 230.284C217.83 230.342 217.64 230.43 217.476 230.547C217.314 230.663 217.187 230.798 217.096 230.95C217.006 231.102 216.961 231.259 216.961 231.422C216.961 231.558 216.993 231.667 217.055 231.748C217.119 231.827 217.201 231.885 217.3 231.923C217.4 231.96 217.504 231.984 217.613 231.997C217.722 232.007 217.822 232.013 217.914 232.013L218.414 232.019C218.542 232.019 218.685 232.029 218.842 232.048C219.001 232.067 219.152 232.11 219.296 232.178C219.442 232.243 219.563 232.346 219.657 232.485C219.752 232.624 219.799 232.813 219.799 233.052C219.799 233.327 219.729 233.595 219.59 233.854C219.452 234.114 219.25 234.345 218.984 234.547C218.719 234.749 218.398 234.901 218.019 235.002C217.667 235.097 217.361 235.12 217.103 235.071C216.847 235.022 216.645 234.912 216.497 234.74C216.351 234.569 216.269 234.346 216.25 234.072L216.865 233.907C216.881 234.096 216.944 234.238 217.053 234.335C217.163 234.43 217.303 234.486 217.471 234.502C217.641 234.516 217.824 234.497 218.019 234.445C218.247 234.384 218.452 234.291 218.633 234.166C218.814 234.039 218.957 233.893 219.063 233.727C219.169 233.559 219.222 233.382 219.222 233.196C219.222 233.027 219.176 232.901 219.085 232.82C218.993 232.738 218.873 232.684 218.724 232.657C218.575 232.631 218.414 232.616 218.241 232.613L217.635 232.596C217.25 232.584 216.945 232.502 216.721 232.35C216.496 232.198 216.384 231.95 216.384 231.606C216.384 231.321 216.459 231.052 216.608 230.8C216.759 230.545 216.961 230.325 217.214 230.139C217.469 229.951 217.753 229.815 218.068 229.731C218.385 229.646 218.667 229.629 218.914 229.681C219.161 229.731 219.357 229.838 219.501 230.002C219.647 230.165 219.724 230.375 219.732 230.63L219.155 230.784ZM220.364 235.718V230.46L220.912 230.313V230.921L220.98 230.903C221.021 230.825 221.079 230.725 221.153 230.602C221.228 230.478 221.336 230.356 221.475 230.237C221.616 230.116 221.807 230.024 222.047 229.959C222.358 229.876 222.633 229.883 222.87 229.981C223.107 230.078 223.292 230.257 223.425 230.516C223.559 230.776 223.625 231.107 223.625 231.509C223.625 231.914 223.559 232.282 223.425 232.615C223.292 232.946 223.108 233.225 222.872 233.45C222.637 233.675 222.365 233.828 222.057 233.91C221.82 233.974 221.63 233.984 221.487 233.941C221.344 233.896 221.235 233.832 221.158 233.748C221.081 233.662 221.021 233.59 220.98 233.532L220.932 233.545V235.566L220.364 235.718ZM220.922 232.223C220.922 232.512 220.963 232.755 221.045 232.954C221.126 233.151 221.246 233.291 221.403 233.374C221.56 233.454 221.752 233.464 221.98 233.403C222.217 233.34 222.415 233.222 222.574 233.05C222.734 232.876 222.855 232.668 222.935 232.425C223.017 232.181 223.057 231.923 223.057 231.651C223.057 231.382 223.017 231.15 222.937 230.956C222.859 230.759 222.739 230.62 222.579 230.537C222.42 230.451 222.221 230.441 221.98 230.505C221.749 230.567 221.555 230.68 221.398 230.843C221.241 231.005 221.122 231.204 221.042 231.441C220.962 231.677 220.922 231.937 220.922 232.223ZM224.152 233.269V229.445L224.7 229.298V229.876L224.739 229.866C224.806 229.658 224.928 229.472 225.104 229.307C225.281 229.142 225.48 229.03 225.701 228.971C225.743 228.959 225.795 228.946 225.857 228.931C225.92 228.916 225.967 228.906 225.999 228.901V229.498C225.98 229.498 225.936 229.503 225.867 229.511C225.799 229.518 225.728 229.531 225.653 229.551C225.473 229.599 225.313 229.681 225.172 229.797C225.032 229.911 224.922 230.047 224.84 230.205C224.76 230.36 224.72 230.525 224.72 230.697V233.117L224.152 233.269ZM226.333 232.685V228.861L226.901 228.709V232.533L226.333 232.685ZM226.622 228.146C226.511 228.176 226.416 228.162 226.336 228.106C226.257 228.049 226.218 227.966 226.218 227.856C226.218 227.747 226.257 227.642 226.336 227.543C226.416 227.444 226.511 227.379 226.622 227.349C226.732 227.32 226.827 227.333 226.906 227.39C226.986 227.447 227.026 227.53 227.026 227.64C227.026 227.749 226.986 227.854 226.906 227.953C226.827 228.052 226.732 228.117 226.622 228.146ZM228.169 229.893V232.193L227.602 232.345V228.521L228.15 228.374V228.972L228.198 228.959C228.285 228.741 228.416 228.55 228.592 228.385C228.769 228.218 228.996 228.097 229.275 228.023C229.526 227.956 229.744 227.95 229.932 228.006C230.12 228.06 230.265 228.181 230.37 228.367C230.474 228.551 230.526 228.806 230.526 229.132V231.562L229.958 231.714V229.324C229.958 229.023 229.883 228.809 229.732 228.682C229.582 228.553 229.375 228.524 229.112 228.594C228.931 228.643 228.769 228.727 228.626 228.846C228.485 228.966 228.374 229.114 228.292 229.292C228.21 229.47 228.169 229.67 228.169 229.893ZM232.831 227.12V227.618L230.917 228.131V227.633L232.831 227.12ZM231.475 226.567L232.042 226.415V230.06C232.042 230.226 232.065 230.344 232.112 230.415C232.16 230.483 232.221 230.521 232.295 230.53C232.37 230.536 232.449 230.528 232.533 230.506C232.595 230.489 232.646 230.472 232.687 230.455C232.727 230.436 232.759 230.421 232.783 230.409L232.898 230.906C232.86 230.931 232.806 230.961 232.737 230.994C232.668 231.029 232.581 231.061 232.475 231.089C232.315 231.132 232.158 231.138 232.004 231.108C231.851 231.078 231.725 231.003 231.624 230.884C231.524 230.765 231.475 230.594 231.475 230.371V226.567ZM236.567 230.013C236.249 230.098 235.966 230.117 235.718 230.071C235.471 230.024 235.274 229.92 235.128 229.758C234.984 229.594 234.906 229.381 234.893 229.117L235.499 228.954C235.512 229.115 235.566 229.243 235.662 229.336C235.759 229.428 235.884 229.486 236.04 229.509C236.195 229.532 236.368 229.518 236.557 229.468C236.769 229.411 236.956 229.322 237.12 229.202C237.283 229.082 237.411 228.941 237.504 228.78C237.597 228.619 237.644 228.449 237.644 228.27C237.644 228.082 237.599 227.929 237.509 227.811C237.419 227.69 237.288 227.613 237.115 227.578C236.942 227.543 236.73 227.559 236.48 227.626L236.086 227.732V227.184L236.48 227.078C236.676 227.026 236.847 226.943 236.995 226.831C237.144 226.718 237.26 226.584 237.343 226.429C237.428 226.273 237.471 226.106 237.471 225.926C237.471 225.754 237.434 225.613 237.36 225.505C237.286 225.397 237.182 225.326 237.048 225.29C236.914 225.255 236.757 225.261 236.576 225.31C236.406 225.355 236.246 225.43 236.095 225.536C235.946 225.639 235.824 225.763 235.73 225.91C235.635 226.055 235.584 226.213 235.576 226.384L234.999 226.539C235.008 226.269 235.086 226.014 235.232 225.774C235.378 225.533 235.569 225.324 235.804 225.148C236.041 224.972 236.302 224.845 236.586 224.769C236.89 224.688 237.152 224.682 237.37 224.751C237.588 224.819 237.755 224.941 237.872 225.117C237.989 225.293 238.048 225.501 238.048 225.742C238.048 226.029 237.975 226.293 237.829 226.535C237.685 226.776 237.488 226.969 237.24 227.114V227.153C237.551 227.123 237.794 227.195 237.969 227.369C238.143 227.541 238.231 227.789 238.231 228.113C238.231 228.39 238.158 228.658 238.012 228.918C237.868 229.176 237.67 229.402 237.42 229.595C237.17 229.788 236.886 229.927 236.567 230.013Z" fill="#A3ADC8"/>
<path d="M256.273 220.965C256.251 220.754 256.156 220.61 255.989 220.534C255.824 220.457 255.609 220.454 255.345 220.524C255.159 220.574 254.999 220.646 254.866 220.74C254.733 220.834 254.631 220.94 254.561 221.058C254.49 221.177 254.454 221.3 254.453 221.428C254.453 221.534 254.476 221.62 254.522 221.686C254.571 221.751 254.636 221.8 254.717 221.833C254.799 221.864 254.89 221.885 254.989 221.895C255.088 221.904 255.189 221.908 255.29 221.906L255.751 221.902C255.937 221.897 256.116 221.91 256.288 221.94C256.461 221.97 256.615 222.025 256.752 222.104C256.89 222.184 256.999 222.295 257.079 222.438C257.159 222.58 257.199 222.762 257.199 222.983C257.199 223.282 257.125 223.564 256.978 223.831C256.83 224.097 256.617 224.331 256.338 224.533C256.061 224.734 255.725 224.887 255.331 224.992C254.947 225.095 254.615 225.123 254.332 225.075C254.052 225.028 253.832 224.907 253.674 224.714C253.516 224.521 253.431 224.256 253.419 223.921L254.296 223.686C254.309 223.86 254.362 223.994 254.455 224.087C254.548 224.18 254.669 224.235 254.818 224.253C254.969 224.271 255.137 224.255 255.323 224.205C255.517 224.153 255.687 224.078 255.833 223.979C255.981 223.878 256.096 223.762 256.179 223.632C256.263 223.5 256.305 223.361 256.307 223.214C256.305 223.082 256.268 222.983 256.194 222.916C256.12 222.848 256.017 222.803 255.884 222.78C255.752 222.756 255.598 222.744 255.422 222.745L254.862 222.745C254.456 222.746 254.135 222.669 253.9 222.513C253.666 222.355 253.549 222.093 253.549 221.728C253.549 221.427 253.627 221.143 253.784 220.875C253.943 220.607 254.159 220.374 254.431 220.177C254.704 219.978 255.012 219.832 255.357 219.739C255.706 219.646 256.013 219.627 256.276 219.683C256.54 219.736 256.748 219.854 256.898 220.036C257.049 220.216 257.127 220.449 257.132 220.735L256.273 220.965ZM257.617 225.736V220.478L258.474 220.249V220.881L258.524 220.868C258.569 220.763 258.632 220.647 258.714 220.52C258.796 220.392 258.906 220.272 259.046 220.16C259.185 220.046 259.363 219.961 259.58 219.903C259.865 219.826 260.122 219.833 260.352 219.922C260.583 220.01 260.765 220.182 260.9 220.44C261.036 220.696 261.104 221.036 261.104 221.461C261.104 221.881 261.038 222.256 260.905 222.585C260.772 222.914 260.591 223.187 260.361 223.403C260.132 223.619 259.872 223.765 259.582 223.843C259.371 223.9 259.195 223.91 259.055 223.875C258.916 223.839 258.804 223.781 258.719 223.701C258.635 223.619 258.571 223.537 258.524 223.457L258.488 223.467V225.503L257.617 225.736ZM258.471 222.162C258.471 222.409 258.505 222.616 258.572 222.784C258.641 222.952 258.74 223.071 258.868 223.141C258.998 223.209 259.155 223.218 259.339 223.169C259.532 223.117 259.693 223.021 259.823 222.88C259.952 222.737 260.05 222.564 260.116 222.361C260.183 222.155 260.217 221.933 260.217 221.694C260.217 221.456 260.184 221.254 260.118 221.088C260.053 220.921 259.955 220.803 259.825 220.733C259.695 220.663 259.533 220.655 259.339 220.706C259.153 220.756 258.995 220.849 258.865 220.985C258.736 221.121 258.637 221.29 258.57 221.49C258.504 221.69 258.471 221.914 258.471 222.162ZM261.511 223.259V219.435L262.355 219.209V219.846L262.394 219.836C262.461 219.597 262.577 219.396 262.74 219.233C262.905 219.067 263.094 218.956 263.305 218.899C263.353 218.886 263.407 218.875 263.466 218.864C263.527 218.851 263.578 218.843 263.618 218.841V219.67C263.581 219.666 263.523 219.67 263.442 219.682C263.364 219.691 263.288 219.706 263.214 219.726C263.055 219.768 262.913 219.842 262.786 219.947C262.661 220.051 262.562 220.174 262.49 220.318C262.418 220.462 262.382 220.615 262.382 220.778V223.026L261.511 223.259ZM263.858 222.63V218.806L264.728 218.573V222.397L263.858 222.63ZM264.295 218.146C264.157 218.183 264.039 218.168 263.939 218.1C263.84 218.03 263.79 217.928 263.79 217.793C263.79 217.657 263.84 217.529 263.939 217.407C264.039 217.285 264.157 217.205 264.295 217.168C264.435 217.13 264.553 217.147 264.651 217.217C264.751 217.285 264.8 217.387 264.8 217.523C264.8 217.657 264.751 217.786 264.651 217.909C264.553 218.03 264.435 218.109 264.295 218.146ZM266.155 219.774V222.015L265.285 222.248V218.424L266.117 218.201V218.851L266.16 218.839C266.245 218.602 266.381 218.396 266.567 218.22C266.754 218.043 266.986 217.918 267.262 217.844C267.517 217.776 267.739 217.773 267.928 217.835C268.119 217.897 268.266 218.021 268.37 218.207C268.476 218.393 268.528 218.639 268.527 218.944V221.379L267.656 221.613V219.317C267.656 219.061 267.592 218.879 267.464 218.769C267.337 218.658 267.161 218.633 266.937 218.693C266.785 218.734 266.649 218.805 266.531 218.907C266.414 219.006 266.321 219.129 266.254 219.277C266.188 219.424 266.155 219.59 266.155 219.774ZM270.917 216.914V217.612L268.794 218.181V217.483L270.917 216.914ZM269.318 216.427L270.189 216.194V219.784C270.189 219.905 270.206 219.993 270.242 220.048C270.279 220.101 270.327 220.132 270.386 220.139C270.445 220.146 270.511 220.14 270.583 220.121C270.638 220.107 270.687 220.089 270.732 220.069C270.779 220.048 270.814 220.031 270.838 220.018L270.985 220.683C270.938 220.712 270.872 220.748 270.785 220.791C270.7 220.834 270.596 220.874 270.473 220.91C270.255 220.975 270.058 220.994 269.883 220.966C269.709 220.936 269.57 220.856 269.467 220.724C269.366 220.592 269.317 220.406 269.318 220.166V216.427ZM272.549 219.355V218.621L274.639 214.643L275.231 214.484V215.53L274.87 215.626L273.463 218.311V218.351L276.38 217.569V218.329L272.549 219.355ZM274.899 219.672V218.502L274.909 218.17V214.57L275.75 214.345V219.444L274.899 219.672Z" fill="#2D2D2D"/>
<path d="M295.001 210.461C294.972 210.217 294.855 210.052 294.65 209.968C294.445 209.883 294.193 209.881 293.895 209.961C293.677 210.019 293.486 210.107 293.323 210.224C293.161 210.34 293.034 210.475 292.943 210.627C292.853 210.779 292.808 210.936 292.808 211.099C292.808 211.235 292.839 211.343 292.902 211.425C292.966 211.504 293.048 211.562 293.147 211.6C293.247 211.637 293.351 211.661 293.46 211.674C293.569 211.684 293.669 211.69 293.76 211.69L294.261 211.695C294.389 211.696 294.531 211.706 294.689 211.725C294.847 211.744 294.999 211.787 295.143 211.855C295.289 211.92 295.409 212.023 295.504 212.162C295.598 212.3 295.646 212.489 295.646 212.728C295.646 213.004 295.576 213.272 295.437 213.531C295.299 213.791 295.097 214.022 294.83 214.224C294.566 214.426 294.245 214.578 293.866 214.679C293.513 214.774 293.208 214.797 292.95 214.748C292.693 214.699 292.491 214.589 292.344 214.417C292.198 214.246 292.115 214.023 292.096 213.749L292.712 213.584C292.728 213.773 292.79 213.915 292.899 214.012C293.01 214.107 293.15 214.162 293.318 214.179C293.488 214.193 293.671 214.174 293.866 214.122C294.094 214.061 294.298 213.968 294.479 213.843C294.661 213.716 294.804 213.57 294.91 213.404C295.016 213.236 295.069 213.059 295.069 212.873C295.069 212.704 295.023 212.578 294.932 212.497C294.84 212.415 294.72 212.361 294.571 212.334C294.422 212.308 294.261 212.293 294.087 212.29L293.481 212.273C293.097 212.261 292.792 212.179 292.568 212.027C292.343 211.875 292.231 211.627 292.231 211.283C292.231 210.998 292.305 210.729 292.455 210.476C292.605 210.222 292.807 210.002 293.061 209.816C293.315 209.628 293.6 209.492 293.914 209.408C294.232 209.323 294.514 209.306 294.761 209.358C295.008 209.408 295.203 209.515 295.348 209.679C295.493 209.842 295.57 210.052 295.578 210.307L295.001 210.461ZM296.211 215.395V210.137L296.759 209.99V210.598L296.826 210.58C296.868 210.502 296.926 210.402 297 210.279C297.075 210.155 297.182 210.033 297.322 209.914C297.463 209.793 297.654 209.701 297.894 209.636C298.205 209.553 298.479 209.56 298.717 209.657C298.954 209.755 299.139 209.933 299.272 210.193C299.405 210.453 299.472 210.784 299.472 211.185C299.472 211.59 299.405 211.959 299.272 212.292C299.139 212.623 298.955 212.902 298.719 213.127C298.483 213.352 298.212 213.505 297.904 213.587C297.666 213.651 297.477 213.661 297.334 213.618C297.191 213.573 297.081 213.509 297.004 213.425C296.927 213.339 296.868 213.267 296.826 213.209L296.778 213.222V215.243L296.211 215.395ZM296.769 211.9C296.769 212.189 296.81 212.432 296.891 212.631C296.973 212.828 297.093 212.968 297.25 213.051C297.407 213.131 297.599 213.141 297.827 213.08C298.064 213.017 298.262 212.899 298.421 212.727C298.581 212.553 298.701 212.345 298.782 212.102C298.863 211.858 298.904 211.6 298.904 211.328C298.904 211.059 298.864 210.827 298.784 210.633C298.705 210.436 298.586 210.297 298.426 210.213C298.267 210.128 298.067 210.118 297.827 210.182C297.596 210.244 297.402 210.357 297.245 210.52C297.088 210.681 296.969 210.881 296.889 211.118C296.809 211.354 296.769 211.614 296.769 211.9ZM299.999 212.946V209.122L300.547 208.975V209.553L300.586 209.543C300.653 209.335 300.775 209.149 300.951 208.984C301.128 208.819 301.326 208.707 301.548 208.647C301.589 208.636 301.641 208.623 301.704 208.608C301.766 208.593 301.814 208.583 301.846 208.578V209.175C301.827 209.175 301.782 209.18 301.714 209.188C301.646 209.194 301.575 209.208 301.499 209.228C301.32 209.276 301.16 209.358 301.019 209.474C300.879 209.588 300.768 209.723 300.687 209.881C300.606 210.037 300.566 210.202 300.566 210.374V212.794L299.999 212.946ZM302.18 212.362V208.538L302.747 208.386V212.21L302.18 212.362ZM302.469 207.823C302.358 207.853 302.262 207.839 302.182 207.783C302.104 207.726 302.064 207.643 302.064 207.533C302.064 207.423 302.104 207.319 302.182 207.22C302.262 207.121 302.358 207.056 302.469 207.026C302.579 206.997 302.674 207.01 302.752 207.067C302.832 207.124 302.873 207.207 302.873 207.316C302.873 207.426 302.832 207.531 302.752 207.63C302.674 207.729 302.579 207.793 302.469 207.823ZM304.016 209.57V211.87L303.448 212.022V208.198L303.997 208.051V208.649L304.045 208.636C304.131 208.418 304.263 208.227 304.439 208.062C304.616 207.895 304.843 207.774 305.122 207.7C305.372 207.633 305.591 207.627 305.779 207.683C305.966 207.737 306.112 207.858 306.216 208.044C306.321 208.228 306.373 208.483 306.373 208.809V211.238L305.805 211.391V209C305.805 208.7 305.73 208.486 305.579 208.359C305.428 208.23 305.222 208.201 304.959 208.271C304.777 208.32 304.616 208.404 304.473 208.523C304.332 208.643 304.22 208.791 304.139 208.969C304.057 209.147 304.016 209.347 304.016 209.57ZM308.678 206.797V207.295L306.763 207.808V207.31L308.678 206.797ZM307.321 206.244L307.889 206.092V209.737C307.889 209.903 307.912 210.021 307.959 210.092C308.007 210.16 308.068 210.198 308.141 210.207C308.217 210.213 308.296 210.205 308.379 210.183C308.442 210.166 308.493 210.149 308.533 210.132C308.573 210.113 308.605 210.097 308.629 210.086L308.745 210.583C308.706 210.608 308.653 210.637 308.584 210.671C308.515 210.706 308.427 210.738 308.322 210.766C308.161 210.809 308.004 210.815 307.85 210.785C307.698 210.755 307.571 210.68 307.47 210.561C307.371 210.442 307.321 210.271 307.321 210.048V206.244ZM312.288 209.723C312.006 209.799 311.752 209.809 311.526 209.753C311.3 209.697 311.119 209.587 310.982 209.421C310.846 209.255 310.772 209.044 310.759 208.789L311.336 208.634C311.358 208.859 311.459 209.022 311.639 209.125C311.82 209.226 312.036 209.243 312.288 209.175C312.49 209.121 312.67 209.024 312.827 208.884C312.986 208.744 313.11 208.576 313.2 208.381C313.291 208.184 313.337 207.977 313.337 207.759C313.337 207.537 313.289 207.351 313.195 207.202C313.102 207.051 312.974 206.947 312.81 206.889C312.646 206.832 312.46 206.831 312.25 206.885C312.099 206.924 311.944 206.989 311.786 207.082C311.627 207.172 311.496 207.27 311.394 207.374L310.836 207.453L311.134 204.864L313.693 204.178V204.726L311.634 205.278L311.461 206.828L311.49 206.82C311.591 206.71 311.717 206.607 311.87 206.512C312.022 206.416 312.181 206.346 312.346 206.302C312.647 206.221 312.916 206.224 313.152 206.31C313.389 206.394 313.575 206.547 313.709 206.768C313.846 206.989 313.914 207.264 313.914 207.595C313.914 207.92 313.843 208.229 313.702 208.523C313.563 208.814 313.37 209.066 313.125 209.28C312.88 209.492 312.601 209.639 312.288 209.723Z" fill="#A3ADC8"/>
<circle cx="7.20279" cy="7.20279" r="6.9777" transform="matrix(0.965926 -0.258819 0 1 293.924 106.07)" fill="#FD824C" stroke="#FEFEFE" stroke-width="0.450174"/>
<mask id="path-26-inside-1_8117_13323" fill="white">
<path d="M297.75 115.849C297.558 115.901 297.4 115.781 297.42 115.578C297.454 115.22 297.537 114.854 297.667 114.493C297.842 114.01 298.098 113.544 298.421 113.123C298.744 112.702 299.128 112.334 299.55 112.04C299.972 111.746 300.424 111.531 300.881 111.409C301.338 111.287 301.79 111.258 302.212 111.326C302.634 111.394 303.018 111.557 303.341 111.805C303.664 112.053 303.92 112.381 304.095 112.771C304.225 113.062 304.308 113.383 304.342 113.723C304.361 113.916 304.204 114.12 304.012 114.171C303.82 114.223 303.666 114.102 303.642 113.911C303.611 113.665 303.547 113.432 303.452 113.219C303.312 112.907 303.107 112.644 302.849 112.446C302.59 112.248 302.284 112.117 301.946 112.063C301.608 112.009 301.246 112.031 300.881 112.129C300.515 112.227 300.154 112.399 299.816 112.634C299.478 112.869 299.172 113.164 298.913 113.5C298.655 113.837 298.45 114.21 298.31 114.597C298.214 114.861 298.151 115.128 298.12 115.391C298.096 115.595 297.942 115.798 297.75 115.849Z"/>
</mask>
<path d="M297.75 115.849C297.558 115.901 297.4 115.781 297.42 115.578C297.454 115.22 297.537 114.854 297.667 114.493C297.842 114.01 298.098 113.544 298.421 113.123C298.744 112.702 299.128 112.334 299.55 112.04C299.972 111.746 300.424 111.531 300.881 111.409C301.338 111.287 301.79 111.258 302.212 111.326C302.634 111.394 303.018 111.557 303.341 111.805C303.664 112.053 303.92 112.381 304.095 112.771C304.225 113.062 304.308 113.383 304.342 113.723C304.361 113.916 304.204 114.12 304.012 114.171C303.82 114.223 303.666 114.102 303.642 113.911C303.611 113.665 303.547 113.432 303.452 113.219C303.312 112.907 303.107 112.644 302.849 112.446C302.59 112.248 302.284 112.117 301.946 112.063C301.608 112.009 301.246 112.031 300.881 112.129C300.515 112.227 300.154 112.399 299.816 112.634C299.478 112.869 299.172 113.164 298.913 113.5C298.655 113.837 298.45 114.21 298.31 114.597C298.214 114.861 298.151 115.128 298.12 115.391C298.096 115.595 297.942 115.798 297.75 115.849Z" fill="#523102" stroke="#523102" stroke-width="0.450174" mask="url(#path-26-inside-1_8117_13323)"/>
<path d="M297.054 110.634V111.714" stroke="#523102" stroke-width="0.900349" stroke-linecap="round"/>
<path d="M304.708 108.583V109.663" stroke="#523102" stroke-width="0.900349" stroke-linecap="round"/>
<circle cx="7.20279" cy="7.20279" r="6.9777" transform="matrix(0.965926 -0.258819 0 1 145.21 180.131)" fill="#47C28B" stroke="#FEFEFE" stroke-width="0.450174"/>
<mask id="path-30-inside-2_8117_13323" fill="white">
<path d="M155.298 185.081C155.49 185.03 155.648 185.149 155.629 185.352C155.595 185.711 155.512 186.076 155.381 186.437C155.206 186.921 154.95 187.387 154.627 187.808C154.304 188.228 153.921 188.597 153.499 188.891C153.077 189.185 152.624 189.399 152.167 189.521C151.711 189.644 151.258 189.672 150.836 189.604C150.414 189.536 150.031 189.374 149.708 189.126C149.385 188.878 149.128 188.549 148.954 188.159C148.823 187.869 148.74 187.548 148.706 187.207C148.687 187.014 148.844 186.81 149.037 186.759C149.229 186.707 149.382 186.828 149.406 187.019C149.437 187.266 149.501 187.499 149.596 187.712C149.736 188.024 149.941 188.286 150.2 188.485C150.458 188.683 150.765 188.813 151.102 188.867C151.44 188.922 151.802 188.899 152.167 188.801C152.533 188.703 152.895 188.532 153.232 188.296C153.57 188.061 153.877 187.767 154.135 187.43C154.394 187.093 154.599 186.721 154.739 186.334C154.834 186.07 154.898 185.803 154.929 185.539C154.953 185.336 155.106 185.133 155.298 185.081Z"/>
</mask>
<path d="M155.298 185.081C155.49 185.03 155.648 185.149 155.629 185.352C155.595 185.711 155.512 186.076 155.381 186.437C155.206 186.921 154.95 187.387 154.627 187.808C154.304 188.228 153.921 188.597 153.499 188.891C153.077 189.185 152.624 189.399 152.167 189.521C151.711 189.644 151.258 189.672 150.836 189.604C150.414 189.536 150.031 189.374 149.708 189.126C149.385 188.878 149.128 188.549 148.954 188.159C148.823 187.869 148.74 187.548 148.706 187.207C148.687 187.014 148.844 186.81 149.037 186.759C149.229 186.707 149.382 186.828 149.406 187.019C149.437 187.266 149.501 187.499 149.596 187.712C149.736 188.024 149.941 188.286 150.2 188.485C150.458 188.683 150.765 188.813 151.102 188.867C151.44 188.922 151.802 188.899 152.167 188.801C152.533 188.703 152.895 188.532 153.232 188.296C153.57 188.061 153.877 187.767 154.135 187.43C154.394 187.093 154.599 186.721 154.739 186.334C154.834 186.07 154.898 185.803 154.929 185.539C154.953 185.336 155.106 185.133 155.298 185.081Z" fill="#065202" stroke="#065202" stroke-width="0.450174" mask="url(#path-30-inside-2_8117_13323)"/>
<path d="M148.341 184.694V185.775" stroke="#065202" stroke-width="0.900349" stroke-linecap="round"/>
<path d="M155.994 182.644V183.724" stroke="#065202" stroke-width="0.900349" stroke-linecap="round"/>
<circle cx="7.20279" cy="7.20279" r="6.9777" transform="matrix(0.965926 -0.258819 0 1 219.132 159.424)" fill="#47C28B" stroke="#FEFEFE" stroke-width="0.450174"/>
<mask id="path-34-inside-3_8117_13323" fill="white">
<path d="M229.22 164.374C229.412 164.322 229.57 164.441 229.551 164.644C229.517 165.003 229.434 165.369 229.303 165.729C229.128 166.213 228.872 166.679 228.549 167.1C228.226 167.521 227.843 167.889 227.421 168.183C226.998 168.477 226.546 168.691 226.089 168.814C225.632 168.936 225.18 168.964 224.758 168.896C224.336 168.828 223.953 168.666 223.629 168.418C223.306 168.17 223.05 167.842 222.875 167.452C222.745 167.161 222.662 166.84 222.628 166.499C222.609 166.307 222.766 166.103 222.958 166.051C223.151 166 223.304 166.121 223.328 166.311C223.359 166.558 223.423 166.791 223.518 167.004C223.658 167.316 223.863 167.579 224.121 167.777C224.38 167.975 224.687 168.105 225.024 168.16C225.362 168.214 225.724 168.191 226.089 168.094C226.455 167.996 226.817 167.824 227.154 167.589C227.492 167.354 227.799 167.059 228.057 166.722C228.316 166.386 228.521 166.013 228.66 165.626C228.756 165.362 228.82 165.095 228.851 164.832C228.874 164.628 229.028 164.425 229.22 164.374Z"/>
</mask>
<path d="M229.22 164.374C229.412 164.322 229.57 164.441 229.551 164.644C229.517 165.003 229.434 165.369 229.303 165.729C229.128 166.213 228.872 166.679 228.549 167.1C228.226 167.521 227.843 167.889 227.421 168.183C226.998 168.477 226.546 168.691 226.089 168.814C225.632 168.936 225.18 168.964 224.758 168.896C224.336 168.828 223.953 168.666 223.629 168.418C223.306 168.17 223.05 167.842 222.875 167.452C222.745 167.161 222.662 166.84 222.628 166.499C222.609 166.307 222.766 166.103 222.958 166.051C223.151 166 223.304 166.121 223.328 166.311C223.359 166.558 223.423 166.791 223.518 167.004C223.658 167.316 223.863 167.579 224.121 167.777C224.38 167.975 224.687 168.105 225.024 168.16C225.362 168.214 225.724 168.191 226.089 168.094C226.455 167.996 226.817 167.824 227.154 167.589C227.492 167.354 227.799 167.059 228.057 166.722C228.316 166.386 228.521 166.013 228.66 165.626C228.756 165.362 228.82 165.095 228.851 164.832C228.874 164.628 229.028 164.425 229.22 164.374Z" fill="#065202" stroke="#065202" stroke-width="0.450174" mask="url(#path-34-inside-3_8117_13323)"/>
<path d="M222.262 163.987V165.067" stroke="#065202" stroke-width="0.900349" stroke-linecap="round"/>
<path d="M229.916 161.936V163.017" stroke="#065202" stroke-width="0.900349" stroke-linecap="round"/>
<circle cx="7.20279" cy="7.20279" r="6.9777" transform="matrix(0.965926 -0.258819 0 1 182.606 154.805)" fill="#FEC84B" stroke="#FEFEFE" stroke-width="0.450174"/>
<path d="M186.519 162.31L192.607 160.679" stroke="#523902" stroke-width="0.900349" stroke-linecap="round"/>
<path d="M185.737 159.368V160.449" stroke="#523902" stroke-width="0.900349" stroke-linecap="round"/>
<path d="M193.39 157.318V158.398" stroke="#523902" stroke-width="0.900349" stroke-linecap="round"/>
<circle cx="7.20279" cy="7.20279" r="6.9777" transform="matrix(0.965926 -0.258819 0 1 255.658 105.519)" fill="#F95555" stroke="#FEFEFE" stroke-width="0.450174"/>
<mask id="path-42-inside-4_8117_13323" fill="white">
<path d="M259.485 115.298C259.293 115.35 259.135 115.23 259.154 115.027C259.188 114.669 259.271 114.303 259.402 113.942C259.576 113.459 259.833 112.993 260.156 112.572C260.479 112.151 260.862 111.783 261.284 111.489C261.706 111.195 262.159 110.98 262.616 110.858C263.072 110.736 263.525 110.708 263.947 110.775C264.369 110.843 264.752 111.006 265.075 111.254C265.398 111.502 265.655 111.83 265.829 112.22C265.96 112.511 266.043 112.832 266.077 113.172C266.096 113.365 265.938 113.569 265.746 113.62C265.554 113.672 265.401 113.551 265.377 113.36C265.346 113.114 265.282 112.881 265.187 112.668C265.047 112.356 264.842 112.093 264.583 111.895C264.325 111.697 264.018 111.567 263.681 111.512C263.343 111.458 262.981 111.48 262.616 111.578C262.25 111.676 261.888 111.848 261.551 112.083C261.213 112.318 260.906 112.613 260.648 112.949C260.389 113.286 260.184 113.659 260.044 114.046C259.949 114.31 259.885 114.577 259.854 114.84C259.83 115.044 259.677 115.247 259.485 115.298Z"/>
</mask>
<path d="M259.485 115.298C259.293 115.35 259.135 115.23 259.154 115.027C259.188 114.669 259.271 114.303 259.402 113.942C259.576 113.459 259.833 112.993 260.156 112.572C260.479 112.151 260.862 111.783 261.284 111.489C261.706 111.195 262.159 110.98 262.616 110.858C263.072 110.736 263.525 110.708 263.947 110.775C264.369 110.843 264.752 111.006 265.075 111.254C265.398 111.502 265.655 111.83 265.829 112.22C265.96 112.511 266.043 112.832 266.077 113.172C266.096 113.365 265.938 113.569 265.746 113.62C265.554 113.672 265.401 113.551 265.377 113.36C265.346 113.114 265.282 112.881 265.187 112.668C265.047 112.356 264.842 112.093 264.583 111.895C264.325 111.697 264.018 111.567 263.681 111.512C263.343 111.458 262.981 111.48 262.616 111.578C262.25 111.676 261.888 111.848 261.551 112.083C261.213 112.318 260.906 112.613 260.648 112.949C260.389 113.286 260.184 113.659 260.044 114.046C259.949 114.31 259.885 114.577 259.854 114.84C259.83 115.044 259.677 115.247 259.485 115.298Z" fill="#520204" stroke="#520204" stroke-width="0.450174" mask="url(#path-42-inside-4_8117_13323)"/>
<path d="M259.344 110.777L258.606 110.21" stroke="#520204" stroke-width="0.900349" stroke-linecap="round"/>
<path d="M266.293 109.095L266.973 108.093" stroke="#520204" stroke-width="0.900349" stroke-linecap="round"/>
</g>
<defs>
<filter id="filter0_dddd_8117_13323" x="-129.239" y="5.72205e-06" width="491.958" height="508.924" filterUnits="userSpaceOnUse" color-interpolation-filters="sRGB">
<feFlood flood-opacity="0" result="BackgroundImageFix"/>
<feColorMatrix in="SourceAlpha" type="matrix" values="0 0 0 0 0 0 0 0 0 0 0 0 0 0 0 0 0 0 127 0" result="hardAlpha"/>
<feOffset dx="-8.87643" dy="8.87643"/>
<feGaussianBlur stdDeviation="13.8694"/>
<feColorMatrix type="matrix" values="0 0 0 0 0.760784 0 0 0 0 0.831373 0 0 0 0 1 0 0 0 0.1 0"/>
<feBlend mode="normal" in2="BackgroundImageFix" result="effect1_dropShadow_8117_13323"/>
<feColorMatrix in="SourceAlpha" type="matrix" values="0 0 0 0 0 0 0 0 0 0 0 0 0 0 0 0 0 0 127 0" result="hardAlpha"/>
<feOffset dx="-35.5057" dy="35.5057"/>
<feGaussianBlur stdDeviation="25.5197"/>
<feColorMatrix type="matrix" values="0 0 0 0 0.760784 0 0 0 0 0.831373 0 0 0 0 1 0 0 0 0.09 0"/>
<feBlend mode="normal" in2="effect1_dropShadow_8117_13323" result="effect2_dropShadow_8117_13323"/>
<feColorMatrix in="SourceAlpha" type="matrix" values="0 0 0 0 0 0 0 0 0 0 0 0 0 0 0 0 0 0 127 0" result="hardAlpha"/>
<feOffset dx="-80.9975" dy="80.9975"/>
<feGaussianBlur stdDeviation="34.3962"/>
<feColorMatrix type="matrix" values="0 0 0 0 0.760784 0 0 0 0 0.831373 0 0 0 0 1 0 0 0 0.05 0"/>
<feBlend mode="normal" in2="effect2_dropShadow_8117_13323" result="effect3_dropShadow_8117_13323"/>
<feColorMatrix in="SourceAlpha" type="matrix" values="0 0 0 0 0 0 0 0 0 0 0 0 0 0 0 0 0 0 127 0" result="hardAlpha"/>
<feOffset dx="-144.242" dy="144.242"/>
<feGaussianBlur stdDeviation="40.4987"/>
<feColorMatrix type="matrix" values="0 0 0 0 0.760784 0 0 0 0 0.831373 0 0 0 0 1 0 0 0 0.01 0"/>
<feBlend mode="normal" in2="effect3_dropShadow_8117_13323" result="effect4_dropShadow_8117_13323"/>
<feBlend mode="normal" in="SourceGraphic" in2="effect4_dropShadow_8117_13323" result="shape"/>
</filter>
<filter id="filter1_dddd_8117_13323" x="251.589" y="121.677" width="23.3592" height="104.791" filterUnits="userSpaceOnUse" color-interpolation-filters="sRGB">
<feFlood flood-opacity="0" result="BackgroundImageFix"/>
<feColorMatrix in="SourceAlpha" type="matrix" values="0 0 0 0 0 0 0 0 0 0 0 0 0 0 0 0 0 0 127 0" result="hardAlpha"/>
<feOffset dy="0.701091"/>
<feGaussianBlur stdDeviation="0.701091"/>
<feColorMatrix type="matrix" values="0 0 0 0 0.521569 0 0 0 0 0.6 0 0 0 0 1 0 0 0 0.1 0"/>
<feBlend mode="normal" in2="BackgroundImageFix" result="effect1_dropShadow_8117_13323"/>
<feColorMatrix in="SourceAlpha" type="matrix" values="0 0 0 0 0 0 0 0 0 0 0 0 0 0 0 0 0 0 127 0" result="hardAlpha"/>
<feOffset dy="2.80436"/>
<feGaussianBlur stdDeviation="1.40218"/>
<feColorMatrix type="matrix" values="0 0 0 0 0.521569 0 0 0 0 0.6 0 0 0 0 1 0 0 0 0.09 0"/>
<feBlend mode="normal" in2="effect1_dropShadow_8117_13323" result="effect2_dropShadow_8117_13323"/>
<feColorMatrix in="SourceAlpha" type="matrix" values="0 0 0 0 0 0 0 0 0 0 0 0 0 0 0 0 0 0 127 0" result="hardAlpha"/>
<feOffset dy="7.01091"/>
<feGaussianBlur stdDeviation="2.10327"/>
<feColorMatrix type="matrix" values="0 0 0 0 0.521569 0 0 0 0 0.6 0 0 0 0 1 0 0 0 0.05 0"/>
<feBlend mode="normal" in2="effect2_dropShadow_8117_13323" result="effect3_dropShadow_8117_13323"/>
<feColorMatrix in="SourceAlpha" type="matrix" values="0 0 0 0 0 0 0 0 0 0 0 0 0 0 0 0 0 0 127 0" result="hardAlpha"/>
<feOffset dy="11.9185"/>
<feGaussianBlur stdDeviation="2.45382"/>
<feColorMatrix type="matrix" values="0 0 0 0 0.521569 0 0 0 0 0.6 0 0 0 0 1 0 0 0 0.01 0"/>
<feBlend mode="normal" in2="effect3_dropShadow_8117_13323" result="effect4_dropShadow_8117_13323"/>
<feBlend mode="normal" in="SourceGraphic" in2="effect4_dropShadow_8117_13323" result="shape"/>
</filter>
</defs>
</svg>
